<svg width="562" height="977" viewBox="0 0 562 977" fill="none" xmlns="http://www.w3.org/2000/svg">
<path fill-rule="evenodd" clip-rule="evenodd" d="M282 661C282 661 278.47 672.512 273.531 677.64C268.858 682.492 258.704 683.88 258.704 683.88C258.704 683.88 268.887 686.337 274.301 693.188C280.752 701.352 282 713 282 713C282 713 283.248 701.352 289.699 693.188C295.113 686.337 305.296 683.88 305.296 683.88C305.296 683.88 295.142 682.492 290.469 677.64C285.53 672.512 282 661 282 661ZM282 844C246.101 844 217 814.899 217 779C217 753.899 236.008 732.814 258.5 722.226C263.227 720 268 718.5 275 717.5C282 716.5 275 705.525 270 700C264.943 694.411 258.5 691.5 252.5 699.5C248.242 705.177 254.811 710.099 258.985 712.478C255.491 710.873 249.735 708.737 246 710C244.786 710.411 243.623 711.075 242.606 711.656C242.398 711.775 242.195 711.891 242 712C218.135 725.338 204 749.718 204 779C204 822.078 238.922 857 282 857C325.078 857 360 822.078 360 779C360 749.718 345.865 725.338 322 712C321.805 711.891 321.602 711.775 321.394 711.656L321.394 711.656C320.377 711.075 319.214 710.411 318 710C314.265 708.737 308.509 710.873 305.015 712.478C309.189 710.099 315.758 705.177 311.5 699.5C305.5 691.5 299.057 694.411 294 700C289 705.525 282 716.5 289 717.5C296 718.5 300.773 720 305.5 722.226C327.992 732.814 347 753.899 347 779C347 814.899 317.899 844 282 844Z" fill="white"/>
<g filter="url(#filter0_i_0_1)">
<path fill-rule="evenodd" clip-rule="evenodd" d="M282 821.579C303.859 821.579 321.579 803.859 321.579 782C321.579 760.141 303.859 742.421 282 742.421C260.141 742.421 242.421 760.141 242.421 782C242.421 803.859 260.141 821.579 282 821.579ZM282 830C308.51 830 330 808.51 330 782C330 755.49 308.51 734 282 734C255.49 734 234 755.49 234 782C234 808.51 255.49 830 282 830Z" fill="url(#paint0_linear_0_1)"/>
</g>
<path fill-rule="evenodd" clip-rule="evenodd" d="M276.31 741V750.539C276.31 750.408 276.274 746.692 274.266 744.817C272.222 742.908 269.155 747.68 269.155 747.68L262 741H276.31ZM276.31 824V814.461C276.31 814.592 276.274 818.308 274.266 820.183C272.222 822.092 269.155 817.32 269.155 817.32L262 824H276.31ZM296.822 747.68C296.822 747.68 293.755 742.908 291.711 744.817C289.692 746.702 289.667 750.449 289.667 750.541V814.459C289.667 814.551 289.692 818.298 291.711 820.183C293.755 822.092 296.822 817.32 296.822 817.32L303.977 824H289.667H276.31V741H289.667H303.977L296.822 747.68Z" fill="white"/>
<path d="M28.2871 679.576C29.0789 679.231 31.2852 677.886 32.0451 673.391C33.1878 666.633 37.491 666.227 46.02 667.695C51.6773 678.886 65.511 673.337 65.511 673.337V680.326C65.511 680.326 63.6722 686.781 51.6773 676.891C47.4122 673.374 39.1858 674.935 38.6548 680.074C38.6548 680.074 39.3578 682.44 43.4457 683.484C50.0653 685.175 54.6983 683.926 59.9946 683.484C65.291 683.042 65.511 680.499 65.511 680.499V694.474C65.511 694.474 62.8625 686.686 58.5832 685.184C56.0395 684.291 51.6773 685.184 51.6773 685.184C51.6773 685.184 57.585 692.887 60.359 699.335C63.133 705.782 65.4891 712.699 65.4891 718.203C65.4891 736.284 65.511 762.621 65.511 762.621L57.202 741.787C62.8846 741.787 61.9375 728.816 61.9375 726.064C61.9375 706.567 55.5122 695.144 49.3298 689.509C43.1474 683.875 34.314 685.184 34.314 685.184C34.314 685.184 35.7347 681.298 34.314 679.681C32.9323 678.108 29.3305 679.212 28.2871 679.576C28.1069 679.654 28 679.681 28 679.681C28 679.681 28.1043 679.64 28.2871 679.576Z" fill="#91C7E9"/>
<path d="M102.713 679.576C101.921 679.231 99.7148 677.886 98.9549 673.391C97.8122 666.633 93.509 666.227 84.98 667.695C79.3227 678.886 65.489 673.337 65.489 673.337V680.326C65.489 680.326 67.3278 686.781 79.3227 676.891C83.5878 673.374 91.8142 674.935 92.3452 680.074C92.3452 680.074 91.6422 682.44 87.5543 683.484C80.9347 685.175 76.3017 683.926 71.0054 683.484C65.709 683.042 65.489 680.499 65.489 680.499V694.474C65.489 694.474 68.1375 686.686 72.4168 685.184C74.9605 684.291 79.3227 685.184 79.3227 685.184C79.3227 685.184 73.415 692.887 70.641 699.335C67.867 705.782 65.5109 712.699 65.5109 718.203C65.5109 736.284 65.489 762.621 65.489 762.621L73.798 741.787C68.1154 741.787 69.0625 728.816 69.0625 726.064C69.0625 706.567 75.4878 695.144 81.6702 689.509C87.8526 683.875 96.686 685.184 96.686 685.184C96.686 685.184 95.2653 681.298 96.686 679.681C98.0677 678.108 101.67 679.212 102.713 679.576C102.893 679.654 103 679.681 103 679.681C103 679.681 102.896 679.64 102.713 679.576Z" fill="#91C7E9"/>
<path fill-rule="evenodd" clip-rule="evenodd" d="M281 946V893.5C278.167 886.167 262.55 870 252.5 870C248.5 870 252.5 874.5 252.5 874.5L259.932 882.807C256.147 878.747 242.405 865.397 220.5 859.5C190.574 851.443 170.347 826.339 160.5 811C174.758 823.128 217.927 847.181 277.932 847.98C279.938 848.039 281 848 281 848C279.973 848 278.95 847.993 277.932 847.98C265.563 847.614 217.289 843.51 160.5 803.5C94.5 757 88.5 689 88.5 689L82.5 696C82.806 701.66 84.6562 714.451 89.5969 723.629C86.0139 717.445 80.5499 707.099 79.5 701.5C76.1667 704.833 70.3 715 73.5 729C79.3334 728.833 91 733.6 91 754C91 774.4 75.3333 789.5 67.5 794.5C64.6667 796.5 59 801.6 59 810C59 818.4 66 820.833 69.5 820.5C70.5 830.667 79.3 847.4 106.5 833C121 833.5 150 843.9 150 881.5C173.833 878.167 220.5 872 252.5 898.5C272.86 915.36 277.804 933.987 280.409 943.805C280.619 944.595 280.814 945.329 281 946ZM104 758.5C109.667 763.667 115.8 776.8 95 788C74.2 799.2 73.3333 808.167 75 812C72.5 808.833 69.9999 800.8 83.9999 788C85.0661 787.025 86.0766 786.104 87.0343 785.231C101.795 771.778 104 769.769 104 758.5ZM96.4999 831C80.0999 820.2 86.1667 807 91.5 801C86.8333 802.167 79.7004 807.471 81 817C82.5 828 91.9999 830.333 96.4999 831ZM120 776.306V777.699C120 778.694 119.194 779.5 118.199 779.5H117.102C115.378 779.5 114.884 777.149 116.436 776.401C116.749 776.25 117.003 775.994 117.148 775.679C117.82 774.224 120 774.703 120 776.306ZM178.231 863.007C175.486 867.861 170.087 868.903 167.449 869.413C167.288 869.444 167.139 869.473 167 869.5C182.41 869.5 186.077 862.437 186.049 858.266C186.046 857.813 185.689 857.461 185.245 857.375C175.315 855.451 164.489 842.488 152.727 828.404C150.68 825.953 148.604 823.467 146.5 821C142.292 816.067 138.618 810.931 135.299 806.293C125.838 793.07 119.274 783.895 111.5 795C99.7863 811.734 97.5 832 130 827.5C145.716 825.324 170.335 850.322 178.192 862.034C178.39 862.329 178.405 862.698 178.231 863.007ZM140 798C140 798 167.917 840.323 196.222 854.858C196.405 854.952 196.556 855.094 196.662 855.27C197.161 856.101 196.413 857.122 195.471 856.898L187.943 855.105C187.651 855.036 187.379 854.902 187.146 854.713C158.35 831.228 140 798 140 798Z" fill="#91C7E9"/>
<path d="M533.713 679.576C532.921 679.231 530.715 677.886 529.955 673.391C528.812 666.633 524.509 666.227 515.98 667.695C510.323 678.886 496.489 673.337 496.489 673.337V680.326C496.489 680.326 498.328 686.781 510.323 676.891C514.588 673.374 522.814 674.935 523.345 680.074C523.345 680.074 522.642 682.44 518.554 683.484C511.935 685.175 507.302 683.926 502.005 683.484C496.709 683.042 496.489 680.499 496.489 680.499V694.474C496.489 694.474 499.138 686.686 503.417 685.184C505.96 684.291 510.323 685.184 510.323 685.184C510.323 685.184 504.415 692.887 501.641 699.335C498.867 705.782 496.511 712.699 496.511 718.203C496.511 736.284 496.489 762.621 496.489 762.621L504.798 741.787C499.115 741.787 500.063 728.816 500.063 726.064C500.063 706.567 506.488 695.144 512.67 689.509C518.853 683.875 527.686 685.184 527.686 685.184C527.686 685.184 526.265 681.298 527.686 679.681C529.068 678.108 532.67 679.212 533.713 679.576C533.893 679.654 534 679.681 534 679.681C534 679.681 533.896 679.64 533.713 679.576Z" fill="#91C7E9"/>
<path d="M459.287 679.576C460.079 679.231 462.285 677.886 463.045 673.391C464.188 666.633 468.491 666.227 477.02 667.695C482.677 678.886 496.511 673.337 496.511 673.337V680.326C496.511 680.326 494.672 686.781 482.677 676.891C478.412 673.374 470.186 674.935 469.655 680.074C469.655 680.074 470.358 682.44 474.446 683.484C481.065 685.175 485.698 683.926 490.995 683.484C496.291 683.042 496.511 680.499 496.511 680.499V694.474C496.511 694.474 493.862 686.686 489.583 685.184C487.04 684.291 482.677 685.184 482.677 685.184C482.677 685.184 488.585 692.887 491.359 699.335C494.133 705.782 496.489 712.699 496.489 718.203C496.489 736.284 496.511 762.621 496.511 762.621L488.202 741.787C493.885 741.787 492.937 728.816 492.937 726.064C492.937 706.567 486.512 695.144 480.33 689.509C474.147 683.875 465.314 685.184 465.314 685.184C465.314 685.184 466.735 681.298 465.314 679.681C463.932 678.108 460.33 679.212 459.287 679.576C459.107 679.654 459 679.681 459 679.681C459 679.681 459.104 679.64 459.287 679.576Z" fill="#91C7E9"/>
<path fill-rule="evenodd" clip-rule="evenodd" d="M281 946V893.5C283.833 886.167 299.45 870 309.5 870C313.5 870 309.5 874.5 309.5 874.5L302.068 882.807C305.853 878.747 319.595 865.397 341.5 859.5C371.426 851.443 391.653 826.339 401.5 811C387.242 823.128 344.073 847.181 284.068 847.98C282.062 848.039 281 848 281 848C282.027 848 283.05 847.993 284.068 847.98C296.437 847.614 344.711 843.51 401.5 803.5C467.5 757 473.5 689 473.5 689L479.5 696C479.194 701.66 477.344 714.451 472.403 723.629C475.986 717.445 481.45 707.099 482.5 701.5C485.833 704.833 491.7 715 488.5 729C482.667 728.833 471 733.6 471 754C471 774.4 486.667 789.5 494.5 794.5C497.333 796.5 503 801.6 503 810C503 818.4 496 820.833 492.5 820.5C491.5 830.667 482.7 847.4 455.5 833C441 833.5 412 843.9 412 881.5C388.167 878.167 341.5 872 309.5 898.5C289.14 915.36 284.196 933.987 281.591 943.805C281.381 944.595 281.186 945.329 281 946ZM458 758.5C452.333 763.667 446.2 776.8 467 788C487.8 799.2 488.667 808.167 487 812C489.5 808.833 492 800.8 478 788C476.934 787.025 475.923 786.104 474.966 785.231C460.205 771.778 458 769.769 458 758.5ZM465.5 831C481.9 820.2 475.833 807 470.5 801C475.167 802.167 482.3 807.471 481 817C479.5 828 470 830.333 465.5 831ZM442 776.306V777.699C442 778.694 442.806 779.5 443.801 779.5H444.898C446.622 779.5 447.116 777.149 445.564 776.401C445.251 776.25 444.997 775.994 444.852 775.679C444.18 774.224 442 774.703 442 776.306ZM383.769 863.007C386.514 867.861 391.913 868.903 394.551 869.413C394.712 869.444 394.861 869.473 395 869.5C379.59 869.5 375.923 862.437 375.951 858.266C375.954 857.813 376.311 857.461 376.755 857.375C386.685 855.451 397.511 842.488 409.273 828.404C411.32 825.953 413.396 823.467 415.5 821C419.708 816.067 423.382 810.931 426.701 806.293C436.162 793.07 442.726 783.895 450.5 795C462.214 811.734 464.5 832 432 827.5C416.284 825.324 391.665 850.322 383.808 862.034C383.61 862.329 383.595 862.698 383.769 863.007ZM422 798C422 798 394.083 840.323 365.778 854.858C365.595 854.952 365.444 855.094 365.338 855.27C364.839 856.101 365.587 857.122 366.529 856.898L374.057 855.105C374.349 855.036 374.621 854.902 374.854 854.713C403.65 831.228 422 798 422 798Z" fill="#91C7E9"/>
<path fill-rule="evenodd" clip-rule="evenodd" d="M17 739L10.9677 750.5L0 753L11.5161 764L17 787L22.4839 764L34 753L23.0323 750.5L17 739Z" fill="#91C7E9"/>
<path fill-rule="evenodd" clip-rule="evenodd" d="M522.333 878L518.312 885.667L511 887.333L518.677 894.667L522.333 910L525.989 894.667L533.667 887.333L526.355 885.667L522.333 878Z" fill="#91C7E9"/>
<rect x="70" width="4" height="679" fill="url(#paint1_linear_0_1)"/>
<rect x="478" width="4" height="674" fill="url(#paint2_linear_0_1)"/>
<rect x="80" width="4" height="673" fill="url(#paint3_linear_0_1)"/>
<rect x="488" width="4" height="679" fill="url(#paint4_linear_0_1)"/>
<defs>
<filter id="filter0_i_0_1" x="232" y="734" width="98" height="98" filterUnits="userSpaceOnUse" color-interpolation-filters="sRGB">
<feFlood flood-opacity="0" result="BackgroundImageFix"/>
<feBlend mode="normal" in="SourceGraphic" in2="BackgroundImageFix" result="shape"/>
<feColorMatrix in="SourceAlpha" type="matrix" values="0 0 0 0 0 0 0 0 0 0 0 0 0 0 0 0 0 0 127 0" result="hardAlpha"/>
<feOffset dx="-2" dy="2"/>
<feGaussianBlur stdDeviation="2"/>
<feComposite in2="hardAlpha" operator="arithmetic" k2="-1" k3="1"/>
<feColorMatrix type="matrix" values="0 0 0 0 1 0 0 0 0 1 0 0 0 0 1 0 0 0 0.25 0"/>
<feBlend mode="normal" in2="shape" result="effect1_innerShadow_0_1"/>
</filter>
<linearGradient id="paint0_linear_0_1" x1="315" y1="746" x2="254.5" y2="814" gradientUnits="userSpaceOnUse">
<stop stop-color="#72C4F7"/>
<stop offset="1" stop-color="#233CC0"/>
</linearGradient>
<linearGradient id="paint1_linear_0_1" x1="71.9992" y1="679" x2="71.9992" y2="0" gradientUnits="userSpaceOnUse">
<stop stop-color="#91C7E9"/>
<stop offset="1" stop-color="#527083" stop-opacity="0"/>
</linearGradient>
<linearGradient id="paint2_linear_0_1" x1="480" y1="674" x2="480" y2="0" gradientUnits="userSpaceOnUse">
<stop stop-color="#91C7E9"/>
<stop offset="1" stop-color="#527083" stop-opacity="0"/>
</linearGradient>
<linearGradient id="paint3_linear_0_1" x1="81.9986" y1="673" x2="81.9986" y2="0" gradientUnits="userSpaceOnUse">
<stop stop-color="#91C7E9"/>
<stop offset="1" stop-color="#527083" stop-opacity="0"/>
</linearGradient>
<linearGradient id="paint4_linear_0_1" x1="489.999" y1="679" x2="489.999" y2="0" gradientUnits="userSpaceOnUse">
<stop stop-color="#91C7E9"/>
<stop offset="1" stop-color="#527083" stop-opacity="0"/>
</linearGradient>
</defs>
</svg>
