<svg width="657" height="1082" viewBox="0 0 657 1082" fill="none" xmlns="http://www.w3.org/2000/svg">
<mask id="mask0_103_445" style="mask-type:alpha" maskUnits="userSpaceOnUse" x="48" y="48" width="561" height="986">
<g style="mix-blend-mode:hard-light">
<path d="M151 727.681C151 727.681 150.896 727.64 150.713 727.576C150.893 727.654 151 727.681 151 727.681Z" fill="#FFA800"/>
<path d="M425.587 611.81C424.42 608.095 419.742 599.444 410.369 594.554C401.643 590.001 387.549 587.815 369.298 588.626C370.512 592.853 372.185 595.839 373.976 597.883C377.368 601.754 381.505 602.624 385.049 601.953L385.162 602.476C406.262 599.94 414.61 605.297 420.43 609.031C422.297 610.229 423.903 611.26 425.587 611.81Z" fill="#FFA800"/>
<path d="M507.287 727.576C507.107 727.654 507 727.681 507 727.681C507 727.681 507.037 727.666 507.106 727.641C507.153 727.624 507.214 727.602 507.287 727.576Z" fill="#FFA800"/>
<path fill-rule="evenodd" clip-rule="evenodd" d="M118 48H122V407.219C123.861 406.16 125.881 404.848 128 403.015V48H132V398.985C135.536 394.876 139.225 389.02 142.817 380.327L144.513 380.871C145.705 377.466 148.526 374.319 153.575 373.316C156.001 372.835 159.053 372.829 162.8 373.631C154.208 390.452 145.049 401.955 136.554 407.356C135.051 408.312 133.522 409.099 132 409.743V447.503L152.397 435.727L191.92 448.954L154.767 466.245L132 457.76V526H195.101C192.736 490.356 196.467 428.425 233.561 393.724C260.658 368.374 262.936 355.753 262.635 347.983C261.343 345.339 259.835 342.636 258.082 339.878C240.356 311.998 208.174 316.799 201.203 321.231C200.59 321.621 199.929 322.01 199.229 322.414C198.887 322.611 198.535 322.811 198.174 323.017C190.884 327.169 179.912 333.418 170.656 356.313L170.404 356.933C161.114 357.193 154.245 359.146 149.147 362.392C149.024 362.47 148.901 362.55 148.78 362.63C150.626 355.98 152.401 348.313 154.066 339.455C168.737 261.388 256.067 207.397 295.265 189C262.437 223.574 253.643 248.741 248.23 265.885C245.27 275.597 244.161 301.357 263.408 326.704C282.656 352.051 273.688 388.029 266.798 402.849C267.021 401.12 267.349 399.217 267.704 397.15C269.236 388.252 271.29 376.317 267.801 362.115C266.036 371.348 260.225 383.528 250.37 397.325C239.938 411.931 240.383 421.097 240.679 427.188L240.703 427.685L240.723 428.126C240.748 428.693 240.765 429.23 240.765 429.742C240.765 435.745 250.37 457.356 274.382 457.356C295.149 457.356 306.038 447.478 313.262 440.925C313.653 440.57 314.034 440.225 314.404 439.892C315.103 439.263 315.768 438.677 316.404 438.146C310.001 448.152 291.431 467.682 268.379 465.761C245.327 463.84 229.959 474.565 225.157 480.168C217.922 488.781 208.017 501.25 200.04 526H276.676C276.817 525.676 276.956 525.349 277.094 525.021C289.422 495.678 325.063 485.456 341.343 484.013C339.734 484.684 337.922 485.352 335.954 486.077C327.043 489.362 314.931 493.826 303.927 505.136C312.776 501.733 326.656 500.508 344.262 502.215C362.126 503.947 369.842 498.978 374.969 495.677L374.971 495.675L374.978 495.671C375.243 495.5 375.502 495.333 375.755 495.172C375.975 495.032 376.192 494.896 376.404 494.764L376.574 494.66L376.779 494.537L376.954 494.432L377.138 494.325C382.337 491.323 396.25 472.2 384.244 451.404C373.86 433.42 359.861 428.929 350.574 425.949C349.122 425.484 347.786 425.055 346.597 424.617C358.463 425.16 384.661 431.477 394.524 452.401C404.386 473.325 421.359 481.271 428.612 482.629C441.479 484.905 460.653 487.699 493.968 478.168C485.522 484.604 472.623 493.208 457.115 501.14C481.983 502.193 505.373 509.157 526 520.705V478.61C516.789 461.26 507.47 450.641 500.093 442.584C493.162 435.165 471.407 421.324 439.833 425.319C427.955 426.822 416.771 424.115 406.939 419.44C400.314 421.518 391.423 420.256 378.497 411.509C373.928 408.418 369.784 406.908 366.012 406.562C358.977 416.756 345.172 419.996 334.258 413.695C322.773 407.064 318.838 392.378 325.469 380.893C332.099 369.408 346.785 365.473 358.27 372.104C361.39 373.906 374.907 381.709 384.661 398.431C385.293 399.515 385.926 400.543 386.557 401.517C396.547 408.456 410.406 415.003 431.087 414.119C464.095 412.708 476.028 382.437 475.675 374.185C475.652 373.633 475.642 373.058 475.639 372.459C475.638 372.18 475.638 371.897 475.639 371.608L475.643 370.71L475.643 370.669C475.691 362.458 475.763 350.188 461.518 331.423C466.235 324.321 469.121 318.084 470.521 312.525C474.331 316.196 478.624 320.098 483.461 324.25C503.164 341.163 516.756 363.514 526 387.447V48H530V398.702C532.339 405.875 534.324 413.133 536 420.378V48H540V441.042C545.069 473.135 544.75 503.044 543.16 521.76C542.128 518.272 541.073 514.933 540 511.734V526H551V527H540V529.542C581.666 559.001 609 608.458 609 664.5C609 714.786 586.993 759.77 552.372 789.762C552.449 789.771 552.526 789.778 552.605 789.782L552.695 789.786L552.798 789.787L544.511 810.565V810.621L544.5 810.593L544.489 810.621V810.565L541.255 802.456C540.435 811.19 538.949 819.723 536.849 828H551V829H536.593C535.977 831.366 535.311 833.71 534.596 836.033C537.501 838.91 540.307 841.101 542.5 842.5C545.333 844.5 551 849.6 551 858C551 866.4 544 868.833 540.5 868.5C539.593 877.726 532.261 892.36 510.583 884.226C508.678 886.858 506.698 889.429 504.646 891.935C494.437 972.104 427.748 1034 347 1034C279.384 1034 221.626 990.6 198.634 929.412L198 929.5C198 929.203 197.998 928.907 197.995 928.613C197.99 928.283 197.984 927.954 197.976 927.628C195.698 921.348 193.785 914.885 192.263 908.266C170.919 905.051 150.958 897.475 133.269 886.448C126.702 885.643 122.57 881.777 120.175 877.338C98.5917 860.656 81.3002 838.447 70.3016 812.764L65 835L59.5161 812L48 801L58.9678 798.5L62.7971 791.2C59.0195 777.295 57.0001 762.639 57.0001 747.5C57.0001 695.449 80.8704 649.114 118 619.374V527H107V526H118V412.356C116.348 412.305 114.975 412.125 114 411.908C115.093 410.927 116.446 410.157 118 409.343V48ZM536 526V500.644C534.035 495.574 532.027 490.91 530 486.607V523.023C531.609 523.987 533.2 524.98 534.773 526H536ZM536 528.006V676H530V527H534.474C534.985 527.333 535.493 527.668 536 528.006ZM540 676V530.77C581.08 560.09 608 609.042 608 664.5C608 714.719 585.927 759.602 551.254 789.405C547.735 787.479 547.951 778.791 548.042 775.159C548.053 774.709 548.062 774.336 548.062 774.064C548.062 754.567 554.488 743.144 560.67 737.509C566.853 731.875 575.686 733.184 575.686 733.184C575.686 733.184 574.265 729.298 575.686 727.681C577.068 726.108 580.669 727.211 581.713 727.576C581.893 727.654 582 727.681 582 727.681C582 727.681 581.896 727.64 581.713 727.576C580.921 727.231 578.715 725.886 577.955 721.392C576.812 714.633 572.509 714.227 563.98 715.695C558.454 726.627 545.125 721.584 544.511 721.345V721.336L544.5 721.341L544.489 721.336V721.345C544.272 721.429 542.477 722.11 540 722.479V677H551V676H540ZM536 677H530V721.058C531.926 722.136 534.019 722.585 536 722.688V677ZM122 412.229C123.862 412.057 125.894 411.717 128 411.134V449.813L122 453.277V412.229ZM122 454.033L128 456.269V526H122V454.033ZM122 527H128V611.984C125.967 613.367 123.966 614.797 122 616.272V527ZM122 617.525C123.966 616.036 125.966 614.593 128 613.197V676H122V617.525ZM132 610.541V676H140.367C154.991 644.522 179.17 618.609 209.06 602.204C199.322 598.299 190.1 594.055 181.594 589.752C163.741 593.769 147.021 600.892 132 610.541ZM122 677H128V714.326C127.534 716.751 127.121 719.196 126.761 721.659C125.196 722.31 123.563 722.607 122 722.688V677ZM132 677V698.021C134.17 690.786 136.819 683.767 139.907 677H132ZM127.849 721.141C127.898 720.812 127.948 720.482 128 720.153V721H128.102C128.044 721.033 127.987 721.065 127.929 721.097L127.849 721.141ZM132 701.626V717.359C132.348 716.851 132.676 716.297 132.98 715.695C141.509 714.227 145.812 714.633 146.955 721.392C147.715 725.886 149.921 727.231 150.713 727.576C149.67 727.211 146.068 726.108 144.686 727.681C143.265 729.298 144.686 733.184 144.686 733.184C144.686 733.184 135.853 731.875 129.67 737.509C128.459 738.613 127.239 739.938 126.06 741.503C126.02 742.998 126 744.496 126 746C126 746.37 126.001 746.74 126.004 747.11C126.006 747.535 126.011 747.959 126.017 748.382L126.026 748.992C126.032 749.321 126.039 749.65 126.047 749.979C126.056 750.375 126.067 750.77 126.079 751.164C126.579 750.496 127.061 749.938 127.5 749.5C128.55 755.1 134.014 765.444 137.597 771.628C132.656 762.451 130.806 749.66 130.5 744L136.5 737C136.5 737 139.131 766.82 160.075 800.469C161.569 750.253 185.355 705.769 221.661 677H141.006C137.382 684.881 134.36 693.111 132 701.626ZM132 527V609.352C146.647 600.027 162.886 593.083 180.203 589.044C164.479 581.005 151.284 572.813 141.91 566.284C188.266 577.427 214.459 572.459 232.012 568.575C241.677 566.335 263.731 554.901 276.235 527H199.72C198.546 530.718 197.414 534.708 196.342 538.999C195.894 535.506 195.485 531.47 195.17 527H132ZM526 521.854C504.889 509.934 480.844 502.858 455.272 502.073C431.697 513.889 402.412 523.94 373.652 522.624C371.771 523.711 369.913 524.837 368.081 526H418.301L417.757 522.772L423.348 526H526V521.854ZM530 526V524.191C530.394 524.43 530.788 524.67 531.18 524.911C531.762 525.271 532.342 525.633 532.919 526H530ZM526 527H425.08L448.95 540.781L457.257 581.623L423.705 558.093L418.469 527H366.526C362.429 529.669 358.46 532.527 354.629 535.563C357.903 541.867 363.684 555.213 363.762 572.875C363.885 600.627 376.33 607.268 385.718 605.492C374.769 608.169 362.242 606.572 350.382 582.162C347.666 576.572 344.473 572.765 340.988 570.303C334.622 573.324 327.571 573.642 321.236 571.634C318.184 576.146 315.35 580.826 312.747 585.657C320.311 587.073 327.689 589.038 334.839 591.51C339.011 591.577 343.734 591.297 349.112 590.542C349.633 590.469 350.151 590.398 350.667 590.329C354.105 596.149 357.672 600.469 361.36 603.56C371.051 609.103 380.117 615.655 388.424 623.077C432.686 624.47 472.382 644.583 500.323 676H526V527ZM526 677H501.205C511.085 688.293 519.458 701.015 526 714.829V677ZM526 717.196C519.249 702.444 510.408 688.911 499.874 677H428.094C430.624 682.544 432.859 688.257 434.777 694.12C454.729 715.775 468.93 743.027 474.884 773.328C482.355 783.706 488.659 795.026 493.597 807.083C518.515 770.829 521.5 737 521.5 737L527.5 744C527.194 749.66 525.344 762.451 520.403 771.628C523.986 765.444 529.45 755.1 530.5 749.5C533.833 752.833 539.7 763 536.5 777C530.667 776.833 519 781.6 519 802C519 804.919 519.321 807.729 519.893 810.417C526.782 806.923 533.388 802.925 539.665 798.469L536.202 789.787C539.604 789.787 540.63 785.138 540.906 780.815C540.574 770.865 539.375 761.142 537.386 751.725C534.964 745.125 531.613 740.501 528.33 737.509C522.147 731.875 513.314 733.184 513.314 733.184C513.314 733.184 514.735 729.298 513.314 727.681C511.932 726.108 508.33 727.211 507.287 727.576C508.079 727.231 510.285 725.886 511.045 721.392C512.188 714.633 516.491 714.227 525.02 715.695C525.208 716.068 525.406 716.422 525.612 716.759C525.738 716.965 525.868 717.165 526 717.358V717.196ZM58.0001 747.5C58.0001 696.048 81.4598 650.229 118 620.658V676H107V677H118V722.479C115.523 722.11 113.727 721.43 113.511 721.345V721.336L113.5 721.341L113.489 721.336V721.345C112.875 721.584 99.5464 726.627 94.0199 715.695C85.491 714.227 81.1879 714.633 80.0452 721.392C79.2852 725.886 77.0789 727.231 76.2871 727.576C76.1042 727.64 76 727.681 76 727.681C76 727.681 76.1069 727.654 76.2871 727.576C77.3304 727.211 80.9324 726.108 82.314 727.681C83.7347 729.298 82.314 733.184 82.314 733.184C82.314 733.184 91.1473 731.875 97.3297 737.509C103.512 743.144 109.938 754.567 109.938 774.064C109.938 774.336 109.947 774.709 109.958 775.159C110.06 779.256 110.322 789.787 105.202 789.787L113.489 810.565V810.621L113.5 810.593L113.511 810.621V810.565L121.798 789.787C116.678 789.787 116.94 779.256 117.042 775.159C117.053 774.709 117.062 774.336 117.062 774.064C117.062 759.513 120.641 749.458 125.027 742.952C125.019 743.432 125.012 743.913 125.008 744.395C125.005 744.665 125.003 744.935 125.002 745.206C125.001 745.471 125 745.735 125 746C125 748.193 125.042 750.376 125.126 752.549C122.071 757.359 118.985 765.996 121.5 777C123.334 776.948 125.745 777.383 128.188 778.639C130.4 789.796 133.724 800.54 138.036 810.742C136.583 817.303 133.636 823.125 130.205 828H107V829H129.485C124.739 835.446 119.231 840.119 115.5 842.5C112.667 844.5 107 849.6 107 858C107 866.4 114 868.833 117.5 868.5C117.707 870.602 118.247 872.985 119.214 875.315C98.2859 858.715 81.5446 836.829 70.8955 811.607L82 801L71.0322 798.5L65 787L63.4819 789.894C59.9076 776.385 58.0001 762.171 58.0001 747.5ZM514.811 878.098C522.087 872.859 524.345 867.129 524.143 861.967C525.206 859.863 526.226 857.732 527.202 855.575C528.688 858.042 529.521 861.182 529 865C527.584 875.385 519.037 878.046 514.3 878.872L514.504 878.562L514.811 878.098ZM526.55 854.59C526.245 855.27 525.936 855.947 525.623 856.622C525.375 857.154 525.125 857.686 524.872 858.215C524.573 858.844 524.269 859.47 523.961 860.093C523.266 855.563 520.814 851.604 518.5 849C521.038 849.634 524.306 851.493 526.55 854.59ZM530.691 847.269C536.095 853.082 536.056 857.571 535 860C537.021 857.44 539.042 851.698 532.343 842.828C532.063 843.615 531.777 844.4 531.486 845.182C531.225 845.879 530.96 846.575 530.691 847.269ZM531.614 841.893C531.395 842.516 531.172 843.137 530.946 843.757C530.614 844.667 530.274 845.573 529.927 846.475C526.779 843.312 522.027 839.784 515 836C510.764 833.719 507.645 831.358 505.412 829H518.342C519.727 830.279 521.263 831.679 522.966 833.231C523.923 834.104 524.934 835.025 526 836C528.288 838.092 530.135 840.056 531.614 841.893ZM533.798 835.227C534.424 833.168 535.011 831.093 535.559 829H528.515C530.217 831.312 532.017 833.395 533.798 835.227ZM527.795 828H535.818C538.096 819.076 539.656 809.851 540.432 800.394L540.046 799.425C533.72 803.902 527.063 807.917 520.121 811.424C521.622 817.707 524.483 823.294 527.795 828ZM500.556 818.621C500.353 813.449 503.232 809.024 506 806.5C506 810.583 506.289 813.45 507.36 816.086C505.117 816.983 502.848 817.829 500.556 818.621ZM500.637 819.651C503.04 818.825 505.418 817.942 507.768 817.002C509.331 820.221 512.183 823.261 517.264 828H504.516C502.107 825.145 500.951 822.312 500.637 819.651ZM492.918 808.064C488.25 796.538 482.328 785.683 475.329 775.681C477.083 785.347 478 795.314 478 805.5C478 812.005 477.626 818.421 476.899 824.727C478.026 824.531 479.149 824.322 480.267 824.102C485.001 818.776 489.198 813.397 492.918 808.064ZM479.161 825.334C478.368 825.483 477.573 825.626 476.776 825.764C476.685 826.511 476.589 827.256 476.488 828H476.694C477.532 827.113 478.354 826.225 479.161 825.334ZM475.269 829.492L475.34 829H420.872C415.765 837.832 409.868 846.126 403.281 853.782C398.551 866.719 390.493 878.054 380.143 886.749C399.822 880.37 423.788 869.615 449.5 851.5C459.372 844.545 467.901 837.109 475.269 829.492ZM373.79 891.557C411.88 883.882 438.812 868.09 449.5 859C439.653 874.338 419.426 899.443 389.5 907.5C367.595 913.397 353.853 926.748 350.068 930.807L357.5 922.5C357.5 922.5 361.5 918 357.5 918C348.328 918 334.52 931.465 330.023 939.392C329.134 939.061 328.25 938.722 327.368 938.375C322.339 930.368 309.29 918 300.5 918C296.5 918 300.5 922.5 300.5 922.5L304.767 927.27C304.349 927.02 303.932 926.769 303.517 926.515C299.792 923.189 294.22 918.84 286.953 914.897C284.564 912.983 282.23 910.999 279.954 908.948C281.299 908.983 282.647 909 284 909C296.816 909 309.277 907.446 321.215 904.511C324.099 904.834 327.03 905 330 905C346.232 905 361.306 900.042 373.79 891.557ZM329.189 940.149L328.832 940.014L328.185 939.768C328.52 940.385 328.794 940.966 329 941.5C329.067 941.326 329.142 941.147 329.223 940.963C329.272 940.853 329.324 940.74 329.378 940.626C329.431 940.513 329.487 940.399 329.546 940.283L329.189 940.149ZM329 994C328.908 993.669 328.814 993.324 328.718 992.964C328.618 992.593 328.516 992.206 328.409 991.805C326.903 986.131 324.617 977.516 319.026 968H319C278.752 968 241.996 952.716 213.987 927.518C208.698 928.045 203.858 928.687 199.649 929.271C222.555 989.979 279.906 1033 347 1033C426.687 1033 492.631 972.314 503.446 893.384C476.167 925.929 436.65 947.256 392.274 949.754C376.197 958.301 358.512 964.124 339.804 966.622C333.605 976.682 331.169 985.859 329.591 991.805L329.438 992.38C329.362 992.665 329.288 992.942 329.216 993.21L329.108 993.606L329 994ZM340.497 965.518C358.041 963.078 374.67 957.694 389.892 949.87C387.772 949.957 385.641 950 383.5 950C374.195 950 365.078 949.173 356.212 947.586C349.299 953.526 344.249 959.655 340.497 965.518ZM357.205 946.745L357.5 946.5C376.968 930.378 401.864 926.347 423.745 926.412C414.135 935.117 403.48 942.642 391.996 948.768C389.183 948.922 386.35 949 383.5 949C374.541 949 365.757 948.228 357.205 946.745ZM425.218 926.423C415.869 935.006 405.519 942.473 394.37 948.619C417.544 946.989 439.346 940.185 458.695 929.318C449.825 928.085 438.082 926.568 425.218 926.423ZM460.006 928.573C476.655 919.009 491.45 906.419 503.69 891.524C504.102 888.242 504.419 884.93 504.638 881.59C504.262 881.399 503.883 881.203 503.5 881C489.12 881.496 460.478 891.729 460.006 928.573ZM505.608 882.072C506.995 882.749 508.332 883.34 509.619 883.853C508.085 885.965 506.503 888.037 504.873 890.067C505.18 887.421 505.426 884.756 505.608 882.072ZM505.959 866.761C505.887 863.438 505.718 860.14 505.455 856.869C506.476 860.458 506.73 863.851 505.959 866.761ZM504.094 852.996C504.65 858.33 504.954 863.741 504.995 869.217C502.104 874.575 494.527 877.512 480 875.5C473.755 874.636 466.105 878.061 458.66 883.239C461.889 877.191 464.754 870.911 467.223 864.429C469.926 860.966 472.399 857.51 474.701 854.293C484.162 841.07 490.726 831.895 498.5 843C500.787 846.268 502.715 849.669 504.094 852.996ZM465.113 867.069C464.584 867.715 464.047 868.359 463.5 869C462.336 870.364 461.182 871.734 460.036 873.1C459.109 874.205 458.188 875.308 457.273 876.404C445.511 890.488 434.685 903.451 424.755 905.375C424.311 905.461 423.954 905.813 423.951 906.266C423.93 909.438 426.046 914.283 433.839 916.422C434.337 915.883 434.832 915.341 435.322 914.796C433.971 913.895 432.713 912.676 431.769 911.007C431.595 910.698 431.61 910.33 431.808 910.034C436.283 903.364 446.194 892.385 456.801 884.57C459.901 878.937 462.681 873.095 465.113 867.069ZM436.19 915.326C435.777 915.786 435.362 916.244 434.944 916.698C437.184 917.205 439.846 917.5 443 917.5L442.677 917.437L442.551 917.413C441.012 917.116 438.533 916.637 436.19 915.326ZM544.511 766.203C544.511 775.143 544.506 786.101 544.5 794.896L544.496 786.66C544.494 783.209 544.492 779.641 544.491 776.142L544.489 766.203C544.489 760.699 542.133 753.782 539.359 747.334C538.368 745.032 536.977 742.568 535.599 740.353C534.879 737.823 534.101 735.319 533.267 732.842C534.658 732.737 536.339 732.747 537.583 733.184C541.637 734.606 544.227 741.669 544.489 742.411V742.474L544.5 742.442L544.511 742.474V742.411C544.773 741.669 547.363 734.606 551.417 733.184C553.96 732.291 558.323 733.184 558.323 733.184C558.323 733.184 552.415 740.887 549.641 747.334C546.867 753.782 544.511 760.699 544.511 766.203ZM532.246 732.942C532.746 734.42 533.226 735.908 533.685 737.405C531.999 734.907 530.677 733.184 530.677 733.184C530.677 733.184 531.316 733.053 532.246 732.942ZM533.509 732.09C533.349 732.107 533.189 732.124 533.029 732.139C532.154 729.579 531.219 727.047 530.226 724.547C530.381 724.656 530.531 724.77 530.677 724.891C542.154 734.354 544.333 728.854 544.5 728.36C544.667 728.854 546.846 734.354 558.323 724.891C562.588 721.374 570.814 722.935 571.345 728.074C571.345 728.074 570.642 730.44 566.554 731.484C561.379 732.807 557.418 732.332 553.404 731.85C552.835 731.781 552.266 731.713 551.691 731.649C551.135 731.588 550.574 731.532 550.005 731.484C545.399 731.1 544.633 729.126 544.511 728.618V728.499L544.507 728.528L544.5 728.568L544.491 728.519L544.489 728.499V728.618C544.367 729.126 543.601 731.1 538.995 731.484C538.792 731.501 538.589 731.52 538.388 731.539C538.119 731.564 537.851 731.591 537.585 731.62C537.229 731.658 536.876 731.698 536.524 731.739L535.667 731.841L535.596 731.85C535.123 731.906 534.65 731.963 534.177 732.017C533.954 732.042 533.732 732.067 533.509 732.09ZM532.003 732.23C531.023 729.374 529.967 726.554 528.838 723.773C524.403 721.84 518.117 723.603 517.655 728.074C517.655 728.074 518.358 730.44 522.446 731.484C526.085 732.414 529.125 732.455 532.003 732.23ZM193.852 907.487C193.423 906.487 192.965 905.522 192.482 904.591C192.676 905.522 192.877 906.452 193.085 907.377L193.852 907.487ZM190.916 901.827L190.801 901.642C190.335 900.994 189.873 900.342 189.417 899.687C189.22 899.405 189.025 899.123 188.83 898.839C188.658 898.59 188.487 898.34 188.317 898.089C178.549 885.566 163.642 881.315 154.5 881C146.717 885.12 140.441 886.691 135.423 886.597C152.486 896.947 171.617 904.091 192.026 907.218C191.627 905.432 191.257 903.635 190.916 901.827ZM178 875.5C181.095 875.072 184.536 875.697 188.126 877.068C188.113 876.718 188.1 876.367 188.089 876.017C181.715 871.067 175.716 865.637 170.145 859.778C172.043 865.218 174.219 870.523 176.655 875.675C177.096 875.622 177.545 875.563 178 875.5ZM318.427 966.999C278.992 966.856 242.955 951.943 215.341 927.387C240.468 925.013 275.103 925.468 300.5 946.5C308.683 953.276 314.376 960.338 318.427 966.999ZM278.414 908.901C279.869 910.231 281.347 911.534 282.849 912.809C279.546 911.236 275.951 909.781 272.073 908.548C274.176 908.708 276.29 908.826 278.414 908.901ZM215 917.5C227.414 917.5 232.207 912.917 233.587 908.954C231.054 909.249 228.502 909.483 225.934 909.654L226.037 909.805L226.192 910.034C226.39 910.33 226.405 910.698 226.231 911.007C223.486 915.861 218.087 916.903 215.449 917.413C215.288 917.444 215.139 917.473 215 917.5ZM225.262 908.695C228.156 908.513 231.028 908.252 233.878 907.912C234 907.332 234.052 906.777 234.049 906.266C234.046 905.813 233.689 905.461 233.245 905.375C227.541 904.27 221.54 899.521 215.237 893.01C211.698 891.268 208.231 889.394 204.844 887.396C213.358 894.323 221.035 902.796 225.262 908.695ZM258.345 903.994C261.119 905.168 263.992 906.202 266.963 907.069C270.371 907.443 273.812 907.707 277.282 907.856C274.661 905.413 272.119 902.881 269.662 900.265C265.952 901.647 262.178 902.893 258.345 903.994ZM208.5 859C217.016 872.265 233.294 892.833 256.896 903.364C260.972 902.228 264.984 900.928 268.922 899.472C264.392 894.585 260.154 889.409 256.235 883.973C232.921 875.942 216.34 865.668 208.5 859ZM269.935 899.094C265.647 894.491 261.619 889.629 257.876 884.531C266.428 887.399 275.856 889.955 286.064 891.922C280.846 894.608 275.463 897.005 269.935 899.094ZM252.617 876.926C262.86 881.584 272.434 885.108 281.103 887.774C263.839 873.866 252.623 852.751 252.025 829H231.441C235.969 846.289 243.192 862.434 252.617 876.926ZM208.5 851.5C223.394 861.994 237.702 870.017 250.931 876.151C241.817 861.84 234.823 845.965 230.408 829H194.199C193.4 832.118 192.69 835.273 192.07 838.462C197.085 842.939 202.549 847.307 208.5 851.5ZM244.076 902.783C220.673 890.685 197.568 859.672 190.323 849.378L190.264 849.849C195.552 858.536 209.814 880.307 229.943 898.27C234.557 899.992 239.272 901.5 244.076 902.783ZM193.167 829C192.438 831.865 191.783 834.76 191.204 837.684C188.044 834.826 185.066 831.926 182.258 829H193.167ZM161.037 801.996C166.506 810.584 173.177 819.395 181.306 828H193.425C199.699 803.967 211.167 782.12 226.514 763.809C230.976 730.658 245.073 700.687 265.795 677H223.281C186.276 705.842 162.098 751.006 161.037 801.996ZM135.034 833.231C136.737 831.679 138.273 830.279 139.658 829H147.128C147.745 830.067 148.374 831.126 149.014 832.178C147.321 833.467 145.33 834.746 143 836C122.2 847.2 121.333 856.167 123 860C120.5 856.833 118 848.8 132 836L135.034 833.231ZM148.284 829C148.784 829.857 149.291 830.709 149.806 831.556C150.857 830.706 151.78 829.853 152.588 829H148.284ZM158.662 844.227L158.514 844.451C161.421 848.341 164.497 852.091 167.729 855.691C166.003 850.252 164.549 844.686 163.385 839.012C162.111 839.807 160.823 841.11 159.5 843C159.297 843.291 159.096 843.583 158.898 843.875L158.797 844.025L158.662 844.227ZM168.483 858.005C164.763 853.974 161.242 849.75 157.935 845.346C147.921 861.13 147.047 878.828 175.606 875.794C172.902 870.044 170.52 864.106 168.483 858.005ZM146.555 828H140.736C141.137 827.625 141.525 827.262 141.899 826.907C142.272 826.554 142.633 826.21 142.98 825.875C143.53 825.343 144.048 824.833 144.535 824.342C145.193 825.571 145.867 826.791 146.555 828ZM147.706 828C146.872 826.545 146.059 825.076 145.268 823.593C150.927 817.716 152 814.361 152 806.5C156.349 810.465 160.974 819.124 153.484 828H147.706ZM139 802C139 804.404 138.782 806.735 138.386 808.984C134.484 799.513 131.436 789.582 129.339 779.292C134.278 782.371 139 789.021 139 802ZM183.299 854.293C175.838 843.865 170.178 835.954 164.306 838.523C165.621 844.994 167.315 851.322 169.363 857.483C175.134 863.719 181.384 869.485 188.052 874.718C188.024 873.6 188.008 872.479 188.002 871.355C188.001 871.07 188 870.785 188 870.5C188 867.353 188.087 864.227 188.257 861.123C186.517 858.791 184.875 856.496 183.312 854.311L183.299 854.293ZM188 846C188 846 188.489 846.885 189.431 848.467L189.472 848.161C188.514 846.778 188 846 188 846ZM189 870.5C189 867.774 189.065 865.063 189.194 862.37C190.868 864.579 192.632 866.81 194.5 869C196.604 871.467 198.68 873.953 200.727 876.404C205.011 881.534 209.171 886.515 213.208 890.868C204.696 886.486 196.622 881.338 189.074 875.513C189.025 873.848 189 872.177 189 870.5ZM244.806 904.01C240.47 902.883 236.205 901.574 232.019 900.09C233.047 900.976 234.09 901.851 235.146 902.712C235.379 902.902 235.651 903.036 235.943 903.105L243.47 904.898C244.138 905.057 244.708 904.591 244.806 904.01ZM189.143 877.474C189.862 877.774 190.586 878.102 191.314 878.456L190.978 878.208L190.635 877.954C190.406 877.783 190.177 877.611 189.949 877.439C189.671 877.23 189.394 877.02 189.117 876.808L189.143 877.474ZM306.937 929.694L306.771 929.599C307.227 930.061 307.615 930.466 307.932 930.807L306.937 929.694ZM197.789 924.081C197.32 918.184 196.086 913.038 194.296 908.559C193.972 908.514 193.648 908.469 193.325 908.422C194.563 913.749 196.056 918.973 197.789 924.081ZM371.835 522.526C364.324 522.056 356.857 520.795 349.547 518.573C313.139 507.505 301.375 512.35 294.904 516.581C293.617 518.593 292.368 520.744 291.167 523.046C290.651 524.035 290.175 525.021 289.738 526H311.028C312.481 524.656 314.105 523.452 315.891 522.421C326.419 516.343 339.335 518.146 347.807 526H366.227C368.072 524.803 369.941 523.645 371.835 522.526ZM354.154 534.664C357.564 531.966 361.084 529.409 364.705 527H348.83C350.35 528.568 351.703 530.346 352.844 532.323L352.847 532.328C353.001 532.593 353.192 532.925 353.415 533.321L353.572 533.601C353.654 533.748 353.74 533.903 353.829 534.065L354.032 534.438L354.154 534.664ZM298.731 620.908C303.265 620.831 307.792 620.565 312.298 620.093C317.534 624.281 322.505 628.801 327.181 633.623C320.069 636.412 313.203 639.714 306.624 643.485C302.409 643.816 298.241 644.316 294.125 644.977C295.08 636.749 296.63 628.71 298.731 620.908ZM210.267 602.686C236.97 613.271 267.461 621.246 297.692 620.922C295.592 628.776 294.046 636.866 293.099 645.145C267.034 649.509 243.102 660.351 222.937 676H141.47C156.143 644.649 180.365 618.893 210.267 602.686ZM126.211 725.784C115.704 733.994 113.661 728.837 113.5 728.36C113.333 728.854 111.153 734.354 99.6774 724.891C95.4122 721.374 87.1858 722.935 86.6548 728.074C86.6548 728.074 87.3578 730.44 91.4457 731.484C96.6213 732.807 100.583 732.332 104.596 731.85C105.716 731.715 106.839 731.581 107.995 731.484C112.601 731.1 113.367 729.126 113.489 728.618V728.499L113.493 728.528L113.5 728.568C113.509 728.523 113.511 728.499 113.511 728.499V728.618C113.633 729.126 114.399 731.1 119.005 731.484C119.719 731.544 120.421 731.618 121.116 731.697C121.547 731.747 121.976 731.798 122.404 731.85L122.444 731.854L122.482 731.858C122.994 731.92 123.506 731.981 124.019 732.039C124.531 732.095 125.044 732.148 125.562 732.194C125.738 730.045 125.955 727.908 126.211 725.784ZM127.33 724.885C131.597 721.375 139.814 722.938 140.345 728.074C140.345 728.074 139.642 730.44 135.554 731.484C132.151 732.354 129.273 732.446 126.559 732.271C126.762 729.792 127.019 727.33 127.33 724.885ZM126.498 733.042C126.703 733.073 126.876 733.102 127.01 733.125C127.21 733.161 127.323 733.184 127.323 733.184C127.323 733.184 126.97 733.643 126.397 734.432L126.432 733.921C126.454 733.627 126.475 733.335 126.498 733.042ZM125.505 732.913C125.426 733.932 125.356 734.953 125.296 735.977C123.321 738.802 120.371 743.312 118.641 747.334C115.867 753.782 113.511 760.699 113.511 766.203C113.511 775.21 113.505 786.265 113.5 795.093C113.495 786.265 113.489 775.21 113.489 766.203C113.489 760.699 111.133 753.782 108.359 747.334C105.585 740.887 99.6774 733.184 99.6774 733.184C99.6774 733.184 104.04 732.291 106.583 733.184C110.637 734.606 113.227 741.669 113.489 742.411V742.474L113.5 742.442L113.511 742.474V742.411C113.773 741.669 116.363 734.606 120.417 733.184C121.903 732.662 124.01 732.75 125.505 732.913ZM313.702 619.938C323.557 618.809 333.307 616.676 342.808 613.338C350.891 610.499 358.092 608.284 364.523 606.589C372.444 611.409 379.919 616.918 386.87 623.036C386.367 623.025 385.863 623.017 385.359 623.011C384.74 623.004 384.121 623 383.5 623C364.047 623 345.412 626.615 328.192 633.23C323.634 628.505 318.794 624.065 313.702 619.938ZM312.551 586.638C317.077 588.797 322.952 590.79 331.218 591.358C325.145 589.411 318.914 587.829 312.551 586.638ZM308.349 584.421C307.711 584.057 307.103 583.701 306.518 583.358C305.425 582.719 304.416 582.129 303.457 581.628C296.465 577.98 277.692 554.6 289.305 527H310.003C301.782 535.458 299.799 548.654 305.989 559.375C309.317 565.139 314.445 569.215 320.254 571.303C317.183 575.861 314.331 580.588 311.714 585.467L311.308 585.395L310.92 585.326C310.463 585.246 310.006 585.168 309.548 585.093C309.308 584.961 309.073 584.83 308.841 584.699L308.349 584.421ZM450.5 827C459.137 827 467.612 826.283 475.872 824.902C476.617 818.542 477 812.066 477 805.5C477 794.626 475.949 784.004 473.945 773.733C465.126 761.517 454.681 750.618 442.937 741.375C442.963 742.321 442.981 743.268 442.991 744.217C442.997 744.811 443 745.405 443 746C443 774.496 435.867 801.285 423.332 824.591C432.158 826.174 441.236 827 450.5 827ZM450.5 828C459.093 828 467.526 827.294 475.747 825.937C475.662 826.626 475.573 827.313 475.479 828H450.5ZM450.5 828H421.446C421.914 827.177 422.375 826.349 422.83 825.517C431.815 827.149 441.061 828 450.5 828ZM421.203 826.395C421.402 826.04 421.599 825.683 421.795 825.326C417.074 824.435 412.426 823.328 407.862 822.016C407.884 822.409 407.903 822.802 407.92 823.197C407.944 823.777 407.963 824.359 407.977 824.943C407.992 825.626 408 826.312 408 827L408 827.23L407.998 827.601L407.994 828H420.295L420.496 827.648L420.708 827.276C420.874 826.983 421.039 826.689 421.203 826.395ZM404.183 851.169C406.464 844.163 407.781 836.721 407.975 829H419.717C415.143 836.844 409.942 844.258 404.183 851.169ZM287.406 892.354C296.585 898.349 307.103 902.461 318.415 904.146C307.336 906.669 295.819 908 284 908C282.266 908 280.538 907.971 278.818 907.915C276.012 905.337 273.296 902.659 270.675 899.883C276.417 897.697 282.001 895.18 287.406 892.354ZM252.006 828H231.182C227.801 814.753 226 800.844 226 786.5C226 778.944 226.5 771.51 227.467 764.229C246.471 741.64 271.426 724.494 299.822 715.369C302.894 725.061 306.822 734.354 311.511 743.153C307.951 741.808 304.144 742.642 300.5 747.5C296.242 753.177 302.811 758.099 306.985 760.478C303.491 758.873 297.735 756.737 294 758C292.786 758.411 291.623 759.075 290.606 759.656C290.398 759.775 290.195 759.891 290 760C266.135 773.338 252 797.718 252 827L252.001 827.477L252.003 827.708L252.006 828ZM325.295 759.192C323.926 755.477 320.677 750.958 318 748C316.454 746.292 314.779 744.834 313.027 743.861C310.932 740.005 308.984 736.052 307.192 732.01C309.283 732.597 317.594 735.232 322.301 741.188C327.118 747.285 329.034 755.323 329.696 759.004C328.217 759.021 326.75 759.084 325.295 759.192ZM330.305 759L330.5 759C331.92 759 333.331 759.042 334.73 759.126C336.112 755.424 339.339 750.94 342 748C347.057 742.412 353.5 739.5 359.5 747.5C363.758 753.177 357.189 758.099 353.015 760.478C356.51 758.873 362.265 756.737 366 758C367.214 758.411 368.377 759.075 369.394 759.656C369.602 759.775 369.805 759.891 370 760C370.819 760.458 371.628 760.929 372.424 761.413C372.805 756.828 373 752.187 373 747.5C373 734.414 371.483 721.692 368.618 709.509C361.55 708.514 354.333 708 347 708C330.918 708 315.396 710.472 300.774 715.066C302.591 720.797 304.708 726.388 307.107 731.818C309.037 731.501 317.413 729.916 321.531 725.64C326.47 720.512 330 709 330 709C330 709 333.53 720.512 338.469 725.64C343.142 730.492 353.296 731.88 353.296 731.88C353.296 731.88 343.113 734.337 337.699 741.188C332.884 747.282 330.967 755.317 330.305 759ZM407.796 820.955C406.078 795.75 393.596 774.694 373.378 762.002C373.79 757.224 374 752.387 374 747.5C374 734.473 372.505 721.803 369.681 709.662C396.528 713.632 421.199 724.544 441.913 740.576C441.971 742.377 442 744.185 442 746C442 774.444 434.852 801.172 422.298 824.402C417.381 823.485 412.543 822.332 407.796 820.955ZM230.151 828C226.79 814.748 225 800.839 225 786.5C225 779.44 225.434 772.486 226.275 765.662C211.579 783.544 200.57 804.737 194.458 828H230.151ZM369.433 708.615C396.326 712.52 421.056 723.343 441.867 739.278C441.248 723.732 438.493 708.752 433.895 694.638C427.986 688.244 421.573 682.342 414.719 677H358.347C363.056 687.01 366.793 697.592 369.433 708.615ZM357.872 676H413.423C392.041 659.686 366.484 648.774 338.69 645.242C346.151 654.678 352.601 664.989 357.872 676ZM337.797 644.124C366.618 647.593 393.079 658.94 415.063 676H426.53C417.215 656.097 404.051 638.448 388.028 624.066C386.524 624.022 385.015 624 383.5 624C364.323 624 345.944 627.537 328.944 634.014C332.029 637.255 334.983 640.628 337.797 644.124ZM433.136 692.365C427.901 686.851 422.288 681.714 416.338 677H426.994C429.287 681.988 431.339 687.115 433.136 692.365ZM498.982 676H427.633C418.42 656.168 405.415 638.546 389.578 624.119C432.758 625.809 471.497 645.439 498.982 676ZM337.274 645.069C344.859 654.539 351.414 664.909 356.764 676H293.388C293.131 672.201 293 668.366 293 664.5C293 660.708 293.126 656.946 293.374 653.219C297.736 650.073 302.259 647.15 306.929 644.464C310.913 644.157 314.939 644 319 644C325.181 644 331.279 644.363 337.274 645.069ZM292 664.5C292 668.366 292.13 672.201 292.386 676H268.018C275.36 667.837 283.505 660.453 292.323 653.983C292.109 657.46 292 660.967 292 664.5ZM292.456 677H267.126C246.543 700.271 232.429 729.741 227.722 762.384C246.715 740.245 271.446 723.435 299.522 714.414C295.817 702.48 293.406 689.951 292.456 677ZM292.408 652.682C283.033 659.485 274.405 667.31 266.677 676H224.577C244.327 660.931 267.638 650.472 292.984 646.179C292.751 648.334 292.559 650.502 292.408 652.682ZM357.242 677H293.459C294.406 689.846 296.801 702.274 300.474 714.111C315.19 709.487 330.813 707 347 707C354.246 707 361.38 707.499 368.369 708.464C365.712 697.489 361.961 686.958 357.242 677ZM327.933 634.403C330.869 637.472 333.686 640.66 336.378 643.959C330.67 643.325 324.872 643 319 643C315.626 643 312.277 643.107 308.955 643.319C315.051 639.933 321.389 636.95 327.933 634.403ZM304.607 644.661C300.79 646.925 297.073 649.348 293.465 651.922C293.612 649.941 293.793 647.97 294.008 646.009C297.504 645.441 301.038 644.991 304.607 644.661ZM473.471 771.394C464.707 759.585 454.414 749.042 442.897 740.073C442.368 724.899 439.816 710.253 435.508 696.411C454.105 717.151 467.472 742.872 473.471 771.394ZM144.5 879C128.1 868.2 134.167 855 139.5 849C134.833 850.167 127.7 855.471 129 865C130.5 876 140 878.333 144.5 879ZM168 824.306V825.699C168 826.694 167.194 827.5 166.199 827.5H165.102C163.378 827.5 162.884 825.148 164.437 824.401C164.749 824.25 165.003 823.994 165.148 823.679C165.82 822.224 168 822.703 168 824.306ZM490 825.699V824.306C490 822.703 492.18 822.224 492.852 823.679C492.997 823.994 493.251 824.25 493.563 824.401C495.116 825.148 494.622 827.5 492.898 827.5H491.801C490.806 827.5 490 826.694 490 825.699ZM413.778 902.858C442.083 888.323 470 846 470 846C470 846 451.65 879.228 422.854 902.712C422.766 902.784 422.674 902.847 422.576 902.902C422.414 902.993 422.24 903.062 422.057 903.105L414.53 904.898C413.587 905.122 412.839 904.101 413.338 903.271C413.444 903.094 413.595 902.952 413.778 902.858Z" fill="#FFA800"/>
<path d="M220.916 387.797C235.857 387.797 247.969 375.685 247.969 360.745C247.969 345.804 235.857 333.693 220.917 333.693C206.719 333.693 195.075 344.63 193.953 358.54C190.079 360.326 185.185 361.188 178.986 360.745C151.917 358.811 144.27 368.86 141.113 379.681C144.27 370.664 156.243 363.207 180.339 376.976C199.274 387.797 216.858 387.797 220.916 387.797Z" fill="#FFA800"/>
<path d="M440.748 253.326C438.115 256.194 432.962 264.571 433.413 275.134C433.843 285.191 439.225 298.874 449.496 314.724C455.563 309.968 458.598 305.54 459.848 301.865C459.879 301.771 459.91 301.679 459.939 301.586C439.982 279.194 440.545 267.177 440.92 259.181C441.024 256.966 441.114 255.059 440.748 253.326Z" fill="#FFA800"/>
<path d="M423.538 389.898C410.599 382.427 406.166 365.883 413.637 352.944C415.666 349.429 424.457 334.201 443.296 323.213C467.269 309.23 466.797 295.132 460.566 287.89C468.359 296.034 473.239 307.681 458.029 330.157C454.547 335.304 452.846 339.973 452.455 344.222C463.94 352.148 467.591 367.7 460.492 379.996C453.021 392.935 436.477 397.368 423.538 389.898Z" fill="#FFA800"/>
<path d="M270.78 421.338C270.78 417.735 270.78 402.127 280.385 385.319C292.607 363.931 285.988 353.303 277.984 350.501C287.589 353.303 296.509 360.091 294.792 384.119C294.399 389.621 295.164 393.965 296.75 397.404C309.096 398.4 318.805 408.735 318.805 421.338C318.805 434.599 308.054 445.35 294.792 445.35C281.531 445.35 270.78 434.599 270.78 421.338Z" fill="#FFA800"/>
<path d="M432.136 405.047C429.403 405.779 422.272 406.284 415.618 402.442C407.3 397.639 397.824 385.237 389.27 366.435C381.838 350.097 373.677 345.9 368.254 343.111C367.436 342.69 366.681 342.302 365.999 341.908C360.8 338.906 337.282 336.419 325.276 357.214C314.892 375.199 318.003 389.568 320.066 399.101C320.389 400.591 320.686 401.962 320.901 403.211C315.438 392.663 307.81 366.816 320.999 347.813C334.189 328.81 332.584 310.139 330.133 303.178C325.671 290.897 318.503 272.895 293.592 248.808C322.627 260.95 387.717 297.446 400.794 353.679C410.303 394.569 421.587 399.8 428.421 402.967C429.884 403.645 431.142 404.229 432.136 405.047Z" fill="#FFA800"/>
<path d="M354.852 472.533C351.732 474.335 338.215 482.138 318.856 482.225C294.222 482.334 288.328 493.381 289.904 501.713C287.527 491.994 288.946 480.875 310.613 470.347C315.574 467.937 318.954 465.103 321.14 462.01C315.829 450.82 319.925 437.244 330.839 430.943C342.324 424.312 357.01 428.247 363.641 439.732C370.272 451.217 366.337 465.902 354.852 472.533Z" fill="#FFA800"/>
<path d="M368.532 250.231V286.25L396.146 263.438L399.748 222.617L368.532 250.231Z" fill="#FFA800"/>
<path d="M566.312 933.667L570.333 926L574.355 933.667L581.667 935.333L573.989 942.667L570.333 958L566.677 942.667L559 935.333L566.312 933.667Z" fill="#FFA800"/>
</g>
</mask>
<g mask="url(#mask0_103_445)">
<g style="mix-blend-mode:hard-light" filter="url(#filter0_f_103_445)">
<path d="M152 765.681C152 765.681 151.896 765.64 151.713 765.576C151.893 765.654 152 765.681 152 765.681Z" fill="#FFA800"/>
<path d="M426.587 649.81C425.42 646.095 420.742 637.444 411.369 632.554C402.643 628.001 388.549 625.815 370.298 626.626C371.512 630.853 373.185 633.839 374.976 635.883C378.368 639.754 382.505 640.624 386.049 639.953L386.162 640.476C407.262 637.94 415.61 643.297 421.43 647.031C423.297 648.229 424.903 649.26 426.587 649.81Z" fill="#FFA800"/>
<path d="M508.287 765.576C508.107 765.654 508 765.681 508 765.681C508 765.681 508.037 765.666 508.106 765.641C508.153 765.624 508.214 765.602 508.287 765.576Z" fill="#FFA800"/>
<path fill-rule="evenodd" clip-rule="evenodd" d="M119 86H123V445.219C124.861 444.16 126.881 442.848 129 441.015V86H133V436.985C136.536 432.876 140.225 427.02 143.817 418.327L145.513 418.871C146.705 415.466 149.526 412.319 154.575 411.316C157.001 410.835 160.053 410.829 163.8 411.631C155.208 428.452 146.049 439.955 137.554 445.356C136.051 446.312 134.522 447.099 133 447.743V485.503L153.397 473.727L192.92 486.954L155.767 504.245L133 495.76V564H196.101C193.736 528.356 197.467 466.425 234.561 431.724C261.658 406.374 263.936 393.753 263.635 385.983C262.343 383.339 260.835 380.636 259.082 377.878C241.356 349.998 209.174 354.799 202.203 359.231C201.59 359.621 200.929 360.01 200.229 360.414C199.887 360.611 199.535 360.811 199.174 361.017C191.884 365.169 180.912 371.418 171.656 394.313L171.404 394.933C162.114 395.193 155.245 397.146 150.147 400.392C150.024 400.47 149.901 400.55 149.78 400.63C151.626 393.98 153.401 386.313 155.066 377.455C169.737 299.388 257.067 245.397 296.265 227C263.437 261.574 254.643 286.741 249.23 303.885C246.27 313.597 245.161 339.357 264.408 364.704C283.656 390.051 274.688 426.029 267.798 440.849C268.021 439.12 268.349 437.217 268.704 435.15C270.236 426.252 272.29 414.317 268.801 400.115C267.036 409.348 261.225 421.528 251.37 435.325C240.938 449.931 241.383 459.097 241.679 465.188L241.703 465.685L241.723 466.126C241.748 466.693 241.765 467.23 241.765 467.742C241.765 473.745 251.37 495.356 275.382 495.356C296.149 495.356 307.038 485.478 314.262 478.925C314.653 478.57 315.034 478.225 315.404 477.892C316.103 477.263 316.768 476.677 317.404 476.146C311.001 486.152 292.431 505.682 269.379 503.761C246.327 501.84 230.959 512.565 226.157 518.168C218.922 526.781 209.017 539.25 201.04 564H277.676C277.817 563.676 277.956 563.349 278.094 563.021C290.422 533.678 326.063 523.456 342.343 522.013C340.734 522.684 338.922 523.352 336.954 524.077C328.043 527.362 315.931 531.826 304.927 543.136C313.776 539.733 327.656 538.508 345.262 540.215C363.126 541.947 370.842 536.978 375.969 533.677L375.971 533.675L375.978 533.671C376.243 533.5 376.502 533.333 376.755 533.172C376.975 533.032 377.192 532.896 377.404 532.764L377.574 532.66L377.779 532.537L377.954 532.432L378.138 532.325C383.337 529.323 397.25 510.2 385.244 489.404C374.86 471.42 360.861 466.929 351.574 463.949C350.122 463.484 348.786 463.055 347.597 462.617C359.463 463.16 385.661 469.477 395.524 490.401C405.386 511.325 422.359 519.271 429.612 520.629C442.479 522.905 461.653 525.699 494.968 516.168C486.522 522.604 473.623 531.208 458.115 539.14C482.983 540.193 506.373 547.157 527 558.705V516.61C517.789 499.26 508.47 488.641 501.093 480.584C494.162 473.165 472.407 459.324 440.833 463.319C428.955 464.822 417.771 462.115 407.939 457.44C401.314 459.518 392.423 458.256 379.497 449.509C374.928 446.418 370.784 444.908 367.012 444.562C359.977 454.756 346.172 457.996 335.258 451.695C323.773 445.064 319.838 430.378 326.469 418.893C333.099 407.408 347.785 403.473 359.27 410.104C362.39 411.906 375.907 419.709 385.661 436.431C386.293 437.515 386.926 438.543 387.557 439.517C397.547 446.456 411.406 453.003 432.087 452.119C465.095 450.708 477.028 420.437 476.675 412.185C476.652 411.633 476.642 411.058 476.639 410.459C476.638 410.18 476.638 409.897 476.639 409.608L476.643 408.71L476.643 408.669C476.691 400.458 476.763 388.188 462.518 369.423C467.235 362.321 470.121 356.084 471.521 350.525C475.331 354.196 479.624 358.098 484.461 362.25C504.164 379.163 517.756 401.514 527 425.447V86H531V436.702C533.339 443.875 535.324 451.133 537 458.378V86H541V479.042C546.069 511.135 545.75 541.044 544.16 559.76C543.128 556.272 542.073 552.933 541 549.734V564H552V565H541V567.542C582.666 597.001 610 646.458 610 702.5C610 752.786 587.993 797.77 553.372 827.762C553.449 827.771 553.526 827.778 553.605 827.782L553.695 827.786L553.798 827.787L545.511 848.565V848.621L545.5 848.593L545.489 848.621V848.565L542.255 840.456C541.435 849.19 539.949 857.723 537.849 866H552V867H537.593C536.977 869.366 536.311 871.71 535.596 874.033C538.501 876.91 541.307 879.101 543.5 880.5C546.333 882.5 552 887.6 552 896C552 904.4 545 906.833 541.5 906.5C540.593 915.726 533.261 930.36 511.583 922.226C509.678 924.858 507.698 927.429 505.646 929.935C495.437 1010.1 428.748 1072 348 1072C280.384 1072 222.626 1028.6 199.634 967.412L199 967.5C199 967.203 198.998 966.907 198.995 966.613C198.99 966.283 198.984 965.954 198.976 965.628C196.698 959.348 194.785 952.885 193.263 946.266C171.919 943.051 151.958 935.475 134.269 924.448C127.702 923.643 123.57 919.777 121.175 915.338C99.5917 898.656 82.3002 876.447 71.3016 850.764L66 873L60.5161 850L49 839L59.9678 836.5L63.7971 829.2C60.0195 815.295 58.0001 800.639 58.0001 785.5C58.0001 733.449 81.8704 687.114 119 657.374V565H108V564H119V450.356C117.348 450.305 115.975 450.125 115 449.908C116.093 448.927 117.446 448.157 119 447.343V86ZM537 564V538.644C535.035 533.574 533.027 528.91 531 524.607V561.023C532.609 561.987 534.2 562.98 535.773 564H537ZM537 566.006V714H531V565H535.474C535.985 565.333 536.493 565.668 537 566.006ZM541 714V568.77C582.08 598.09 609 647.042 609 702.5C609 752.719 586.927 797.602 552.254 827.405C548.735 825.479 548.951 816.791 549.042 813.159C549.053 812.709 549.062 812.336 549.062 812.064C549.062 792.567 555.488 781.144 561.67 775.509C567.853 769.875 576.686 771.184 576.686 771.184C576.686 771.184 575.265 767.298 576.686 765.681C578.068 764.108 581.669 765.211 582.713 765.576C582.893 765.654 583 765.681 583 765.681C583 765.681 582.896 765.64 582.713 765.576C581.921 765.231 579.715 763.886 578.955 759.392C577.812 752.633 573.509 752.227 564.98 753.695C559.454 764.627 546.125 759.584 545.511 759.345V759.336L545.5 759.341L545.489 759.336V759.345C545.272 759.429 543.477 760.11 541 760.479V715H552V714H541ZM537 715H531V759.058C532.926 760.136 535.019 760.585 537 760.688V715ZM123 450.229C124.862 450.057 126.894 449.717 129 449.134V487.813L123 491.277V450.229ZM123 492.033L129 494.269V564H123V492.033ZM123 565H129V649.984C126.967 651.367 124.966 652.797 123 654.272V565ZM123 655.525C124.966 654.036 126.966 652.593 129 651.197V714H123V655.525ZM133 648.541V714H141.367C155.991 682.522 180.17 656.609 210.06 640.204C200.322 636.299 191.1 632.055 182.594 627.752C164.741 631.769 148.021 638.892 133 648.541ZM123 715H129V752.326C128.534 754.751 128.121 757.196 127.761 759.659C126.196 760.31 124.563 760.607 123 760.688V715ZM133 715V736.021C135.17 728.786 137.819 721.767 140.907 715H133ZM128.849 759.141C128.898 758.812 128.948 758.482 129 758.153V759H129.102C129.044 759.033 128.987 759.065 128.929 759.097L128.849 759.141ZM133 739.626V755.359C133.348 754.851 133.676 754.297 133.98 753.695C142.509 752.227 146.812 752.633 147.955 759.392C148.715 763.886 150.921 765.231 151.713 765.576C150.67 765.211 147.068 764.108 145.686 765.681C144.265 767.298 145.686 771.184 145.686 771.184C145.686 771.184 136.853 769.875 130.67 775.509C129.459 776.613 128.239 777.938 127.06 779.503C127.02 780.998 127 782.496 127 784C127 784.37 127.001 784.74 127.004 785.11C127.006 785.535 127.011 785.959 127.017 786.382L127.026 786.992C127.032 787.321 127.039 787.65 127.047 787.979C127.056 788.375 127.067 788.77 127.079 789.164C127.579 788.496 128.061 787.938 128.5 787.5C129.55 793.1 135.014 803.444 138.597 809.628C133.656 800.451 131.806 787.66 131.5 782L137.5 775C137.5 775 140.131 804.82 161.075 838.469C162.569 788.253 186.355 743.769 222.661 715H142.006C138.382 722.881 135.36 731.111 133 739.626ZM133 565V647.352C147.647 638.027 163.886 631.083 181.203 627.044C165.479 619.005 152.284 610.813 142.91 604.284C189.266 615.427 215.459 610.459 233.012 606.575C242.677 604.335 264.731 592.901 277.235 565H200.72C199.546 568.718 198.414 572.708 197.342 576.999C196.894 573.506 196.485 569.47 196.17 565H133ZM527 559.854C505.889 547.934 481.844 540.858 456.272 540.073C432.697 551.889 403.412 561.94 374.652 560.624C372.771 561.711 370.913 562.837 369.081 564H419.301L418.757 560.772L424.348 564H527V559.854ZM531 564V562.191C531.394 562.43 531.788 562.67 532.18 562.911C532.762 563.271 533.342 563.633 533.919 564H531ZM527 565H426.08L449.95 578.781L458.257 619.623L424.705 596.093L419.469 565H367.526C363.429 567.669 359.46 570.527 355.629 573.563C358.903 579.867 364.684 593.213 364.762 610.875C364.885 638.627 377.33 645.268 386.718 643.492C375.769 646.169 363.242 644.572 351.382 620.162C348.666 614.572 345.473 610.765 341.988 608.303C335.622 611.324 328.571 611.642 322.236 609.634C319.184 614.146 316.35 618.826 313.747 623.657C321.311 625.073 328.689 627.038 335.839 629.51C340.011 629.577 344.734 629.297 350.112 628.542C350.633 628.469 351.151 628.398 351.667 628.329C355.105 634.149 358.672 638.469 362.36 641.56C372.051 647.103 381.117 653.655 389.424 661.077C433.686 662.47 473.382 682.583 501.323 714H527V565ZM527 715H502.205C512.085 726.293 520.458 739.015 527 752.829V715ZM527 755.196C520.249 740.444 511.408 726.911 500.874 715H429.094C431.624 720.544 433.859 726.257 435.777 732.12C455.729 753.775 469.93 781.027 475.884 811.328C483.355 821.706 489.659 833.026 494.597 845.083C519.515 808.829 522.5 775 522.5 775L528.5 782C528.194 787.66 526.344 800.451 521.403 809.628C524.986 803.444 530.45 793.1 531.5 787.5C534.833 790.833 540.7 801 537.5 815C531.667 814.833 520 819.6 520 840C520 842.919 520.321 845.729 520.893 848.417C527.782 844.923 534.388 840.925 540.665 836.469L537.202 827.787C540.604 827.787 541.63 823.138 541.906 818.815C541.574 808.865 540.375 799.142 538.386 789.725C535.964 783.125 532.613 778.501 529.33 775.509C523.147 769.875 514.314 771.184 514.314 771.184C514.314 771.184 515.735 767.298 514.314 765.681C512.932 764.108 509.33 765.211 508.287 765.576C509.079 765.231 511.285 763.886 512.045 759.392C513.188 752.633 517.491 752.227 526.02 753.695C526.208 754.068 526.406 754.422 526.612 754.759C526.738 754.965 526.868 755.165 527 755.358V755.196ZM59.0001 785.5C59.0001 734.048 82.4598 688.229 119 658.658V714H108V715H119V760.479C116.523 760.11 114.727 759.43 114.511 759.345V759.336L114.5 759.341L114.489 759.336V759.345C113.875 759.584 100.546 764.627 95.0199 753.695C86.491 752.227 82.1879 752.633 81.0452 759.392C80.2852 763.886 78.0789 765.231 77.2871 765.576C77.1042 765.64 77 765.681 77 765.681C77 765.681 77.1069 765.654 77.2871 765.576C78.3304 765.211 81.9324 764.108 83.314 765.681C84.7347 767.298 83.314 771.184 83.314 771.184C83.314 771.184 92.1473 769.875 98.3297 775.509C104.512 781.144 110.938 792.567 110.938 812.064C110.938 812.336 110.947 812.709 110.958 813.159C111.06 817.256 111.322 827.787 106.202 827.787L114.489 848.565V848.621L114.5 848.593L114.511 848.621V848.565L122.798 827.787C117.678 827.787 117.94 817.256 118.042 813.159C118.053 812.709 118.062 812.336 118.062 812.064C118.062 797.513 121.641 787.458 126.027 780.952C126.019 781.432 126.012 781.913 126.008 782.395C126.005 782.665 126.003 782.935 126.002 783.206C126.001 783.471 126 783.735 126 784C126 786.193 126.042 788.376 126.126 790.549C123.071 795.359 119.985 803.996 122.5 815C124.334 814.948 126.745 815.383 129.188 816.639C131.4 827.796 134.724 838.54 139.036 848.742C137.583 855.303 134.636 861.125 131.205 866H108V867H130.485C125.739 873.446 120.231 878.119 116.5 880.5C113.667 882.5 108 887.6 108 896C108 904.4 115 906.833 118.5 906.5C118.707 908.602 119.247 910.985 120.214 913.315C99.2859 896.715 82.5446 874.829 71.8955 849.607L83 839L72.0322 836.5L66 825L64.4819 827.894C60.9076 814.385 59.0001 800.171 59.0001 785.5ZM515.811 916.098C523.087 910.859 525.345 905.129 525.143 899.967C526.206 897.863 527.226 895.732 528.202 893.575C529.688 896.042 530.521 899.182 530 903C528.584 913.385 520.037 916.046 515.3 916.872L515.504 916.562L515.811 916.098ZM527.55 892.59C527.245 893.27 526.936 893.947 526.623 894.622C526.375 895.154 526.125 895.686 525.872 896.215C525.573 896.844 525.269 897.47 524.961 898.093C524.266 893.563 521.814 889.604 519.5 887C522.038 887.634 525.306 889.493 527.55 892.59ZM531.691 885.269C537.095 891.082 537.056 895.571 536 898C538.021 895.44 540.042 889.698 533.343 880.828C533.063 881.615 532.777 882.4 532.486 883.182C532.225 883.879 531.96 884.575 531.691 885.269ZM532.614 879.893C532.395 880.516 532.172 881.137 531.946 881.757C531.614 882.667 531.274 883.573 530.927 884.475C527.779 881.312 523.027 877.784 516 874C511.764 871.719 508.645 869.358 506.412 867H519.342C520.727 868.279 522.263 869.679 523.966 871.231C524.923 872.104 525.934 873.025 527 874C529.288 876.092 531.135 878.056 532.614 879.893ZM534.798 873.227C535.424 871.168 536.011 869.093 536.559 867H529.515C531.217 869.312 533.017 871.395 534.798 873.227ZM528.795 866H536.818C539.096 857.076 540.656 847.851 541.432 838.394L541.046 837.425C534.72 841.902 528.063 845.917 521.121 849.424C522.622 855.707 525.483 861.294 528.795 866ZM501.556 856.621C501.353 851.449 504.232 847.024 507 844.5C507 848.583 507.289 851.45 508.36 854.086C506.117 854.983 503.848 855.829 501.556 856.621ZM501.637 857.651C504.04 856.825 506.418 855.942 508.768 855.002C510.331 858.221 513.183 861.261 518.264 866H505.516C503.107 863.145 501.951 860.312 501.637 857.651ZM493.918 846.064C489.25 834.538 483.328 823.683 476.329 813.681C478.083 823.347 479 833.314 479 843.5C479 850.005 478.626 856.421 477.899 862.727C479.026 862.531 480.149 862.322 481.267 862.102C486.001 856.776 490.198 851.397 493.918 846.064ZM480.161 863.334C479.368 863.483 478.573 863.626 477.776 863.764C477.685 864.511 477.589 865.256 477.488 866H477.694C478.532 865.113 479.354 864.225 480.161 863.334ZM476.269 867.492L476.34 867H421.872C416.765 875.832 410.868 884.126 404.281 891.782C399.551 904.719 391.493 916.054 381.143 924.749C400.822 918.37 424.788 907.615 450.5 889.5C460.372 882.545 468.901 875.109 476.269 867.492ZM374.79 929.557C412.88 921.882 439.812 906.09 450.5 897C440.653 912.338 420.426 937.443 390.5 945.5C368.595 951.397 354.853 964.748 351.068 968.807L358.5 960.5C358.5 960.5 362.5 956 358.5 956C349.328 956 335.52 969.465 331.023 977.392C330.134 977.061 329.25 976.722 328.368 976.375C323.339 968.368 310.29 956 301.5 956C297.5 956 301.5 960.5 301.5 960.5L305.767 965.27C305.349 965.02 304.932 964.769 304.517 964.515C300.792 961.189 295.22 956.84 287.953 952.897C285.564 950.983 283.23 948.999 280.954 946.948C282.299 946.983 283.647 947 285 947C297.816 947 310.277 945.446 322.215 942.511C325.099 942.834 328.03 943 331 943C347.232 943 362.306 938.042 374.79 929.557ZM330.189 978.149L329.832 978.014L329.185 977.768C329.52 978.385 329.794 978.966 330 979.5C330.067 979.326 330.142 979.147 330.223 978.963C330.272 978.853 330.324 978.74 330.378 978.626C330.431 978.513 330.487 978.399 330.546 978.283L330.189 978.149ZM330 1032C329.908 1031.67 329.814 1031.32 329.718 1030.96C329.618 1030.59 329.516 1030.21 329.409 1029.8C327.903 1024.13 325.617 1015.52 320.026 1006H320C279.752 1006 242.996 990.716 214.987 965.518C209.698 966.045 204.858 966.687 200.649 967.271C223.555 1027.98 280.906 1071 348 1071C427.687 1071 493.631 1010.31 504.446 931.384C477.167 963.929 437.65 985.256 393.274 987.754C377.197 996.301 359.512 1002.12 340.804 1004.62C334.605 1014.68 332.169 1023.86 330.591 1029.8L330.438 1030.38C330.362 1030.67 330.288 1030.94 330.216 1031.21L330.108 1031.61L330 1032ZM341.497 1003.52C359.041 1001.08 375.67 995.694 390.892 987.87C388.772 987.957 386.641 988 384.5 988C375.195 988 366.078 987.173 357.212 985.586C350.299 991.526 345.249 997.655 341.497 1003.52ZM358.205 984.745L358.5 984.5C377.968 968.378 402.864 964.347 424.745 964.412C415.135 973.117 404.48 980.642 392.996 986.768C390.183 986.922 387.35 987 384.5 987C375.541 987 366.757 986.228 358.205 984.745ZM426.218 964.423C416.869 973.006 406.519 980.473 395.37 986.619C418.544 984.989 440.346 978.185 459.695 967.318C450.825 966.085 439.082 964.568 426.218 964.423ZM461.006 966.573C477.655 957.009 492.45 944.419 504.69 929.524C505.102 926.242 505.419 922.93 505.638 919.59C505.262 919.399 504.883 919.203 504.5 919C490.12 919.496 461.478 929.729 461.006 966.573ZM506.608 920.072C507.995 920.749 509.332 921.34 510.619 921.853C509.085 923.965 507.503 926.037 505.873 928.067C506.18 925.421 506.426 922.756 506.608 920.072ZM506.959 904.761C506.887 901.438 506.718 898.14 506.455 894.869C507.476 898.458 507.73 901.851 506.959 904.761ZM505.094 890.996C505.65 896.33 505.954 901.741 505.995 907.217C503.104 912.575 495.527 915.512 481 913.5C474.755 912.636 467.105 916.061 459.66 921.239C462.889 915.191 465.754 908.911 468.223 902.429C470.926 898.966 473.399 895.51 475.701 892.293C485.162 879.07 491.726 869.895 499.5 881C501.787 884.268 503.715 887.669 505.094 890.996ZM466.113 905.069C465.584 905.715 465.047 906.359 464.5 907C463.336 908.364 462.182 909.734 461.036 911.1C460.109 912.205 459.188 913.308 458.273 914.404C446.511 928.488 435.685 941.451 425.755 943.375C425.311 943.461 424.954 943.813 424.951 944.266C424.93 947.438 427.046 952.283 434.839 954.422C435.337 953.883 435.832 953.341 436.322 952.796C434.971 951.895 433.713 950.676 432.769 949.007C432.595 948.698 432.61 948.33 432.808 948.034C437.283 941.364 447.194 930.385 457.801 922.57C460.901 916.937 463.681 911.095 466.113 905.069ZM437.19 953.326C436.777 953.786 436.362 954.244 435.944 954.698C438.184 955.205 440.846 955.5 444 955.5L443.677 955.437L443.551 955.413C442.012 955.116 439.533 954.637 437.19 953.326ZM545.511 804.203C545.511 813.143 545.506 824.101 545.5 832.896L545.496 824.66C545.494 821.209 545.492 817.641 545.491 814.142L545.489 804.203C545.489 798.699 543.133 791.782 540.359 785.334C539.368 783.032 537.977 780.568 536.599 778.353C535.879 775.823 535.101 773.319 534.267 770.842C535.658 770.737 537.339 770.747 538.583 771.184C542.637 772.606 545.227 779.669 545.489 780.411V780.474L545.5 780.442L545.511 780.474V780.411C545.773 779.669 548.363 772.606 552.417 771.184C554.96 770.291 559.323 771.184 559.323 771.184C559.323 771.184 553.415 778.887 550.641 785.334C547.867 791.782 545.511 798.699 545.511 804.203ZM533.246 770.942C533.746 772.42 534.226 773.908 534.685 775.405C532.999 772.907 531.677 771.184 531.677 771.184C531.677 771.184 532.316 771.053 533.246 770.942ZM534.509 770.09C534.349 770.107 534.189 770.124 534.029 770.139C533.154 767.579 532.219 765.047 531.226 762.547C531.381 762.656 531.531 762.77 531.677 762.891C543.154 772.354 545.333 766.854 545.5 766.36C545.667 766.854 547.846 772.354 559.323 762.891C563.588 759.374 571.814 760.935 572.345 766.074C572.345 766.074 571.642 768.44 567.554 769.484C562.379 770.807 558.418 770.332 554.404 769.85C553.835 769.781 553.266 769.713 552.691 769.649C552.135 769.588 551.574 769.532 551.005 769.484C546.399 769.1 545.633 767.126 545.511 766.618V766.499L545.507 766.528L545.5 766.568L545.491 766.519L545.489 766.499V766.618C545.367 767.126 544.601 769.1 539.995 769.484C539.792 769.501 539.589 769.52 539.388 769.539C539.119 769.564 538.851 769.591 538.585 769.62C538.229 769.658 537.876 769.698 537.524 769.739L536.667 769.841L536.596 769.85C536.123 769.906 535.65 769.963 535.177 770.017C534.954 770.042 534.732 770.067 534.509 770.09ZM533.003 770.23C532.023 767.374 530.967 764.554 529.838 761.773C525.403 759.84 519.117 761.603 518.655 766.074C518.655 766.074 519.358 768.44 523.446 769.484C527.085 770.414 530.125 770.455 533.003 770.23ZM194.852 945.487C194.423 944.487 193.965 943.522 193.482 942.591C193.676 943.522 193.877 944.452 194.085 945.377L194.852 945.487ZM191.916 939.827L191.801 939.642C191.335 938.994 190.873 938.342 190.417 937.687C190.22 937.405 190.025 937.123 189.83 936.839C189.658 936.59 189.487 936.34 189.317 936.089C179.549 923.566 164.642 919.315 155.5 919C147.717 923.12 141.441 924.691 136.423 924.597C153.486 934.947 172.617 942.091 193.026 945.218C192.627 943.432 192.257 941.635 191.916 939.827ZM179 913.5C182.095 913.072 185.536 913.697 189.126 915.068C189.113 914.718 189.1 914.367 189.089 914.017C182.715 909.067 176.716 903.637 171.145 897.778C173.043 903.218 175.219 908.523 177.655 913.675C178.096 913.622 178.545 913.563 179 913.5ZM319.427 1005C279.992 1004.86 243.955 989.943 216.341 965.387C241.468 963.013 276.103 963.468 301.5 984.5C309.683 991.276 315.376 998.338 319.427 1005ZM279.414 946.901C280.869 948.231 282.347 949.534 283.849 950.809C280.546 949.236 276.951 947.781 273.073 946.548C275.176 946.708 277.29 946.826 279.414 946.901ZM216 955.5C228.414 955.5 233.207 950.917 234.587 946.954C232.054 947.249 229.502 947.483 226.934 947.654L227.037 947.805L227.192 948.034C227.39 948.33 227.405 948.698 227.231 949.007C224.486 953.861 219.087 954.903 216.449 955.413C216.288 955.444 216.139 955.473 216 955.5ZM226.262 946.695C229.156 946.513 232.028 946.252 234.878 945.912C235 945.332 235.052 944.777 235.049 944.266C235.046 943.813 234.689 943.461 234.245 943.375C228.541 942.27 222.54 937.521 216.237 931.01C212.698 929.268 209.231 927.394 205.844 925.396C214.358 932.323 222.035 940.796 226.262 946.695ZM259.345 941.994C262.119 943.168 264.992 944.202 267.963 945.069C271.371 945.443 274.812 945.707 278.282 945.856C275.661 943.413 273.119 940.881 270.662 938.265C266.952 939.647 263.178 940.893 259.345 941.994ZM209.5 897C218.016 910.265 234.294 930.833 257.896 941.364C261.972 940.228 265.984 938.928 269.922 937.472C265.392 932.585 261.154 927.409 257.235 921.973C233.921 913.942 217.34 903.668 209.5 897ZM270.935 937.094C266.647 932.491 262.619 927.629 258.876 922.531C267.428 925.399 276.856 927.955 287.064 929.922C281.846 932.608 276.463 935.005 270.935 937.094ZM253.617 914.926C263.86 919.584 273.434 923.108 282.103 925.774C264.839 911.866 253.623 890.751 253.025 867H232.441C236.969 884.289 244.192 900.434 253.617 914.926ZM209.5 889.5C224.394 899.994 238.702 908.017 251.931 914.151C242.817 899.84 235.823 883.965 231.408 867H195.199C194.4 870.118 193.69 873.273 193.07 876.462C198.085 880.939 203.549 885.307 209.5 889.5ZM245.076 940.783C221.673 928.685 198.568 897.672 191.323 887.378L191.264 887.849C196.552 896.536 210.814 918.307 230.943 936.27C235.557 937.992 240.272 939.5 245.076 940.783ZM194.167 867C193.438 869.865 192.783 872.76 192.204 875.684C189.044 872.826 186.066 869.926 183.258 867H194.167ZM162.037 839.996C167.506 848.584 174.177 857.395 182.306 866H194.425C200.699 841.967 212.167 820.12 227.514 801.809C231.976 768.658 246.073 738.687 266.795 715H224.281C187.276 743.842 163.098 789.006 162.037 839.996ZM136.034 871.231C137.737 869.679 139.273 868.279 140.658 867H148.128C148.745 868.067 149.374 869.126 150.014 870.178C148.321 871.467 146.33 872.746 144 874C123.2 885.2 122.333 894.167 124 898C121.5 894.833 119 886.8 133 874L136.034 871.231ZM149.284 867C149.784 867.857 150.291 868.709 150.806 869.556C151.857 868.706 152.78 867.853 153.588 867H149.284ZM159.662 882.227L159.514 882.451C162.421 886.341 165.497 890.091 168.729 893.691C167.003 888.252 165.549 882.686 164.385 877.012C163.111 877.807 161.823 879.11 160.5 881C160.297 881.291 160.096 881.583 159.898 881.875L159.797 882.025L159.662 882.227ZM169.483 896.005C165.763 891.974 162.242 887.75 158.935 883.346C148.921 899.13 148.047 916.828 176.606 913.794C173.902 908.044 171.52 902.106 169.483 896.005ZM147.555 866H141.736C142.137 865.625 142.525 865.262 142.899 864.907C143.272 864.554 143.633 864.21 143.98 863.875C144.53 863.343 145.048 862.833 145.535 862.342C146.193 863.571 146.867 864.791 147.555 866ZM148.706 866C147.872 864.545 147.059 863.076 146.268 861.593C151.927 855.716 153 852.361 153 844.5C157.349 848.465 161.974 857.124 154.484 866H148.706ZM140 840C140 842.404 139.782 844.735 139.386 846.984C135.484 837.513 132.436 827.582 130.339 817.292C135.278 820.371 140 827.021 140 840ZM184.299 892.293C176.838 881.865 171.178 873.954 165.306 876.523C166.621 882.994 168.315 889.322 170.363 895.483C176.134 901.719 182.384 907.485 189.052 912.718C189.024 911.6 189.008 910.479 189.002 909.355C189.001 909.07 189 908.785 189 908.5C189 905.353 189.087 902.227 189.257 899.123C187.517 896.791 185.875 894.496 184.312 892.311L184.299 892.293ZM189 884C189 884 189.489 884.885 190.431 886.467L190.472 886.161C189.514 884.778 189 884 189 884ZM190 908.5C190 905.774 190.065 903.063 190.194 900.37C191.868 902.579 193.632 904.81 195.5 907C197.604 909.467 199.68 911.953 201.727 914.404C206.011 919.534 210.171 924.515 214.208 928.868C205.696 924.486 197.622 919.338 190.074 913.513C190.025 911.848 190 910.177 190 908.5ZM245.806 942.01C241.47 940.883 237.205 939.574 233.019 938.09C234.047 938.976 235.09 939.851 236.146 940.712C236.379 940.902 236.651 941.036 236.943 941.105L244.47 942.898C245.138 943.057 245.708 942.591 245.806 942.01ZM190.143 915.474C190.862 915.774 191.586 916.102 192.314 916.456L191.978 916.208L191.635 915.954C191.406 915.783 191.177 915.611 190.949 915.439C190.671 915.23 190.394 915.02 190.117 914.808L190.143 915.474ZM307.937 967.694L307.771 967.599C308.227 968.061 308.615 968.466 308.932 968.807L307.937 967.694ZM198.789 962.081C198.32 956.184 197.086 951.038 195.296 946.559C194.972 946.514 194.648 946.469 194.325 946.422C195.563 951.749 197.056 956.973 198.789 962.081ZM372.835 560.526C365.324 560.056 357.857 558.795 350.547 556.573C314.139 545.505 302.375 550.35 295.904 554.581C294.617 556.593 293.368 558.744 292.167 561.046C291.651 562.035 291.175 563.021 290.738 564H312.028C313.481 562.656 315.105 561.452 316.891 560.421C327.419 554.343 340.335 556.146 348.807 564H367.227C369.072 562.803 370.941 561.645 372.835 560.526ZM355.154 572.664C358.564 569.966 362.084 567.409 365.705 565H349.83C351.35 566.568 352.703 568.346 353.844 570.323L353.847 570.328C354.001 570.593 354.192 570.925 354.415 571.321L354.572 571.601C354.654 571.748 354.74 571.903 354.829 572.065L355.032 572.438L355.154 572.664ZM299.731 658.908C304.265 658.831 308.792 658.565 313.298 658.093C318.534 662.281 323.505 666.801 328.181 671.623C321.069 674.412 314.203 677.714 307.624 681.485C303.409 681.816 299.241 682.316 295.125 682.977C296.08 674.749 297.63 666.71 299.731 658.908ZM211.267 640.686C237.97 651.271 268.461 659.246 298.692 658.922C296.592 666.776 295.046 674.866 294.099 683.145C268.034 687.509 244.102 698.351 223.937 714H142.47C157.143 682.649 181.365 656.893 211.267 640.686ZM127.211 763.784C116.704 771.994 114.661 766.837 114.5 766.36C114.333 766.854 112.153 772.354 100.677 762.891C96.4122 759.374 88.1858 760.935 87.6548 766.074C87.6548 766.074 88.3578 768.44 92.4457 769.484C97.6213 770.807 101.583 770.332 105.596 769.85C106.716 769.715 107.839 769.581 108.995 769.484C113.601 769.1 114.367 767.126 114.489 766.618V766.499L114.493 766.528L114.5 766.568C114.509 766.523 114.511 766.499 114.511 766.499V766.618C114.633 767.126 115.399 769.1 120.005 769.484C120.719 769.544 121.421 769.618 122.116 769.697C122.547 769.747 122.976 769.798 123.404 769.85L123.444 769.854L123.482 769.858C123.994 769.92 124.506 769.981 125.019 770.039C125.531 770.095 126.044 770.148 126.562 770.194C126.738 768.045 126.955 765.908 127.211 763.784ZM128.33 762.885C132.597 759.375 140.814 760.938 141.345 766.074C141.345 766.074 140.642 768.44 136.554 769.484C133.151 770.354 130.273 770.446 127.559 770.271C127.762 767.792 128.019 765.33 128.33 762.885ZM127.498 771.042C127.703 771.073 127.876 771.102 128.01 771.125C128.21 771.161 128.323 771.184 128.323 771.184C128.323 771.184 127.97 771.643 127.397 772.432L127.432 771.921C127.454 771.627 127.475 771.335 127.498 771.042ZM126.505 770.913C126.426 771.932 126.356 772.953 126.296 773.977C124.321 776.802 121.371 781.312 119.641 785.334C116.867 791.782 114.511 798.699 114.511 804.203C114.511 813.21 114.505 824.265 114.5 833.093C114.495 824.265 114.489 813.21 114.489 804.203C114.489 798.699 112.133 791.782 109.359 785.334C106.585 778.887 100.677 771.184 100.677 771.184C100.677 771.184 105.04 770.291 107.583 771.184C111.637 772.606 114.227 779.669 114.489 780.411V780.474L114.5 780.442L114.511 780.474V780.411C114.773 779.669 117.363 772.606 121.417 771.184C122.903 770.662 125.01 770.75 126.505 770.913ZM314.702 657.938C324.557 656.809 334.307 654.676 343.808 651.338C351.891 648.499 359.092 646.284 365.523 644.589C373.444 649.409 380.919 654.918 387.87 661.036C387.367 661.025 386.863 661.017 386.359 661.011C385.74 661.004 385.121 661 384.5 661C365.047 661 346.412 664.615 329.192 671.23C324.634 666.505 319.794 662.065 314.702 657.938ZM313.551 624.638C318.077 626.797 323.952 628.79 332.218 629.358C326.145 627.411 319.914 625.829 313.551 624.638ZM309.349 622.421C308.711 622.057 308.103 621.701 307.518 621.358C306.425 620.719 305.416 620.129 304.457 619.628C297.465 615.98 278.692 592.6 290.305 565H311.003C302.782 573.458 300.799 586.654 306.989 597.375C310.317 603.139 315.445 607.215 321.254 609.303C318.183 613.861 315.331 618.588 312.714 623.467L312.308 623.395L311.92 623.326C311.463 623.246 311.006 623.168 310.548 623.093C310.308 622.961 310.073 622.83 309.841 622.699L309.349 622.421ZM451.5 865C460.137 865 468.612 864.283 476.872 862.902C477.617 856.542 478 850.066 478 843.5C478 832.626 476.949 822.004 474.945 811.733C466.126 799.517 455.681 788.618 443.937 779.375C443.963 780.321 443.981 781.268 443.991 782.217C443.997 782.811 444 783.405 444 784C444 812.496 436.867 839.285 424.332 862.591C433.158 864.174 442.236 865 451.5 865ZM451.5 866C460.093 866 468.526 865.294 476.747 863.937C476.662 864.626 476.573 865.313 476.479 866H451.5ZM451.5 866H422.446C422.914 865.177 423.375 864.349 423.83 863.517C432.815 865.149 442.061 866 451.5 866ZM422.203 864.395C422.402 864.04 422.599 863.683 422.795 863.326C418.074 862.435 413.426 861.328 408.862 860.016C408.884 860.409 408.903 860.802 408.92 861.197C408.944 861.777 408.963 862.359 408.977 862.943C408.992 863.626 409 864.312 409 865L409 865.23L408.998 865.601L408.994 866H421.295L421.496 865.648L421.708 865.276C421.874 864.983 422.039 864.689 422.203 864.395ZM405.183 889.169C407.464 882.163 408.781 874.721 408.975 867H420.717C416.143 874.844 410.942 882.258 405.183 889.169ZM288.406 930.354C297.585 936.349 308.103 940.461 319.415 942.146C308.336 944.669 296.819 946 285 946C283.266 946 281.538 945.971 279.818 945.915C277.012 943.337 274.296 940.659 271.675 937.883C277.417 935.697 283.001 933.18 288.406 930.354ZM253.006 866H232.182C228.801 852.753 227 838.844 227 824.5C227 816.944 227.5 809.51 228.467 802.229C247.471 779.64 272.426 762.494 300.822 753.369C303.894 763.061 307.822 772.354 312.511 781.153C308.951 779.808 305.144 780.642 301.5 785.5C297.242 791.177 303.811 796.099 307.985 798.478C304.491 796.873 298.735 794.737 295 796C293.786 796.411 292.623 797.075 291.606 797.656C291.398 797.775 291.195 797.891 291 798C267.135 811.338 253 835.718 253 865L253.001 865.477L253.003 865.708L253.006 866ZM326.295 797.192C324.926 793.477 321.677 788.958 319 786C317.454 784.292 315.779 782.834 314.027 781.861C311.932 778.005 309.984 774.052 308.192 770.01C310.283 770.597 318.594 773.232 323.301 779.188C328.118 785.285 330.034 793.323 330.696 797.004C329.217 797.021 327.75 797.084 326.295 797.192ZM331.305 797L331.5 797C332.92 797 334.331 797.042 335.73 797.126C337.112 793.424 340.339 788.94 343 786C348.057 780.412 354.5 777.5 360.5 785.5C364.758 791.177 358.189 796.099 354.015 798.478C357.51 796.873 363.265 794.737 367 796C368.214 796.411 369.377 797.075 370.394 797.656C370.602 797.775 370.805 797.891 371 798C371.819 798.458 372.628 798.929 373.424 799.413C373.805 794.828 374 790.187 374 785.5C374 772.414 372.483 759.692 369.618 747.509C362.55 746.514 355.333 746 348 746C331.918 746 316.396 748.472 301.774 753.066C303.591 758.797 305.708 764.388 308.107 769.818C310.037 769.501 318.413 767.916 322.531 763.64C327.47 758.512 331 747 331 747C331 747 334.53 758.512 339.469 763.64C344.142 768.492 354.296 769.88 354.296 769.88C354.296 769.88 344.113 772.337 338.699 779.188C333.884 785.282 331.967 793.317 331.305 797ZM408.796 858.955C407.078 833.75 394.596 812.694 374.378 800.002C374.79 795.224 375 790.387 375 785.5C375 772.473 373.505 759.803 370.681 747.662C397.528 751.632 422.199 762.544 442.913 778.576C442.971 780.377 443 782.185 443 784C443 812.444 435.852 839.172 423.298 862.402C418.381 861.485 413.543 860.332 408.796 858.955ZM231.151 866C227.79 852.748 226 838.839 226 824.5C226 817.44 226.434 810.486 227.275 803.662C212.579 821.544 201.57 842.737 195.458 866H231.151ZM370.433 746.615C397.326 750.52 422.056 761.343 442.867 777.278C442.248 761.732 439.493 746.752 434.895 732.638C428.986 726.244 422.573 720.342 415.719 715H359.347C364.056 725.01 367.793 735.592 370.433 746.615ZM358.872 714H414.423C393.041 697.686 367.484 686.774 339.69 683.242C347.151 692.678 353.601 702.989 358.872 714ZM338.797 682.124C367.618 685.593 394.079 696.94 416.063 714H427.53C418.215 694.097 405.051 676.448 389.028 662.066C387.524 662.022 386.015 662 384.5 662C365.323 662 346.944 665.537 329.944 672.014C333.029 675.255 335.983 678.628 338.797 682.124ZM434.136 730.365C428.901 724.851 423.288 719.714 417.338 715H427.994C430.287 719.988 432.339 725.115 434.136 730.365ZM499.982 714H428.633C419.42 694.168 406.415 676.546 390.578 662.119C433.758 663.809 472.497 683.439 499.982 714ZM338.274 683.069C345.859 692.539 352.414 702.909 357.764 714H294.388C294.131 710.201 294 706.366 294 702.5C294 698.708 294.126 694.946 294.374 691.219C298.736 688.073 303.259 685.15 307.929 682.464C311.913 682.157 315.939 682 320 682C326.181 682 332.279 682.363 338.274 683.069ZM293 702.5C293 706.366 293.13 710.201 293.386 714H269.018C276.36 705.837 284.505 698.453 293.323 691.983C293.109 695.46 293 698.967 293 702.5ZM293.456 715H268.126C247.543 738.271 233.429 767.741 228.722 800.384C247.715 778.245 272.446 761.435 300.522 752.414C296.817 740.48 294.406 727.951 293.456 715ZM293.408 690.682C284.033 697.485 275.405 705.31 267.677 714H225.577C245.327 698.931 268.638 688.472 293.984 684.179C293.751 686.334 293.559 688.502 293.408 690.682ZM358.242 715H294.459C295.406 727.846 297.801 740.274 301.474 752.111C316.19 747.487 331.813 745 348 745C355.246 745 362.38 745.499 369.369 746.464C366.712 735.489 362.961 724.958 358.242 715ZM328.933 672.403C331.869 675.472 334.686 678.66 337.378 681.959C331.67 681.325 325.872 681 320 681C316.626 681 313.277 681.107 309.955 681.319C316.051 677.933 322.389 674.95 328.933 672.403ZM305.607 682.661C301.79 684.925 298.073 687.348 294.465 689.922C294.612 687.941 294.793 685.97 295.008 684.009C298.504 683.441 302.038 682.991 305.607 682.661ZM474.471 809.394C465.707 797.585 455.414 787.042 443.897 778.073C443.368 762.899 440.816 748.253 436.508 734.411C455.105 755.151 468.472 780.872 474.471 809.394ZM145.5 917C129.1 906.2 135.167 893 140.5 887C135.833 888.167 128.7 893.471 130 903C131.5 914 141 916.333 145.5 917ZM169 862.306V863.699C169 864.694 168.194 865.5 167.199 865.5H166.102C164.378 865.5 163.884 863.148 165.437 862.401C165.749 862.25 166.003 861.994 166.148 861.679C166.82 860.224 169 860.703 169 862.306ZM491 863.699V862.306C491 860.703 493.18 860.224 493.852 861.679C493.997 861.994 494.251 862.25 494.563 862.401C496.116 863.148 495.622 865.5 493.898 865.5H492.801C491.806 865.5 491 864.694 491 863.699ZM414.778 940.858C443.083 926.323 471 884 471 884C471 884 452.65 917.228 423.854 940.712C423.766 940.784 423.674 940.847 423.576 940.902C423.414 940.993 423.24 941.062 423.057 941.105L415.53 942.898C414.587 943.122 413.839 942.101 414.338 941.271C414.444 941.094 414.595 940.952 414.778 940.858Z" fill="#FFA800"/>
<path d="M221.916 425.797C236.857 425.797 248.969 413.685 248.969 398.745C248.969 383.804 236.857 371.693 221.917 371.693C207.719 371.693 196.075 382.63 194.953 396.54C191.079 398.326 186.185 399.188 179.986 398.745C152.917 396.811 145.27 406.86 142.113 417.681C145.27 408.664 157.243 401.207 181.339 414.976C200.274 425.797 217.858 425.797 221.916 425.797Z" fill="#FFA800"/>
<path d="M441.748 291.326C439.115 294.194 433.962 302.571 434.413 313.134C434.843 323.191 440.225 336.874 450.496 352.724C456.563 347.968 459.598 343.54 460.848 339.865C460.879 339.771 460.91 339.679 460.939 339.586C440.982 317.194 441.545 305.177 441.92 297.181C442.024 294.966 442.114 293.059 441.748 291.326Z" fill="#FFA800"/>
<path d="M424.538 427.898C411.599 420.427 407.166 403.883 414.637 390.944C416.666 387.429 425.457 372.201 444.296 361.213C468.269 347.23 467.797 333.132 461.566 325.89C469.359 334.034 474.239 345.681 459.029 368.157C455.547 373.304 453.846 377.973 453.455 382.222C464.94 390.148 468.591 405.7 461.492 417.996C454.021 430.935 437.477 435.368 424.538 427.898Z" fill="#FFA800"/>
<path d="M271.78 459.338C271.78 455.735 271.78 440.127 281.385 423.319C293.607 401.931 286.988 391.303 278.984 388.501C288.589 391.303 297.509 398.091 295.792 422.119C295.399 427.621 296.164 431.965 297.75 435.404C310.096 436.4 319.805 446.735 319.805 459.338C319.805 472.599 309.054 483.35 295.792 483.35C282.531 483.35 271.78 472.599 271.78 459.338Z" fill="#FFA800"/>
<path d="M433.136 443.047C430.403 443.779 423.272 444.284 416.618 440.442C408.3 435.639 398.824 423.237 390.27 404.435C382.838 388.097 374.677 383.9 369.254 381.111C368.436 380.69 367.681 380.302 366.999 379.908C361.8 376.906 338.282 374.419 326.276 395.214C315.892 413.199 319.003 427.568 321.066 437.101C321.389 438.591 321.686 439.962 321.901 441.211C316.438 430.663 308.81 404.816 321.999 385.813C335.189 366.81 333.584 348.139 331.133 341.178C326.671 328.897 319.503 310.895 294.592 286.808C323.627 298.95 388.717 335.446 401.794 391.679C411.303 432.569 422.587 437.8 429.421 440.967C430.884 441.645 432.142 442.229 433.136 443.047Z" fill="#FFA800"/>
<path d="M355.852 510.533C352.732 512.335 339.215 520.138 319.856 520.225C295.222 520.334 289.328 531.381 290.904 539.713C288.527 529.994 289.946 518.875 311.613 508.347C316.574 505.937 319.954 503.103 322.14 500.01C316.829 488.82 320.925 475.244 331.839 468.943C343.324 462.312 358.01 466.247 364.641 477.732C371.272 489.217 367.337 503.902 355.852 510.533Z" fill="#FFA800"/>
<path d="M369.532 288.231V324.25L397.146 301.438L400.748 260.617L369.532 288.231Z" fill="#FFA800"/>
<path d="M567.312 971.667L571.333 964L575.355 971.667L582.667 973.333L574.989 980.667L571.333 996L567.677 980.667L560 973.333L567.312 971.667Z" fill="#FFA800"/>
</g>
<g style="mix-blend-mode:overlay" opacity="0.6" filter="url(#filter1_f_103_445)">
<ellipse cx="323" cy="764" rx="347" ry="341" fill="#FFA800"/>
</g>
<g style="mix-blend-mode:overlay" opacity="0.6" filter="url(#filter2_f_103_445)">
<ellipse cx="323" cy="764" rx="347" ry="341" fill="#FFA800"/>
</g>
<g style="mix-blend-mode:overlay" opacity="0.6" filter="url(#filter3_f_103_445)">
<ellipse cx="323" cy="318" rx="347" ry="341" fill="#FFA800"/>
</g>
</g>
<defs>
<filter id="filter0_f_103_445" x="1" y="38" width="657" height="1082" filterUnits="userSpaceOnUse" color-interpolation-filters="sRGB">
<feFlood flood-opacity="0" result="BackgroundImageFix"/>
<feBlend mode="normal" in="SourceGraphic" in2="BackgroundImageFix" result="shape"/>
<feGaussianBlur stdDeviation="24" result="effect1_foregroundBlur_103_445"/>
</filter>
<filter id="filter1_f_103_445" x="-264" y="183" width="1174" height="1162" filterUnits="userSpaceOnUse" color-interpolation-filters="sRGB">
<feFlood flood-opacity="0" result="BackgroundImageFix"/>
<feBlend mode="normal" in="SourceGraphic" in2="BackgroundImageFix" result="shape"/>
<feGaussianBlur stdDeviation="120" result="effect1_foregroundBlur_103_445"/>
</filter>
<filter id="filter2_f_103_445" x="-264" y="183" width="1174" height="1162" filterUnits="userSpaceOnUse" color-interpolation-filters="sRGB">
<feFlood flood-opacity="0" result="BackgroundImageFix"/>
<feBlend mode="normal" in="SourceGraphic" in2="BackgroundImageFix" result="shape"/>
<feGaussianBlur stdDeviation="120" result="effect1_foregroundBlur_103_445"/>
</filter>
<filter id="filter3_f_103_445" x="-264" y="-263" width="1174" height="1162" filterUnits="userSpaceOnUse" color-interpolation-filters="sRGB">
<feFlood flood-opacity="0" result="BackgroundImageFix"/>
<feBlend mode="normal" in="SourceGraphic" in2="BackgroundImageFix" result="shape"/>
<feGaussianBlur stdDeviation="120" result="effect1_foregroundBlur_103_445"/>
</filter>
</defs>
</svg>
