<svg width="553" height="533" viewBox="0 0 553 533" fill="none" xmlns="http://www.w3.org/2000/svg">
<path d="M484.693 285.5C484.693 375.537 413.94 448.5 326.693 448.5C239.447 448.5 168.693 375.537 168.693 285.5C168.693 195.463 239.447 122.5 326.693 122.5C413.94 122.5 484.693 195.463 484.693 285.5Z" stroke="#1A767A"/>
<path d="M385.693 245C385.693 334.758 314.719 407.5 227.193 407.5C139.668 407.5 68.6934 334.758 68.6934 245C68.6934 155.242 139.668 82.5 227.193 82.5C314.719 82.5 385.693 155.242 385.693 245Z" stroke="#1A767A"/>
<path d="M420.693 304.5C420.693 393.98 349.72 466.5 262.193 466.5C174.666 466.5 103.693 393.98 103.693 304.5C103.693 215.02 174.666 142.5 262.193 142.5C349.72 142.5 420.693 215.02 420.693 304.5Z" stroke="#1A767A"/>
<path d="M448.693 369.5C448.693 459.536 377.717 532.5 290.193 532.5C202.669 532.5 131.693 459.536 131.693 369.5C131.693 279.464 202.669 206.5 290.193 206.5C377.717 206.5 448.693 279.464 448.693 369.5Z" stroke="#1A767A"/>
<path d="M551.693 163.5C551.693 253.537 480.94 326.5 393.693 326.5C306.447 326.5 235.693 253.537 235.693 163.5C235.693 73.4628 306.447 0.5 393.693 0.5C480.94 0.5 551.693 73.4628 551.693 163.5Z" stroke="#1A767A"/>
<path d="M316.693 246.5C316.693 335.982 245.943 408.5 158.693 408.5C71.444 408.5 0.693359 335.982 0.693359 246.5C0.693359 157.018 71.444 84.5 158.693 84.5C245.943 84.5 316.693 157.018 316.693 246.5Z" stroke="#1A767A"/>
<line x1="50.1934" y1="175.5" x2="494.193" y2="175.5" stroke="#1A767A"/>
<line x1="50.1934" y1="175.5" x2="494.193" y2="175.5" stroke="#1A767A"/>
<line x1="50.1934" y1="327.5" x2="494.193" y2="327.5" stroke="#1A767A"/>
<line x1="50.1934" y1="327.5" x2="494.193" y2="327.5" stroke="#1A767A"/>
<line x1="50.1934" y1="25.5" x2="494.193" y2="25.5" stroke="#1A767A"/>
<line x1="50.1934" y1="25.5" x2="494.193" y2="25.5" stroke="#1A767A"/>
</svg>
