<svg width="552" height="533" viewBox="0 0 552 533" fill="none" xmlns="http://www.w3.org/2000/svg">
<path d="M484.875 285.5C484.875 375.733 413.964 448.875 326.5 448.875C239.036 448.875 168.125 375.733 168.125 285.5C168.125 195.267 239.036 122.125 326.5 122.125C413.964 122.125 484.875 195.267 484.875 285.5Z" stroke="#1A767A" stroke-width="0.25"/>
<path d="M385.875 245C385.875 334.956 314.741 407.875 227 407.875C139.259 407.875 68.125 334.956 68.125 245C68.125 155.044 139.259 82.125 227 82.125C314.741 82.125 385.875 155.044 385.875 245Z" stroke="#1A767A" stroke-width="0.25"/>
<path d="M420.875 304.5C420.875 394.18 349.742 466.875 262 466.875C174.258 466.875 103.125 394.18 103.125 304.5C103.125 214.82 174.258 142.125 262 142.125C349.742 142.125 420.875 214.82 420.875 304.5Z" stroke="#1A767A" stroke-width="0.25"/>
<path d="M448.875 369.5C448.875 459.733 377.741 532.875 290 532.875C202.259 532.875 131.125 459.733 131.125 369.5C131.125 279.267 202.259 206.125 290 206.125C377.741 206.125 448.875 279.267 448.875 369.5Z" stroke="#1A767A" stroke-width="0.25"/>
<path d="M551.875 163.5C551.875 253.733 480.964 326.875 393.5 326.875C306.036 326.875 235.125 253.733 235.125 163.5C235.125 73.2668 306.036 0.125 393.5 0.125C480.964 0.125 551.875 73.2668 551.875 163.5Z" stroke="#1A767A" stroke-width="0.25"/>
<path d="M316.875 246.5C316.875 336.18 245.965 408.875 158.5 408.875C71.0348 408.875 0.125 336.18 0.125 246.5C0.125 156.82 71.0348 84.125 158.5 84.125C245.965 84.125 316.875 156.82 316.875 246.5Z" stroke="#1A767A" stroke-width="0.25"/>
<line x1="50" y1="175.875" x2="494" y2="175.875" stroke="#1A767A" stroke-width="0.25"/>
<line x1="50" y1="175.875" x2="494" y2="175.875" stroke="#1A767A" stroke-width="0.25"/>
<line x1="50" y1="327.875" x2="494" y2="327.875" stroke="#1A767A" stroke-width="0.25"/>
<line x1="50" y1="327.875" x2="494" y2="327.875" stroke="#1A767A" stroke-width="0.25"/>
<line x1="50" y1="25.875" x2="494" y2="25.875" stroke="#1A767A" stroke-width="0.25"/>
<line x1="50" y1="25.875" x2="494" y2="25.875" stroke="#1A767A" stroke-width="0.25"/>
</svg>
