<svg width="657" height="1082" viewBox="0 0 657 1082" fill="none" xmlns="http://www.w3.org/2000/svg">
<g style="mix-blend-mode:hard-light" filter="url(#filter0_f_103_287)">
<path d="M151 727.681C151 727.681 150.896 727.64 150.713 727.576C150.893 727.654 151 727.681 151 727.681Z" fill="#FFA800"/>
<path d="M425.587 611.81C424.42 608.095 419.742 599.444 410.369 594.554C401.643 590.001 387.549 587.815 369.298 588.626C370.512 592.853 372.185 595.839 373.976 597.883C377.368 601.754 381.505 602.624 385.049 601.953L385.162 602.476C406.262 599.94 414.61 605.297 420.43 609.031C422.297 610.229 423.903 611.26 425.587 611.81Z" fill="#FFA800"/>
<path d="M507.287 727.576C507.107 727.654 507 727.681 507 727.681C507 727.681 507.037 727.666 507.106 727.641C507.153 727.624 507.214 727.602 507.287 727.576Z" fill="#FFA800"/>
<path fill-rule="evenodd" clip-rule="evenodd" d="M118 48H122V407.219C123.861 406.16 125.881 404.848 128 403.015V48H132V398.985C135.536 394.876 139.225 389.02 142.817 380.327L144.513 380.871C145.705 377.466 148.526 374.319 153.575 373.316C156.001 372.835 159.053 372.829 162.8 373.631C154.208 390.452 145.049 401.955 136.554 407.356C135.051 408.312 133.522 409.099 132 409.743V447.503L152.397 435.727L191.92 448.954L154.767 466.245L132 457.76V526H195.101C192.736 490.356 196.467 428.425 233.561 393.724C260.658 368.374 262.936 355.753 262.635 347.983C261.343 345.339 259.835 342.636 258.082 339.878C240.356 311.998 208.174 316.799 201.203 321.231C200.59 321.621 199.929 322.01 199.229 322.414C198.887 322.611 198.535 322.811 198.174 323.017C190.884 327.169 179.912 333.418 170.656 356.313L170.404 356.933C161.114 357.193 154.245 359.146 149.147 362.392C149.024 362.47 148.901 362.55 148.78 362.63C150.626 355.98 152.401 348.313 154.066 339.455C168.737 261.388 256.067 207.397 295.265 189C262.437 223.574 253.643 248.741 248.23 265.885C245.27 275.597 244.161 301.357 263.408 326.704C282.656 352.051 273.688 388.029 266.798 402.849C267.021 401.12 267.349 399.217 267.704 397.15C269.236 388.252 271.29 376.317 267.801 362.115C266.036 371.348 260.225 383.528 250.37 397.325C239.938 411.931 240.383 421.097 240.679 427.188L240.703 427.685L240.723 428.126C240.748 428.693 240.765 429.23 240.765 429.742C240.765 435.745 250.37 457.356 274.382 457.356C295.149 457.356 306.038 447.478 313.262 440.925C313.653 440.57 314.034 440.225 314.404 439.892C315.103 439.263 315.768 438.677 316.404 438.146C310.001 448.152 291.431 467.682 268.379 465.761C245.327 463.84 229.959 474.565 225.157 480.168C217.922 488.781 208.017 501.25 200.04 526H276.676C276.817 525.676 276.956 525.349 277.094 525.021C289.422 495.678 325.063 485.456 341.343 484.013C339.734 484.684 337.922 485.352 335.954 486.077C327.043 489.362 314.931 493.826 303.927 505.136C312.776 501.733 326.656 500.508 344.262 502.215C362.126 503.947 369.842 498.978 374.969 495.677L374.971 495.675L374.978 495.671C375.243 495.5 375.502 495.333 375.755 495.172C375.975 495.032 376.192 494.896 376.404 494.764L376.574 494.66L376.779 494.537L376.954 494.432L377.138 494.325C382.337 491.323 396.25 472.2 384.244 451.404C373.86 433.42 359.861 428.929 350.574 425.949C349.122 425.484 347.786 425.055 346.597 424.617C358.463 425.16 384.661 431.477 394.524 452.401C404.386 473.325 421.359 481.271 428.612 482.629C441.479 484.905 460.653 487.699 493.968 478.168C485.522 484.604 472.623 493.208 457.115 501.14C481.983 502.193 505.373 509.157 526 520.705V478.61C516.789 461.26 507.47 450.641 500.093 442.584C493.162 435.165 471.407 421.324 439.833 425.319C427.955 426.822 416.771 424.115 406.939 419.44C400.314 421.518 391.423 420.256 378.497 411.509C373.928 408.418 369.784 406.908 366.012 406.562C358.977 416.756 345.172 419.996 334.258 413.695C322.773 407.064 318.838 392.378 325.469 380.893C332.099 369.408 346.785 365.473 358.27 372.104C361.39 373.906 374.907 381.709 384.661 398.431C385.293 399.515 385.926 400.543 386.557 401.517C396.547 408.456 410.406 415.003 431.087 414.119C464.095 412.708 476.028 382.437 475.675 374.185C475.652 373.633 475.642 373.058 475.639 372.459C475.638 372.18 475.638 371.897 475.639 371.608L475.643 370.71L475.643 370.669C475.691 362.458 475.763 350.188 461.518 331.423C466.235 324.321 469.121 318.084 470.521 312.525C474.331 316.196 478.624 320.098 483.461 324.25C503.164 341.163 516.756 363.514 526 387.447V48H530V398.702C532.339 405.875 534.324 413.133 536 420.378V48H540V441.042C545.069 473.135 544.75 503.044 543.16 521.76C542.128 518.272 541.073 514.933 540 511.734V526H551V527H540V529.542C581.666 559.001 609 608.458 609 664.5C609 714.786 586.993 759.77 552.372 789.762C552.449 789.771 552.526 789.778 552.605 789.782L552.695 789.786L552.798 789.787L544.511 810.565V810.621L544.5 810.593L544.489 810.621V810.565L541.255 802.456C540.435 811.19 538.949 819.723 536.849 828H551V829H536.593C535.977 831.366 535.311 833.71 534.596 836.033C537.501 838.91 540.307 841.101 542.5 842.5C545.333 844.5 551 849.6 551 858C551 866.4 544 868.833 540.5 868.5C539.593 877.726 532.261 892.36 510.583 884.226C508.678 886.858 506.698 889.429 504.646 891.935C494.437 972.104 427.748 1034 347 1034C279.384 1034 221.626 990.6 198.634 929.412L198 929.5C198 929.203 197.998 928.907 197.995 928.613C197.99 928.283 197.984 927.954 197.976 927.628C195.698 921.348 193.785 914.885 192.263 908.266C170.919 905.051 150.958 897.475 133.269 886.448C126.702 885.643 122.57 881.777 120.175 877.338C98.5917 860.656 81.3002 838.447 70.3016 812.764L65 835L59.5161 812L48 801L58.9678 798.5L62.7971 791.2C59.0195 777.295 57.0001 762.639 57.0001 747.5C57.0001 695.449 80.8704 649.114 118 619.374V527H107V526H118V412.356C116.348 412.305 114.975 412.125 114 411.908C115.093 410.927 116.446 410.157 118 409.343V48ZM536 526V500.644C534.035 495.574 532.027 490.91 530 486.607V523.023C531.609 523.987 533.2 524.98 534.773 526H536ZM536 528.006V676H530V527H534.474C534.985 527.333 535.493 527.668 536 528.006ZM540 676V530.77C581.08 560.09 608 609.042 608 664.5C608 714.719 585.927 759.602 551.254 789.405C547.735 787.479 547.951 778.791 548.042 775.159C548.053 774.709 548.062 774.336 548.062 774.064C548.062 754.567 554.488 743.144 560.67 737.509C566.853 731.875 575.686 733.184 575.686 733.184C575.686 733.184 574.265 729.298 575.686 727.681C577.068 726.108 580.669 727.211 581.713 727.576C581.893 727.654 582 727.681 582 727.681C582 727.681 581.896 727.64 581.713 727.576C580.921 727.231 578.715 725.886 577.955 721.392C576.812 714.633 572.509 714.227 563.98 715.695C558.454 726.627 545.125 721.584 544.511 721.345V721.336L544.5 721.341L544.489 721.336V721.345C544.272 721.429 542.477 722.11 540 722.479V677H551V676H540ZM536 677H530V721.058C531.926 722.136 534.019 722.585 536 722.688V677ZM122 412.229C123.862 412.057 125.894 411.717 128 411.134V449.813L122 453.277V412.229ZM122 454.033L128 456.269V526H122V454.033ZM122 527H128V611.984C125.967 613.367 123.966 614.797 122 616.272V527ZM122 617.525C123.966 616.036 125.966 614.593 128 613.197V676H122V617.525ZM132 610.541V676H140.367C154.991 644.522 179.17 618.609 209.06 602.204C199.322 598.299 190.1 594.055 181.594 589.752C163.741 593.769 147.021 600.892 132 610.541ZM122 677H128V714.326C127.534 716.751 127.121 719.196 126.761 721.659C125.196 722.31 123.563 722.607 122 722.688V677ZM132 677V698.021C134.17 690.786 136.819 683.767 139.907 677H132ZM127.849 721.141C127.898 720.812 127.948 720.482 128 720.153V721H128.102C128.044 721.033 127.987 721.065 127.929 721.097L127.849 721.141ZM132 701.626V717.359C132.348 716.851 132.676 716.297 132.98 715.695C141.509 714.227 145.812 714.633 146.955 721.392C147.715 725.886 149.921 727.231 150.713 727.576C149.67 727.211 146.068 726.108 144.686 727.681C143.265 729.298 144.686 733.184 144.686 733.184C144.686 733.184 135.853 731.875 129.67 737.509C128.459 738.613 127.239 739.938 126.06 741.503C126.02 742.998 126 744.496 126 746C126 746.37 126.001 746.74 126.004 747.11C126.006 747.535 126.011 747.959 126.017 748.382L126.026 748.992C126.032 749.321 126.039 749.65 126.047 749.979C126.056 750.375 126.067 750.77 126.079 751.164C126.579 750.496 127.061 749.938 127.5 749.5C128.55 755.1 134.014 765.444 137.597 771.628C132.656 762.451 130.806 749.66 130.5 744L136.5 737C136.5 737 139.131 766.82 160.075 800.469C161.569 750.253 185.355 705.769 221.661 677H141.006C137.382 684.881 134.36 693.111 132 701.626ZM132 527V609.352C146.647 600.027 162.886 593.083 180.203 589.044C164.479 581.005 151.284 572.813 141.91 566.284C188.266 577.427 214.459 572.459 232.012 568.575C241.677 566.335 263.731 554.901 276.235 527H199.72C198.546 530.718 197.414 534.708 196.342 538.999C195.894 535.506 195.485 531.47 195.17 527H132ZM526 521.854C504.889 509.934 480.844 502.858 455.272 502.073C431.697 513.889 402.412 523.94 373.652 522.624C371.771 523.711 369.913 524.837 368.081 526H418.301L417.757 522.772L423.348 526H526V521.854ZM530 526V524.191C530.394 524.43 530.788 524.67 531.18 524.911C531.762 525.271 532.342 525.633 532.919 526H530ZM526 527H425.08L448.95 540.781L457.257 581.623L423.705 558.093L418.469 527H366.526C362.429 529.669 358.46 532.527 354.629 535.563C357.903 541.867 363.684 555.213 363.762 572.875C363.885 600.627 376.33 607.268 385.718 605.492C374.769 608.169 362.242 606.572 350.382 582.162C347.666 576.572 344.473 572.765 340.988 570.303C334.622 573.324 327.571 573.642 321.236 571.634C318.184 576.146 315.35 580.826 312.747 585.657C320.311 587.073 327.689 589.038 334.839 591.51C339.011 591.577 343.734 591.297 349.112 590.542C349.633 590.469 350.151 590.398 350.667 590.329C354.105 596.149 357.672 600.469 361.36 603.56C371.051 609.103 380.117 615.655 388.424 623.077C432.686 624.47 472.382 644.583 500.323 676H526V527ZM526 677H501.205C511.085 688.293 519.458 701.015 526 714.829V677ZM526 717.196C519.249 702.444 510.408 688.911 499.874 677H428.094C430.624 682.544 432.859 688.257 434.777 694.12C454.729 715.775 468.93 743.027 474.884 773.328C482.355 783.706 488.659 795.026 493.597 807.083C518.515 770.829 521.5 737 521.5 737L527.5 744C527.194 749.66 525.344 762.451 520.403 771.628C523.986 765.444 529.45 755.1 530.5 749.5C533.833 752.833 539.7 763 536.5 777C530.667 776.833 519 781.6 519 802C519 804.919 519.321 807.729 519.893 810.417C526.782 806.923 533.388 802.925 539.665 798.469L536.202 789.787C539.604 789.787 540.63 785.138 540.906 780.815C540.574 770.865 539.375 761.142 537.386 751.725C534.964 745.125 531.613 740.501 528.33 737.509C522.147 731.875 513.314 733.184 513.314 733.184C513.314 733.184 514.735 729.298 513.314 727.681C511.932 726.108 508.33 727.211 507.287 727.576C508.079 727.231 510.285 725.886 511.045 721.392C512.188 714.633 516.491 714.227 525.02 715.695C525.208 716.068 525.406 716.422 525.612 716.759C525.738 716.965 525.868 717.165 526 717.358V717.196ZM58.0001 747.5C58.0001 696.048 81.4598 650.229 118 620.658V676H107V677H118V722.479C115.523 722.11 113.727 721.43 113.511 721.345V721.336L113.5 721.341L113.489 721.336V721.345C112.875 721.584 99.5464 726.627 94.0199 715.695C85.491 714.227 81.1879 714.633 80.0452 721.392C79.2852 725.886 77.0789 727.231 76.2871 727.576C76.1042 727.64 76 727.681 76 727.681C76 727.681 76.1069 727.654 76.2871 727.576C77.3304 727.211 80.9324 726.108 82.314 727.681C83.7347 729.298 82.314 733.184 82.314 733.184C82.314 733.184 91.1473 731.875 97.3297 737.509C103.512 743.144 109.938 754.567 109.938 774.064C109.938 774.336 109.947 774.709 109.958 775.159C110.06 779.256 110.322 789.787 105.202 789.787L113.489 810.565V810.621L113.5 810.593L113.511 810.621V810.565L121.798 789.787C116.678 789.787 116.94 779.256 117.042 775.159C117.053 774.709 117.062 774.336 117.062 774.064C117.062 759.513 120.641 749.458 125.027 742.952C125.019 743.432 125.012 743.913 125.008 744.395C125.005 744.665 125.003 744.935 125.002 745.206C125.001 745.471 125 745.735 125 746C125 748.193 125.042 750.376 125.126 752.549C122.071 757.359 118.985 765.996 121.5 777C123.334 776.948 125.745 777.383 128.188 778.639C130.4 789.796 133.724 800.54 138.036 810.742C136.583 817.303 133.636 823.125 130.205 828H107V829H129.485C124.739 835.446 119.231 840.119 115.5 842.5C112.667 844.5 107 849.6 107 858C107 866.4 114 868.833 117.5 868.5C117.707 870.602 118.247 872.985 119.214 875.315C98.2859 858.715 81.5446 836.829 70.8955 811.607L82 801L71.0322 798.5L65 787L63.4819 789.894C59.9076 776.385 58.0001 762.171 58.0001 747.5ZM514.811 878.098C522.087 872.859 524.345 867.129 524.143 861.967C525.206 859.863 526.226 857.732 527.202 855.575C528.688 858.042 529.521 861.182 529 865C527.584 875.385 519.037 878.046 514.3 878.872L514.504 878.562L514.811 878.098ZM526.55 854.59C526.245 855.27 525.936 855.947 525.623 856.622C525.375 857.154 525.125 857.686 524.872 858.215C524.573 858.844 524.269 859.47 523.961 860.093C523.266 855.563 520.814 851.604 518.5 849C521.038 849.634 524.306 851.493 526.55 854.59ZM530.691 847.269C536.095 853.082 536.056 857.571 535 860C537.021 857.44 539.042 851.698 532.343 842.828C532.063 843.615 531.777 844.4 531.486 845.182C531.225 845.879 530.96 846.575 530.691 847.269ZM531.614 841.893C531.395 842.516 531.172 843.137 530.946 843.757C530.614 844.667 530.274 845.573 529.927 846.475C526.779 843.312 522.027 839.784 515 836C510.764 833.719 507.645 831.358 505.412 829H518.342C519.727 830.279 521.263 831.679 522.966 833.231C523.923 834.104 524.934 835.025 526 836C528.288 838.092 530.135 840.056 531.614 841.893ZM533.798 835.227C534.424 833.168 535.011 831.093 535.559 829H528.515C530.217 831.312 532.017 833.395 533.798 835.227ZM527.795 828H535.818C538.096 819.076 539.656 809.851 540.432 800.394L540.046 799.425C533.72 803.902 527.063 807.917 520.121 811.424C521.622 817.707 524.483 823.294 527.795 828ZM500.556 818.621C500.353 813.449 503.232 809.024 506 806.5C506 810.583 506.289 813.45 507.36 816.086C505.117 816.983 502.848 817.829 500.556 818.621ZM500.637 819.651C503.04 818.825 505.418 817.942 507.768 817.002C509.331 820.221 512.183 823.261 517.264 828H504.516C502.107 825.145 500.951 822.312 500.637 819.651ZM492.918 808.064C488.25 796.538 482.328 785.683 475.329 775.681C477.083 785.347 478 795.314 478 805.5C478 812.005 477.626 818.421 476.899 824.727C478.026 824.531 479.149 824.322 480.267 824.102C485.001 818.776 489.198 813.397 492.918 808.064ZM479.161 825.334C478.368 825.483 477.573 825.626 476.776 825.764C476.685 826.511 476.589 827.256 476.488 828H476.694C477.532 827.113 478.354 826.225 479.161 825.334ZM475.269 829.492L475.34 829H420.872C415.765 837.832 409.868 846.126 403.281 853.782C398.551 866.719 390.493 878.054 380.143 886.749C399.822 880.37 423.788 869.615 449.5 851.5C459.372 844.545 467.901 837.109 475.269 829.492ZM373.79 891.557C411.88 883.882 438.812 868.09 449.5 859C439.653 874.338 419.426 899.443 389.5 907.5C367.595 913.397 353.853 926.748 350.068 930.807L357.5 922.5C357.5 922.5 361.5 918 357.5 918C348.328 918 334.52 931.465 330.023 939.392C329.134 939.061 328.25 938.722 327.368 938.375C322.339 930.368 309.29 918 300.5 918C296.5 918 300.5 922.5 300.5 922.5L304.767 927.27C304.349 927.02 303.932 926.769 303.517 926.515C299.792 923.189 294.22 918.84 286.953 914.897C284.564 912.983 282.23 910.999 279.954 908.948C281.299 908.983 282.647 909 284 909C296.816 909 309.277 907.446 321.215 904.511C324.099 904.834 327.03 905 330 905C346.232 905 361.306 900.042 373.79 891.557ZM329.189 940.149L328.832 940.014L328.185 939.768C328.52 940.385 328.794 940.966 329 941.5C329.067 941.326 329.142 941.147 329.223 940.963C329.272 940.853 329.324 940.74 329.378 940.626C329.431 940.513 329.487 940.399 329.546 940.283L329.189 940.149ZM329 994C328.908 993.669 328.814 993.324 328.718 992.964C328.618 992.593 328.516 992.206 328.409 991.805C326.903 986.131 324.617 977.516 319.026 968H319C278.752 968 241.996 952.716 213.987 927.518C208.698 928.045 203.858 928.687 199.649 929.271C222.555 989.979 279.906 1033 347 1033C426.687 1033 492.631 972.314 503.446 893.384C476.167 925.929 436.65 947.256 392.274 949.754C376.197 958.301 358.512 964.124 339.804 966.622C333.605 976.682 331.169 985.859 329.591 991.805L329.438 992.38C329.362 992.665 329.288 992.942 329.216 993.21L329.108 993.606L329 994ZM340.497 965.518C358.041 963.078 374.67 957.694 389.892 949.87C387.772 949.957 385.641 950 383.5 950C374.195 950 365.078 949.173 356.212 947.586C349.299 953.526 344.249 959.655 340.497 965.518ZM357.205 946.745L357.5 946.5C376.968 930.378 401.864 926.347 423.745 926.412C414.135 935.117 403.48 942.642 391.996 948.768C389.183 948.922 386.35 949 383.5 949C374.541 949 365.757 948.228 357.205 946.745ZM425.218 926.423C415.869 935.006 405.519 942.473 394.37 948.619C417.544 946.989 439.346 940.185 458.695 929.318C449.825 928.085 438.082 926.568 425.218 926.423ZM460.006 928.573C476.655 919.009 491.45 906.419 503.69 891.524C504.102 888.242 504.419 884.93 504.638 881.59C504.262 881.399 503.883 881.203 503.5 881C489.12 881.496 460.478 891.729 460.006 928.573ZM505.608 882.072C506.995 882.749 508.332 883.34 509.619 883.853C508.085 885.965 506.503 888.037 504.873 890.067C505.18 887.421 505.426 884.756 505.608 882.072ZM505.959 866.761C505.887 863.438 505.718 860.14 505.455 856.869C506.476 860.458 506.73 863.851 505.959 866.761ZM504.094 852.996C504.65 858.33 504.954 863.741 504.995 869.217C502.104 874.575 494.527 877.512 480 875.5C473.755 874.636 466.105 878.061 458.66 883.239C461.889 877.191 464.754 870.911 467.223 864.429C469.926 860.966 472.399 857.51 474.701 854.293C484.162 841.07 490.726 831.895 498.5 843C500.787 846.268 502.715 849.669 504.094 852.996ZM465.113 867.069C464.584 867.715 464.047 868.359 463.5 869C462.336 870.364 461.182 871.734 460.036 873.1C459.109 874.205 458.188 875.308 457.273 876.404C445.511 890.488 434.685 903.451 424.755 905.375C424.311 905.461 423.954 905.813 423.951 906.266C423.93 909.438 426.046 914.283 433.839 916.422C434.337 915.883 434.832 915.341 435.322 914.796C433.971 913.895 432.713 912.676 431.769 911.007C431.595 910.698 431.61 910.33 431.808 910.034C436.283 903.364 446.194 892.385 456.801 884.57C459.901 878.937 462.681 873.095 465.113 867.069ZM436.19 915.326C435.777 915.786 435.362 916.244 434.944 916.698C437.184 917.205 439.846 917.5 443 917.5L442.677 917.437L442.551 917.413C441.012 917.116 438.533 916.637 436.19 915.326ZM544.511 766.203C544.511 775.143 544.506 786.101 544.5 794.896L544.496 786.66C544.494 783.209 544.492 779.641 544.491 776.142L544.489 766.203C544.489 760.699 542.133 753.782 539.359 747.334C538.368 745.032 536.977 742.568 535.599 740.353C534.879 737.823 534.101 735.319 533.267 732.842C534.658 732.737 536.339 732.747 537.583 733.184C541.637 734.606 544.227 741.669 544.489 742.411V742.474L544.5 742.442L544.511 742.474V742.411C544.773 741.669 547.363 734.606 551.417 733.184C553.96 732.291 558.323 733.184 558.323 733.184C558.323 733.184 552.415 740.887 549.641 747.334C546.867 753.782 544.511 760.699 544.511 766.203ZM532.246 732.942C532.746 734.42 533.226 735.908 533.685 737.405C531.999 734.907 530.677 733.184 530.677 733.184C530.677 733.184 531.316 733.053 532.246 732.942ZM533.509 732.09C533.349 732.107 533.189 732.124 533.029 732.139C532.154 729.579 531.219 727.047 530.226 724.547C530.381 724.656 530.531 724.77 530.677 724.891C542.154 734.354 544.333 728.854 544.5 728.36C544.667 728.854 546.846 734.354 558.323 724.891C562.588 721.374 570.814 722.935 571.345 728.074C571.345 728.074 570.642 730.44 566.554 731.484C561.379 732.807 557.418 732.332 553.404 731.85C552.835 731.781 552.266 731.713 551.691 731.649C551.135 731.588 550.574 731.532 550.005 731.484C545.399 731.1 544.633 729.126 544.511 728.618V728.499L544.507 728.528L544.5 728.568L544.491 728.519L544.489 728.499V728.618C544.367 729.126 543.601 731.1 538.995 731.484C538.792 731.501 538.589 731.52 538.388 731.539C538.119 731.564 537.851 731.591 537.585 731.62C537.229 731.658 536.876 731.698 536.524 731.739L535.667 731.841L535.596 731.85C535.123 731.906 534.65 731.963 534.177 732.017C533.954 732.042 533.732 732.067 533.509 732.09ZM532.003 732.23C531.023 729.374 529.967 726.554 528.838 723.773C524.403 721.84 518.117 723.603 517.655 728.074C517.655 728.074 518.358 730.44 522.446 731.484C526.085 732.414 529.125 732.455 532.003 732.23ZM193.852 907.487C193.423 906.487 192.965 905.522 192.482 904.591C192.676 905.522 192.877 906.452 193.085 907.377L193.852 907.487ZM190.916 901.827L190.801 901.642C190.335 900.994 189.873 900.342 189.417 899.687C189.22 899.405 189.025 899.123 188.83 898.839C188.658 898.59 188.487 898.34 188.317 898.089C178.549 885.566 163.642 881.315 154.5 881C146.717 885.12 140.441 886.691 135.423 886.597C152.486 896.947 171.617 904.091 192.026 907.218C191.627 905.432 191.257 903.635 190.916 901.827ZM178 875.5C181.095 875.072 184.536 875.697 188.126 877.068C188.113 876.718 188.1 876.367 188.089 876.017C181.715 871.067 175.716 865.637 170.145 859.778C172.043 865.218 174.219 870.523 176.655 875.675C177.096 875.622 177.545 875.563 178 875.5ZM318.427 966.999C278.992 966.856 242.955 951.943 215.341 927.387C240.468 925.013 275.103 925.468 300.5 946.5C308.683 953.276 314.376 960.338 318.427 966.999ZM278.414 908.901C279.869 910.231 281.347 911.534 282.849 912.809C279.546 911.236 275.951 909.781 272.073 908.548C274.176 908.708 276.29 908.826 278.414 908.901ZM215 917.5C227.414 917.5 232.207 912.917 233.587 908.954C231.054 909.249 228.502 909.483 225.934 909.654L226.037 909.805L226.192 910.034C226.39 910.33 226.405 910.698 226.231 911.007C223.486 915.861 218.087 916.903 215.449 917.413C215.288 917.444 215.139 917.473 215 917.5ZM225.262 908.695C228.156 908.513 231.028 908.252 233.878 907.912C234 907.332 234.052 906.777 234.049 906.266C234.046 905.813 233.689 905.461 233.245 905.375C227.541 904.27 221.54 899.521 215.237 893.01C211.698 891.268 208.231 889.394 204.844 887.396C213.358 894.323 221.035 902.796 225.262 908.695ZM258.345 903.994C261.119 905.168 263.992 906.202 266.963 907.069C270.371 907.443 273.812 907.707 277.282 907.856C274.661 905.413 272.119 902.881 269.662 900.265C265.952 901.647 262.178 902.893 258.345 903.994ZM208.5 859C217.016 872.265 233.294 892.833 256.896 903.364C260.972 902.228 264.984 900.928 268.922 899.472C264.392 894.585 260.154 889.409 256.235 883.973C232.921 875.942 216.34 865.668 208.5 859ZM269.935 899.094C265.647 894.491 261.619 889.629 257.876 884.531C266.428 887.399 275.856 889.955 286.064 891.922C280.846 894.608 275.463 897.005 269.935 899.094ZM252.617 876.926C262.86 881.584 272.434 885.108 281.103 887.774C263.839 873.866 252.623 852.751 252.025 829H231.441C235.969 846.289 243.192 862.434 252.617 876.926ZM208.5 851.5C223.394 861.994 237.702 870.017 250.931 876.151C241.817 861.84 234.823 845.965 230.408 829H194.199C193.4 832.118 192.69 835.273 192.07 838.462C197.085 842.939 202.549 847.307 208.5 851.5ZM244.076 902.783C220.673 890.685 197.568 859.672 190.323 849.378L190.264 849.849C195.552 858.536 209.814 880.307 229.943 898.27C234.557 899.992 239.272 901.5 244.076 902.783ZM193.167 829C192.438 831.865 191.783 834.76 191.204 837.684C188.044 834.826 185.066 831.926 182.258 829H193.167ZM161.037 801.996C166.506 810.584 173.177 819.395 181.306 828H193.425C199.699 803.967 211.167 782.12 226.514 763.809C230.976 730.658 245.073 700.687 265.795 677H223.281C186.276 705.842 162.098 751.006 161.037 801.996ZM135.034 833.231C136.737 831.679 138.273 830.279 139.658 829H147.128C147.745 830.067 148.374 831.126 149.014 832.178C147.321 833.467 145.33 834.746 143 836C122.2 847.2 121.333 856.167 123 860C120.5 856.833 118 848.8 132 836L135.034 833.231ZM148.284 829C148.784 829.857 149.291 830.709 149.806 831.556C150.857 830.706 151.78 829.853 152.588 829H148.284ZM158.662 844.227L158.514 844.451C161.421 848.341 164.497 852.091 167.729 855.691C166.003 850.252 164.549 844.686 163.385 839.012C162.111 839.807 160.823 841.11 159.5 843C159.297 843.291 159.096 843.583 158.898 843.875L158.797 844.025L158.662 844.227ZM168.483 858.005C164.763 853.974 161.242 849.75 157.935 845.346C147.921 861.13 147.047 878.828 175.606 875.794C172.902 870.044 170.52 864.106 168.483 858.005ZM146.555 828H140.736C141.137 827.625 141.525 827.262 141.899 826.907C142.272 826.554 142.633 826.21 142.98 825.875C143.53 825.343 144.048 824.833 144.535 824.342C145.193 825.571 145.867 826.791 146.555 828ZM147.706 828C146.872 826.545 146.059 825.076 145.268 823.593C150.927 817.716 152 814.361 152 806.5C156.349 810.465 160.974 819.124 153.484 828H147.706ZM139 802C139 804.404 138.782 806.735 138.386 808.984C134.484 799.513 131.436 789.582 129.339 779.292C134.278 782.371 139 789.021 139 802ZM183.299 854.293C175.838 843.865 170.178 835.954 164.306 838.523C165.621 844.994 167.315 851.322 169.363 857.483C175.134 863.719 181.384 869.485 188.052 874.718C188.024 873.6 188.008 872.479 188.002 871.355C188.001 871.07 188 870.785 188 870.5C188 867.353 188.087 864.227 188.257 861.123C186.517 858.791 184.875 856.496 183.312 854.311L183.299 854.293ZM188 846C188 846 188.489 846.885 189.431 848.467L189.472 848.161C188.514 846.778 188 846 188 846ZM189 870.5C189 867.774 189.065 865.063 189.194 862.37C190.868 864.579 192.632 866.81 194.5 869C196.604 871.467 198.68 873.953 200.727 876.404C205.011 881.534 209.171 886.515 213.208 890.868C204.696 886.486 196.622 881.338 189.074 875.513C189.025 873.848 189 872.177 189 870.5ZM244.806 904.01C240.47 902.883 236.205 901.574 232.019 900.09C233.047 900.976 234.09 901.851 235.146 902.712C235.379 902.902 235.651 903.036 235.943 903.105L243.47 904.898C244.138 905.057 244.708 904.591 244.806 904.01ZM189.143 877.474C189.862 877.774 190.586 878.102 191.314 878.456L190.978 878.208L190.635 877.954C190.406 877.783 190.177 877.611 189.949 877.439C189.671 877.23 189.394 877.02 189.117 876.808L189.143 877.474ZM306.937 929.694L306.771 929.599C307.227 930.061 307.615 930.466 307.932 930.807L306.937 929.694ZM197.789 924.081C197.32 918.184 196.086 913.038 194.296 908.559C193.972 908.514 193.648 908.469 193.325 908.422C194.563 913.749 196.056 918.973 197.789 924.081ZM371.835 522.526C364.324 522.056 356.857 520.795 349.547 518.573C313.139 507.505 301.375 512.35 294.904 516.581C293.617 518.593 292.368 520.744 291.167 523.046C290.651 524.035 290.175 525.021 289.738 526H311.028C312.481 524.656 314.105 523.452 315.891 522.421C326.419 516.343 339.335 518.146 347.807 526H366.227C368.072 524.803 369.941 523.645 371.835 522.526ZM354.154 534.664C357.564 531.966 361.084 529.409 364.705 527H348.83C350.35 528.568 351.703 530.346 352.844 532.323L352.847 532.328C353.001 532.593 353.192 532.925 353.415 533.321L353.572 533.601C353.654 533.748 353.74 533.903 353.829 534.065L354.032 534.438L354.154 534.664ZM298.731 620.908C303.265 620.831 307.792 620.565 312.298 620.093C317.534 624.281 322.505 628.801 327.181 633.623C320.069 636.412 313.203 639.714 306.624 643.485C302.409 643.816 298.241 644.316 294.125 644.977C295.08 636.749 296.63 628.71 298.731 620.908ZM210.267 602.686C236.97 613.271 267.461 621.246 297.692 620.922C295.592 628.776 294.046 636.866 293.099 645.145C267.034 649.509 243.102 660.351 222.937 676H141.47C156.143 644.649 180.365 618.893 210.267 602.686ZM126.211 725.784C115.704 733.994 113.661 728.837 113.5 728.36C113.333 728.854 111.153 734.354 99.6774 724.891C95.4122 721.374 87.1858 722.935 86.6548 728.074C86.6548 728.074 87.3578 730.44 91.4457 731.484C96.6213 732.807 100.583 732.332 104.596 731.85C105.716 731.715 106.839 731.581 107.995 731.484C112.601 731.1 113.367 729.126 113.489 728.618V728.499L113.493 728.528L113.5 728.568C113.509 728.523 113.511 728.499 113.511 728.499V728.618C113.633 729.126 114.399 731.1 119.005 731.484C119.719 731.544 120.421 731.618 121.116 731.697C121.547 731.747 121.976 731.798 122.404 731.85L122.444 731.854L122.482 731.858C122.994 731.92 123.506 731.981 124.019 732.039C124.531 732.095 125.044 732.148 125.562 732.194C125.738 730.045 125.955 727.908 126.211 725.784ZM127.33 724.885C131.597 721.375 139.814 722.938 140.345 728.074C140.345 728.074 139.642 730.44 135.554 731.484C132.151 732.354 129.273 732.446 126.559 732.271C126.762 729.792 127.019 727.33 127.33 724.885ZM126.498 733.042C126.703 733.073 126.876 733.102 127.01 733.125C127.21 733.161 127.323 733.184 127.323 733.184C127.323 733.184 126.97 733.643 126.397 734.432L126.432 733.921C126.454 733.627 126.475 733.335 126.498 733.042ZM125.505 732.913C125.426 733.932 125.356 734.953 125.296 735.977C123.321 738.802 120.371 743.312 118.641 747.334C115.867 753.782 113.511 760.699 113.511 766.203C113.511 775.21 113.505 786.265 113.5 795.093C113.495 786.265 113.489 775.21 113.489 766.203C113.489 760.699 111.133 753.782 108.359 747.334C105.585 740.887 99.6774 733.184 99.6774 733.184C99.6774 733.184 104.04 732.291 106.583 733.184C110.637 734.606 113.227 741.669 113.489 742.411V742.474L113.5 742.442L113.511 742.474V742.411C113.773 741.669 116.363 734.606 120.417 733.184C121.903 732.662 124.01 732.75 125.505 732.913ZM313.702 619.938C323.557 618.809 333.307 616.676 342.808 613.338C350.891 610.499 358.092 608.284 364.523 606.589C372.444 611.409 379.919 616.918 386.87 623.036C386.367 623.025 385.863 623.017 385.359 623.011C384.74 623.004 384.121 623 383.5 623C364.047 623 345.412 626.615 328.192 633.23C323.634 628.505 318.794 624.065 313.702 619.938ZM312.551 586.638C317.077 588.797 322.952 590.79 331.218 591.358C325.145 589.411 318.914 587.829 312.551 586.638ZM308.349 584.421C307.711 584.057 307.103 583.701 306.518 583.358C305.425 582.719 304.416 582.129 303.457 581.628C296.465 577.98 277.692 554.6 289.305 527H310.003C301.782 535.458 299.799 548.654 305.989 559.375C309.317 565.139 314.445 569.215 320.254 571.303C317.183 575.861 314.331 580.588 311.714 585.467L311.308 585.395L310.92 585.326C310.463 585.246 310.006 585.168 309.548 585.093C309.308 584.961 309.073 584.83 308.841 584.699L308.349 584.421ZM450.5 827C459.137 827 467.612 826.283 475.872 824.902C476.617 818.542 477 812.066 477 805.5C477 794.626 475.949 784.004 473.945 773.733C465.126 761.517 454.681 750.618 442.937 741.375C442.963 742.321 442.981 743.268 442.991 744.217C442.997 744.811 443 745.405 443 746C443 774.496 435.867 801.285 423.332 824.591C432.158 826.174 441.236 827 450.5 827ZM450.5 828C459.093 828 467.526 827.294 475.747 825.937C475.662 826.626 475.573 827.313 475.479 828H450.5ZM450.5 828H421.446C421.914 827.177 422.375 826.349 422.83 825.517C431.815 827.149 441.061 828 450.5 828ZM421.203 826.395C421.402 826.04 421.599 825.683 421.795 825.326C417.074 824.435 412.426 823.328 407.862 822.016C407.884 822.409 407.903 822.802 407.92 823.197C407.944 823.777 407.963 824.359 407.977 824.943C407.992 825.626 408 826.312 408 827L408 827.23L407.998 827.601L407.994 828H420.295L420.496 827.648L420.708 827.276C420.874 826.983 421.039 826.689 421.203 826.395ZM404.183 851.169C406.464 844.163 407.781 836.721 407.975 829H419.717C415.143 836.844 409.942 844.258 404.183 851.169ZM287.406 892.354C296.585 898.349 307.103 902.461 318.415 904.146C307.336 906.669 295.819 908 284 908C282.266 908 280.538 907.971 278.818 907.915C276.012 905.337 273.296 902.659 270.675 899.883C276.417 897.697 282.001 895.18 287.406 892.354ZM252.006 828H231.182C227.801 814.753 226 800.844 226 786.5C226 778.944 226.5 771.51 227.467 764.229C246.471 741.64 271.426 724.494 299.822 715.369C302.894 725.061 306.822 734.354 311.511 743.153C307.951 741.808 304.144 742.642 300.5 747.5C296.242 753.177 302.811 758.099 306.985 760.478C303.491 758.873 297.735 756.737 294 758C292.786 758.411 291.623 759.075 290.606 759.656C290.398 759.775 290.195 759.891 290 760C266.135 773.338 252 797.718 252 827L252.001 827.477L252.003 827.708L252.006 828ZM325.295 759.192C323.926 755.477 320.677 750.958 318 748C316.454 746.292 314.779 744.834 313.027 743.861C310.932 740.005 308.984 736.052 307.192 732.01C309.283 732.597 317.594 735.232 322.301 741.188C327.118 747.285 329.034 755.323 329.696 759.004C328.217 759.021 326.75 759.084 325.295 759.192ZM330.305 759L330.5 759C331.92 759 333.331 759.042 334.73 759.126C336.112 755.424 339.339 750.94 342 748C347.057 742.412 353.5 739.5 359.5 747.5C363.758 753.177 357.189 758.099 353.015 760.478C356.51 758.873 362.265 756.737 366 758C367.214 758.411 368.377 759.075 369.394 759.656C369.602 759.775 369.805 759.891 370 760C370.819 760.458 371.628 760.929 372.424 761.413C372.805 756.828 373 752.187 373 747.5C373 734.414 371.483 721.692 368.618 709.509C361.55 708.514 354.333 708 347 708C330.918 708 315.396 710.472 300.774 715.066C302.591 720.797 304.708 726.388 307.107 731.818C309.037 731.501 317.413 729.916 321.531 725.64C326.47 720.512 330 709 330 709C330 709 333.53 720.512 338.469 725.64C343.142 730.492 353.296 731.88 353.296 731.88C353.296 731.88 343.113 734.337 337.699 741.188C332.884 747.282 330.967 755.317 330.305 759ZM407.796 820.955C406.078 795.75 393.596 774.694 373.378 762.002C373.79 757.224 374 752.387 374 747.5C374 734.473 372.505 721.803 369.681 709.662C396.528 713.632 421.199 724.544 441.913 740.576C441.971 742.377 442 744.185 442 746C442 774.444 434.852 801.172 422.298 824.402C417.381 823.485 412.543 822.332 407.796 820.955ZM230.151 828C226.79 814.748 225 800.839 225 786.5C225 779.44 225.434 772.486 226.275 765.662C211.579 783.544 200.57 804.737 194.458 828H230.151ZM369.433 708.615C396.326 712.52 421.056 723.343 441.867 739.278C441.248 723.732 438.493 708.752 433.895 694.638C427.986 688.244 421.573 682.342 414.719 677H358.347C363.056 687.01 366.793 697.592 369.433 708.615ZM357.872 676H413.423C392.041 659.686 366.484 648.774 338.69 645.242C346.151 654.678 352.601 664.989 357.872 676ZM337.797 644.124C366.618 647.593 393.079 658.94 415.063 676H426.53C417.215 656.097 404.051 638.448 388.028 624.066C386.524 624.022 385.015 624 383.5 624C364.323 624 345.944 627.537 328.944 634.014C332.029 637.255 334.983 640.628 337.797 644.124ZM433.136 692.365C427.901 686.851 422.288 681.714 416.338 677H426.994C429.287 681.988 431.339 687.115 433.136 692.365ZM498.982 676H427.633C418.42 656.168 405.415 638.546 389.578 624.119C432.758 625.809 471.497 645.439 498.982 676ZM337.274 645.069C344.859 654.539 351.414 664.909 356.764 676H293.388C293.131 672.201 293 668.366 293 664.5C293 660.708 293.126 656.946 293.374 653.219C297.736 650.073 302.259 647.15 306.929 644.464C310.913 644.157 314.939 644 319 644C325.181 644 331.279 644.363 337.274 645.069ZM292 664.5C292 668.366 292.13 672.201 292.386 676H268.018C275.36 667.837 283.505 660.453 292.323 653.983C292.109 657.46 292 660.967 292 664.5ZM292.456 677H267.126C246.543 700.271 232.429 729.741 227.722 762.384C246.715 740.245 271.446 723.435 299.522 714.414C295.817 702.48 293.406 689.951 292.456 677ZM292.408 652.682C283.033 659.485 274.405 667.31 266.677 676H224.577C244.327 660.931 267.638 650.472 292.984 646.179C292.751 648.334 292.559 650.502 292.408 652.682ZM357.242 677H293.459C294.406 689.846 296.801 702.274 300.474 714.111C315.19 709.487 330.813 707 347 707C354.246 707 361.38 707.499 368.369 708.464C365.712 697.489 361.961 686.958 357.242 677ZM327.933 634.403C330.869 637.472 333.686 640.66 336.378 643.959C330.67 643.325 324.872 643 319 643C315.626 643 312.277 643.107 308.955 643.319C315.051 639.933 321.389 636.95 327.933 634.403ZM304.607 644.661C300.79 646.925 297.073 649.348 293.465 651.922C293.612 649.941 293.793 647.97 294.008 646.009C297.504 645.441 301.038 644.991 304.607 644.661ZM473.471 771.394C464.707 759.585 454.414 749.042 442.897 740.073C442.368 724.899 439.816 710.253 435.508 696.411C454.105 717.151 467.472 742.872 473.471 771.394ZM144.5 879C128.1 868.2 134.167 855 139.5 849C134.833 850.167 127.7 855.471 129 865C130.5 876 140 878.333 144.5 879ZM168 824.306V825.699C168 826.694 167.194 827.5 166.199 827.5H165.102C163.378 827.5 162.884 825.148 164.437 824.401C164.749 824.25 165.003 823.994 165.148 823.679C165.82 822.224 168 822.703 168 824.306ZM490 825.699V824.306C490 822.703 492.18 822.224 492.852 823.679C492.997 823.994 493.251 824.25 493.563 824.401C495.116 825.148 494.622 827.5 492.898 827.5H491.801C490.806 827.5 490 826.694 490 825.699ZM413.778 902.858C442.083 888.323 470 846 470 846C470 846 451.65 879.228 422.854 902.712C422.766 902.784 422.674 902.847 422.576 902.902C422.414 902.993 422.24 903.062 422.057 903.105L414.53 904.898C413.587 905.122 412.839 904.101 413.338 903.271C413.444 903.094 413.595 902.952 413.778 902.858Z" fill="#FFA800"/>
<path d="M220.916 387.797C235.857 387.797 247.969 375.685 247.969 360.745C247.969 345.804 235.857 333.693 220.917 333.693C206.719 333.693 195.075 344.63 193.953 358.54C190.079 360.326 185.185 361.188 178.986 360.745C151.917 358.811 144.27 368.86 141.113 379.681C144.27 370.664 156.243 363.207 180.339 376.976C199.274 387.797 216.858 387.797 220.916 387.797Z" fill="#FFA800"/>
<path d="M440.748 253.326C438.115 256.194 432.962 264.571 433.413 275.134C433.843 285.191 439.225 298.874 449.496 314.724C455.563 309.968 458.598 305.54 459.848 301.865C459.879 301.771 459.91 301.679 459.939 301.586C439.982 279.194 440.545 267.177 440.92 259.181C441.024 256.966 441.114 255.059 440.748 253.326Z" fill="#FFA800"/>
<path d="M423.538 389.898C410.599 382.427 406.166 365.883 413.637 352.944C415.666 349.429 424.457 334.201 443.296 323.213C467.269 309.23 466.797 295.132 460.566 287.89C468.359 296.034 473.239 307.681 458.029 330.157C454.547 335.304 452.846 339.973 452.455 344.222C463.94 352.148 467.591 367.7 460.492 379.996C453.021 392.935 436.477 397.368 423.538 389.898Z" fill="#FFA800"/>
<path d="M270.78 421.338C270.78 417.735 270.78 402.127 280.385 385.319C292.607 363.931 285.988 353.303 277.984 350.501C287.589 353.303 296.509 360.091 294.792 384.119C294.399 389.621 295.164 393.965 296.75 397.404C309.096 398.4 318.805 408.735 318.805 421.338C318.805 434.599 308.054 445.35 294.792 445.35C281.531 445.35 270.78 434.599 270.78 421.338Z" fill="#FFA800"/>
<path d="M432.136 405.047C429.403 405.779 422.272 406.284 415.618 402.442C407.3 397.639 397.824 385.237 389.27 366.435C381.838 350.097 373.677 345.9 368.254 343.111C367.436 342.69 366.681 342.302 365.999 341.908C360.8 338.906 337.282 336.419 325.276 357.214C314.892 375.199 318.003 389.568 320.066 399.101C320.389 400.591 320.686 401.962 320.901 403.211C315.438 392.663 307.81 366.816 320.999 347.813C334.189 328.81 332.584 310.139 330.133 303.178C325.671 290.897 318.503 272.895 293.592 248.808C322.627 260.95 387.717 297.446 400.794 353.679C410.303 394.569 421.587 399.8 428.421 402.967C429.884 403.645 431.142 404.229 432.136 405.047Z" fill="#FFA800"/>
<path d="M354.852 472.533C351.732 474.335 338.215 482.138 318.856 482.225C294.222 482.334 288.328 493.381 289.904 501.713C287.527 491.994 288.946 480.875 310.613 470.347C315.574 467.937 318.954 465.103 321.14 462.01C315.829 450.82 319.925 437.244 330.839 430.943C342.324 424.312 357.01 428.247 363.641 439.732C370.272 451.217 366.337 465.902 354.852 472.533Z" fill="#FFA800"/>
<path d="M368.532 250.231V286.25L396.146 263.438L399.748 222.617L368.532 250.231Z" fill="#FFA800"/>
<path d="M566.312 933.667L570.333 926L574.355 933.667L581.667 935.333L573.989 942.667L570.333 958L566.677 942.667L559 935.333L566.312 933.667Z" fill="#FFA800"/>
</g>
<defs>
<filter id="filter0_f_103_287" x="0" y="0" width="657" height="1082" filterUnits="userSpaceOnUse" color-interpolation-filters="sRGB">
<feFlood flood-opacity="0" result="BackgroundImageFix"/>
<feBlend mode="normal" in="SourceGraphic" in2="BackgroundImageFix" result="shape"/>
<feGaussianBlur stdDeviation="24" result="effect1_foregroundBlur_103_287"/>
</filter>
</defs>
</svg>
