<svg width="649" height="1042" viewBox="0 0 649 1042" fill="none" xmlns="http://www.w3.org/2000/svg">
<g style="mix-blend-mode:hard-light" filter="url(#filter0_f_1_641)">
<path fill-rule="evenodd" clip-rule="evenodd" d="M118 48H122V340.42C123.874 338.846 125.88 337.425 128 336.175V48H132V334.085C137.614 331.508 143.861 330.071 150.443 330.071C163.267 330.071 174.816 335.525 182.899 344.239V443.961L188.8 443.286V294.08C196.883 285.365 208.433 279.912 221.256 279.912C234.08 279.912 245.629 285.365 253.712 294.08V342.65C261.695 314.464 285.09 292.753 314.216 287.199L328.95 215L340.653 286.682C374.083 291.7 400.587 317.881 406.088 351.149C390.129 324.39 360.895 306.466 327.475 306.466C297.2 306.466 270.36 321.176 253.712 343.838V405.801C254.677 405.128 255.66 404.471 256.663 403.834C274.859 392.254 280.58 380.919 288.706 364.818L289.119 364.001C295.538 351.288 296.495 344.823 296.495 334.496C303.871 347.773 303.871 383.18 278.792 411.21C265.143 426.464 257.705 436.242 253.712 443.153V470.733C257.705 477.645 265.143 487.423 278.792 502.676C303.871 530.706 303.871 566.113 296.495 579.39C296.495 569.063 295.538 562.598 289.119 549.885L288.706 549.068C280.58 532.967 274.859 521.632 256.663 510.053C255.66 509.415 254.677 508.758 253.712 508.085V560.212H251.346C243.45 552.888 232.876 548.41 221.256 548.41C209.637 548.41 199.063 552.888 191.166 560.212H188.8V470.6L182.899 469.925V610.371H180.533C172.637 603.047 162.063 598.569 150.443 598.569C143.861 598.569 137.614 600.006 132 602.583V614.385C137.603 611.813 143.836 610.377 150.403 610.371H150.483C163.291 610.382 174.825 615.834 182.899 624.539V636.341C174.816 627.627 163.267 622.173 150.443 622.173C143.861 622.173 137.614 623.61 132 626.187V717.359C132.348 716.85 132.676 716.297 132.98 715.695C141.509 714.227 145.812 714.633 146.955 721.391C147.715 725.886 149.921 727.231 150.713 727.576C149.67 727.212 146.068 726.108 144.686 727.681C143.265 729.298 144.686 733.184 144.686 733.184C144.686 733.184 135.853 731.875 129.67 737.509C123.488 743.143 117.063 754.567 117.063 774.064C117.063 774.336 117.053 774.709 117.042 775.159C116.94 779.256 116.678 789.787 121.798 789.787L113.511 810.566L113.511 810.62L113.5 810.593L113.489 810.62L113.489 810.566L105.202 789.787C110.322 789.787 110.06 779.256 109.958 775.159C109.947 774.709 109.937 774.336 109.937 774.064C109.937 754.567 103.512 743.143 97.3298 737.509C91.1474 731.875 82.3139 733.184 82.3139 733.184C82.3139 733.184 83.7347 729.298 82.3139 727.681C80.9323 726.108 77.3305 727.212 76.2871 727.576C77.0789 727.231 79.2852 725.886 80.0451 721.391C81.1878 714.633 85.491 714.227 94.02 715.695C99.5465 726.627 112.876 721.584 113.489 721.345V721.337L113.5 721.341L113.511 721.337V721.345C113.727 721.429 115.523 722.11 118 722.479V636.328L117.988 636.341V624.539L118 624.526V610.371H117.988V462.844H67.8287C59.5672 462.844 57.5018 458.91 57.5018 456.943L117.988 456.943H57.5018C57.5018 454.976 59.5672 451.042 67.8287 451.042H117.988V344.239L118 344.225V48ZM76 727.681C76 727.681 76.1069 727.654 76.2871 727.576C76.1043 727.64 76 727.681 76 727.681ZM151 727.681C151 727.681 150.896 727.64 150.713 727.576C150.893 727.654 151 727.681 151 727.681ZM122 608.918C123.874 607.344 125.88 605.923 128 604.674V616.476C125.88 617.725 123.874 619.146 122 620.72V608.918ZM122 632.522C123.874 630.948 125.88 629.527 128 628.278V721H128.102C126.148 722.12 124.016 722.583 122 722.688V632.522ZM253.712 282.277V270.475C245.629 261.761 234.08 256.307 221.256 256.307C208.433 256.307 196.883 261.761 188.8 270.476V282.278C196.883 273.563 208.433 268.109 221.256 268.109C234.08 268.109 245.629 273.563 253.712 282.277ZM148.174 348.811C148.574 348.288 149.362 348.288 149.762 348.811L160.752 363.163C161.023 363.517 161.027 364.009 160.761 364.367L149.77 379.15C149.371 379.688 148.565 379.688 148.165 379.15L137.175 364.367C136.909 364.009 136.912 363.517 137.184 363.163L148.174 348.811ZM253.712 574.38V586.182C245.629 577.468 234.08 572.014 221.256 572.014C208.433 572.014 196.883 577.468 188.8 586.182V574.38C196.883 565.666 208.433 560.212 221.256 560.212C234.08 560.212 245.629 565.666 253.712 574.38ZM220.575 298.652C220.175 298.129 219.388 298.129 218.987 298.652L207.997 313.004C207.726 313.358 207.722 313.85 207.989 314.208L218.979 328.991C219.379 329.529 220.184 329.529 220.584 328.991L231.574 314.208C231.84 313.85 231.837 313.358 231.565 313.004L220.575 298.652ZM404.189 645.777V633.975C412.272 642.689 423.822 648.143 436.645 648.143C449.468 648.143 461.018 642.689 469.101 633.975V645.777C461.018 654.492 449.468 659.945 436.645 659.945C423.822 659.945 412.272 654.492 404.189 645.777ZM404.189 330.07V341.872C412.256 350.569 423.776 356.019 436.568 356.041H436.722C449.515 356.019 461.034 350.57 469.101 341.873V330.071C461.018 338.785 449.469 344.239 436.645 344.239C423.822 344.239 412.272 338.785 404.189 330.07ZM404.189 568.286V622.173C412.272 630.887 423.822 636.341 436.645 636.341C449.468 636.341 461.018 630.887 469.101 622.173L469.101 470.583L475.002 469.908V569.063C483.085 577.778 494.635 583.231 507.458 583.231C514.079 583.231 520.36 581.778 526 579.172V590.974C520.36 593.58 514.079 595.034 507.458 595.034C494.635 595.034 483.085 589.58 475.002 580.865V592.667C483.072 601.368 494.599 606.818 507.398 606.835H507.519C514.117 606.827 520.377 605.374 526 602.776V717.359C525.652 716.85 525.324 716.297 525.02 715.695C516.491 714.227 512.188 714.633 511.045 721.391C510.285 725.886 508.079 727.231 507.287 727.576C507.104 727.64 507 727.681 507 727.681L507.007 727.679L507.026 727.673C507.043 727.668 507.067 727.661 507.098 727.65C507.145 727.634 507.209 727.61 507.287 727.576C508.33 727.212 511.932 726.108 513.314 727.681C514.735 729.298 513.314 733.184 513.314 733.184C513.314 733.184 522.147 731.875 528.33 737.509C534.512 743.143 540.938 754.567 540.938 774.064C540.938 774.336 540.947 774.707 540.958 775.155L540.958 775.157V775.159C541.06 779.256 541.322 789.787 536.202 789.787L544.489 810.566L544.489 810.62L544.5 810.593L544.511 810.62L544.511 810.566L552.798 789.787C547.678 789.787 547.94 779.256 548.042 775.159V775.157L548.042 775.155L548.042 775.146L548.046 774.989L548.053 774.696L548.056 774.567C548.06 774.374 548.062 774.206 548.062 774.064C548.062 754.567 554.488 743.143 560.67 737.509C566.853 731.875 575.686 733.184 575.686 733.184C575.686 733.184 574.265 729.298 575.686 727.681C577.068 726.108 580.67 727.212 581.713 727.576C581.893 727.654 582 727.681 582 727.681C582 727.681 581.896 727.64 581.713 727.576C580.921 727.231 578.715 725.886 577.955 721.391C576.812 714.633 572.509 714.227 563.98 715.695C558.453 726.627 545.124 721.584 544.511 721.345V721.337L544.5 721.341L544.489 721.337V721.345C544.273 721.429 542.477 722.11 540 722.479V462.844H589.922C598.184 462.844 600.249 458.91 600.249 456.943C600.249 454.976 598.184 451.042 589.922 451.042H540V48H536V280.698C534.127 282.28 532.12 283.709 530 284.966V48H526V287.07C520.36 289.675 514.079 291.129 507.458 291.129C494.635 291.129 483.085 285.675 475.002 276.961V288.763C483.067 297.458 494.583 302.907 507.372 302.931H507.545C514.134 302.919 520.385 301.466 526 298.872V310.673C520.36 313.279 514.079 314.733 507.458 314.733C495.838 314.733 485.265 310.255 477.368 302.931H475.002L475.002 443.978L469.101 443.304V356.041H466.735C458.839 363.365 448.265 367.843 436.645 367.843C425.025 367.843 414.452 363.365 406.555 356.041H404.189V405.906C403.177 405.197 402.143 404.505 401.088 403.834C382.892 392.254 377.171 380.919 369.045 364.818L368.632 364.001C362.213 351.288 361.256 344.823 361.256 334.496C353.88 347.773 353.88 383.18 378.959 411.21C392.781 426.658 400.234 436.489 404.189 443.415V470.471C400.234 477.397 392.781 487.229 378.959 502.676C353.88 530.706 353.88 566.113 361.256 579.39C361.256 569.063 362.213 562.598 368.632 549.885L369.045 549.068C377.171 532.967 382.892 521.632 401.088 510.053C402.143 509.382 403.177 508.69 404.189 507.98V562.834C387.875 587.898 359.611 604.47 327.476 604.47C296.89 604.47 269.81 589.458 253.204 566.399C260.66 595.501 284.444 618.06 314.216 623.738L328.951 695.936L340.654 624.254C371.18 619.673 395.931 597.444 404.189 568.286ZM536 292.5C534.127 294.082 532.12 295.511 530 296.769V308.57C532.12 307.313 534.127 305.883 536 304.301V292.5ZM536 572.8C534.127 574.382 532.12 575.811 530 577.069V588.871C532.12 587.614 534.127 586.184 536 584.602V572.8ZM536 596.404C534.127 597.986 532.12 599.415 530 600.673V721.058C531.926 722.136 534.019 722.585 536 722.688V596.404ZM449.904 603.249L438.914 617.601C438.514 618.124 437.727 618.124 437.326 617.601L426.336 603.249C426.065 602.895 426.061 602.403 426.328 602.045L437.318 587.261C437.718 586.724 438.523 586.724 438.923 587.261L449.913 602.045C450.179 602.403 450.176 602.895 449.904 603.249ZM508.14 564.492C508.54 565.014 509.327 565.014 509.728 564.492L520.718 550.14C520.989 549.785 520.993 549.293 520.726 548.935L509.736 534.152C509.336 533.614 508.531 533.614 508.131 534.152L497.141 548.935C496.875 549.293 496.878 549.785 497.15 550.14L508.14 564.492ZM327.476 400.883V350.724C327.476 350.724 332.409 376.441 340.753 390.556C343.26 394.797 345.925 397.587 348.584 400.37C351.461 403.382 354.33 406.385 356.981 411.21C359.33 415.485 360.079 419.367 360.802 423.121C361.655 427.543 362.473 431.788 365.833 436.29C371.485 443.862 385.011 451.042 385.011 451.042C385.011 451.042 371.485 458.222 365.833 465.795C362.3 470.528 361.383 474.964 360.419 479.63C359.688 483.169 358.93 486.84 356.981 490.874C354.342 496.338 351.513 500.103 348.649 503.915C346.007 507.431 343.334 510.987 340.753 515.954C333.944 529.058 327.476 551.36 327.476 551.36V504.152C327.476 504.152 349.605 480.547 349.605 452.517C349.605 424.487 327.476 400.883 327.476 400.883ZM327.476 400.883V350.724C327.476 350.724 322.542 376.441 314.198 390.556C311.692 394.797 309.026 397.587 306.368 400.37C303.491 403.382 300.622 406.385 297.97 411.21C295.621 415.485 294.873 419.367 294.149 423.121C293.297 427.543 292.479 431.788 289.119 436.29C283.467 443.862 269.94 451.042 269.94 451.042C269.94 451.042 283.467 458.222 289.119 465.795C292.652 470.528 293.568 474.964 294.532 479.63C295.263 483.169 296.022 486.84 297.97 490.874C300.609 496.339 303.438 500.103 306.303 503.915C308.945 507.431 311.617 510.987 314.198 515.954C321.007 529.058 327.476 551.36 327.476 551.36V504.152C327.476 504.152 305.347 480.548 305.347 452.517C305.347 424.487 327.476 400.883 327.476 400.883ZM327.476 406.784V487.924C327.476 487.924 309.568 461.067 311.248 442.191C312.596 427.04 327.476 406.784 327.476 406.784ZM321.531 725.64C326.47 720.512 330 709 330 709C330 709 333.53 720.512 338.469 725.64C343.142 730.492 353.296 731.88 353.296 731.88C353.296 731.88 343.113 734.337 337.699 741.188C331.248 749.352 330 761 330 761C330 761 328.752 749.352 322.301 741.188C316.887 734.337 306.704 731.88 306.704 731.88C306.704 731.88 316.858 730.492 321.531 725.64ZM265 827C265 862.899 294.101 892 330 892C365.899 892 395 862.899 395 827C395 801.899 375.992 780.814 353.5 770.226C348.773 768 344 766.5 337 765.5C330 764.5 337 753.525 342 748C347.057 742.411 353.5 739.5 359.5 747.5C363.758 753.177 357.189 758.099 353.015 760.478C356.509 758.873 362.265 756.737 366 758C367.214 758.411 368.377 759.075 369.394 759.656C369.602 759.775 369.805 759.891 370 760C393.865 773.338 408 797.718 408 827C408 850.985 397.175 872.441 380.143 886.749C399.822 880.369 423.788 869.615 449.5 851.5C515.5 805 521.5 737 521.5 737L527.5 744C527.194 749.66 525.344 762.451 520.403 771.629C523.986 765.445 529.45 755.099 530.5 749.5C533.833 752.833 539.7 763 536.5 777C530.667 776.833 519 781.6 519 802C519 822.4 534.667 837.5 542.5 842.5C545.333 844.5 551 849.6 551 858C551 866.4 544 868.833 540.5 868.5C539.5 878.667 530.7 895.4 503.5 881C489 881.5 460 891.9 460 929.5C436.167 926.167 389.5 920 357.5 946.5C337.14 963.36 332.196 981.987 329.591 991.805C329.381 992.595 329.186 993.329 329 994C328.814 993.329 328.619 992.595 328.409 991.805C325.804 981.987 320.86 963.36 300.5 946.5C268.5 920 221.833 926.167 198 929.5C198 891.9 169 881.5 154.5 881C127.3 895.4 118.5 878.667 117.5 868.5C114 868.833 107 866.4 107 858C107 849.6 112.667 844.5 115.5 842.5C123.333 837.5 139 822.4 139 802C139 781.6 127.333 776.833 121.5 777C118.3 763 124.167 752.833 127.5 749.5C128.55 755.099 134.014 765.445 137.597 771.629C132.656 762.451 130.806 749.66 130.5 744L136.5 737C136.5 737 142.5 805 208.5 851.5C235.643 870.623 260.841 881.544 281.103 887.774C263.355 873.477 252 851.565 252 827C252 797.718 266.135 773.338 290 760C290.102 759.943 290.205 759.884 290.311 759.825C290.408 759.769 290.506 759.713 290.606 759.656C291.623 759.075 292.786 758.411 294 758C297.735 756.737 303.491 758.873 306.985 760.478C302.811 758.099 296.242 753.177 300.5 747.5C306.5 739.5 312.943 742.411 318 748C323 753.525 330 764.5 323 765.5C316 766.5 311.227 768 306.5 770.226C284.008 780.814 265 801.899 265 827ZM329 941.5C331.833 934.167 347.45 918 357.5 918C361.5 918 357.5 922.5 357.5 922.5L350.068 930.807C353.853 926.747 367.595 913.397 389.5 907.5C419.426 899.443 439.653 874.339 449.5 859C438.812 868.091 411.881 883.882 373.791 891.557C361.307 900.042 346.232 905 330 905C314.121 905 299.35 900.255 287.028 892.106C247.448 884.659 219.449 868.313 208.5 859C218.347 874.339 238.574 899.443 268.5 907.5C290.405 913.397 304.147 926.747 307.932 930.807L300.5 922.5C300.5 922.5 296.5 918 300.5 918C310.55 918 326.167 934.167 329 941.5ZM345.848 866.278C359.818 860.167 369.579 846.223 369.579 830C369.579 814.058 360.153 800.317 346.571 794.047L344.822 795.68C344.822 795.68 341.755 790.909 339.711 792.817C337.692 794.702 337.667 798.449 337.667 798.541V862.459C337.667 862.551 337.692 866.298 339.711 868.183C339.77 868.238 339.831 868.288 339.892 868.333C341.005 868.046 342.1 867.713 343.173 867.334C344.124 866.406 344.822 865.32 344.822 865.32L345.848 866.278ZM315.52 866.847C300.824 861.067 290.421 846.748 290.421 830C290.421 813.537 300.473 799.422 314.773 793.456L317.155 795.68C317.155 795.68 320.222 790.909 322.266 792.817C324.274 794.692 324.31 798.408 324.31 798.539V862.461C324.31 862.592 324.274 866.308 322.266 868.183C321.971 868.458 321.655 868.595 321.33 868.626C321.182 868.593 321.035 868.56 320.889 868.525C320.63 868.464 320.373 868.401 320.117 868.335C318.569 867.521 317.155 865.32 317.155 865.32L315.52 866.847ZM330 878C356.51 878 378 856.51 378 830C378 803.49 356.51 782 330 782C303.49 782 282 803.49 282 830C282 856.51 303.49 878 330 878ZM113.5 795.155C113.505 786.317 113.511 775.231 113.511 766.203C113.511 760.699 115.867 753.782 118.641 747.335C121.415 740.887 127.323 733.184 127.323 733.184C127.323 733.184 122.96 732.291 120.417 733.184C116.363 734.606 113.773 741.671 113.511 742.411V742.474L113.5 742.442L113.489 742.474V742.411C113.227 741.671 110.637 734.606 106.583 733.184C104.04 732.291 99.6773 733.184 99.6773 733.184C99.6773 733.184 105.585 740.887 108.359 747.335C111.133 753.782 113.489 760.699 113.489 766.203C113.489 775.231 113.495 786.317 113.5 795.155ZM113.5 728.568C113.491 728.523 113.489 728.499 113.489 728.499V728.618C113.368 729.126 112.601 731.1 107.995 731.484C106.839 731.581 105.716 731.716 104.596 731.85H104.596C100.582 732.331 96.6212 732.807 91.4457 731.484C87.3578 730.44 86.6548 728.074 86.6548 728.074C87.1858 722.935 95.4122 721.374 99.6773 724.891C111.154 734.354 113.333 728.853 113.5 728.36C113.667 728.853 115.846 734.354 127.323 724.891C131.588 721.374 139.814 722.935 140.345 728.074C140.345 728.074 139.642 730.44 135.554 731.484C130.379 732.807 126.418 732.331 122.404 731.85H122.404C121.284 731.716 120.161 731.581 119.005 731.484C114.399 731.1 113.632 729.126 113.511 728.618V728.499C113.511 728.499 113.51 728.508 113.508 728.525C113.506 728.536 113.504 728.55 113.5 728.568ZM152 806.5C157.667 811.667 163.8 824.8 143 836C122.2 847.2 121.333 856.167 123 860C120.5 856.833 118 848.8 132 836C133.018 835.069 133.985 834.188 134.904 833.35L134.922 833.334L135.032 833.233L135.034 833.231C149.795 819.778 152 817.769 152 806.5ZM144.5 879C128.1 868.2 134.167 855 139.5 849C134.833 850.167 127.7 855.471 129 865C130.5 876 140 878.333 144.5 879ZM168 824.306V825.699C168 826.694 167.194 827.5 166.199 827.5H165.102C163.378 827.5 162.884 825.149 164.436 824.401C164.749 824.25 165.003 823.994 165.148 823.679C165.82 822.224 168 822.703 168 824.306ZM226.231 911.007C223.486 915.861 218.087 916.903 215.449 917.413C215.288 917.444 215.139 917.473 215 917.5C230.41 917.5 234.077 910.437 234.049 906.266C234.046 905.813 233.689 905.461 233.245 905.375C223.315 903.451 212.489 890.488 200.727 876.404C198.68 873.953 196.604 871.467 194.5 869C190.292 864.067 186.618 858.932 183.3 854.294L183.299 854.293C173.838 841.07 167.274 831.895 159.5 843C147.786 859.734 145.5 880 178 875.5C193.716 873.324 218.335 898.322 226.192 910.034C226.39 910.329 226.405 910.698 226.231 911.007ZM327.476 487.924C327.476 487.924 345.384 461.067 343.704 442.191C342.355 427.04 327.476 406.784 327.476 406.784V487.924ZM188 846C188 846 215.917 888.323 244.222 902.858C244.405 902.952 244.556 903.094 244.662 903.27C245.161 904.101 244.413 905.122 243.471 904.898L235.943 903.105C235.651 903.036 235.379 902.902 235.146 902.713C206.35 879.228 188 846 188 846ZM544.511 766.203C544.511 775.235 544.505 786.327 544.5 795.167C544.495 786.327 544.489 775.235 544.489 766.203C544.489 760.699 542.133 753.782 539.359 747.335C536.585 740.887 530.677 733.184 530.677 733.184C530.677 733.184 535.04 732.291 537.583 733.184C541.637 734.606 544.227 741.671 544.489 742.411V742.474L544.5 742.442L544.511 742.474V742.411C544.773 741.671 547.363 734.606 551.417 733.184C553.96 732.291 558.323 733.184 558.323 733.184C558.323 733.184 552.415 740.887 549.641 747.335C546.867 753.782 544.511 760.699 544.511 766.203ZM538.995 731.484C543.601 731.1 544.368 729.126 544.489 728.618V728.499C544.489 728.499 544.49 728.507 544.492 728.523C544.494 728.534 544.496 728.549 544.5 728.568C544.509 728.523 544.511 728.499 544.511 728.499V728.618C544.632 729.126 545.399 731.1 550.005 731.484C551.161 731.581 552.284 731.716 553.404 731.85H553.404C557.418 732.331 561.379 732.807 566.554 731.484C570.642 730.44 571.345 728.074 571.345 728.074C570.814 722.935 562.588 721.374 558.323 724.891C546.846 734.354 544.667 728.853 544.5 728.36C544.333 728.853 542.154 734.354 530.677 724.891C526.412 721.374 518.186 722.935 517.655 728.074C517.655 728.074 518.358 730.44 522.446 731.484C527.621 732.807 531.582 732.331 535.596 731.85H535.596C536.716 731.716 537.839 731.581 538.995 731.484ZM515 836C494.2 824.8 500.333 811.667 506 806.5C506 817.769 508.205 819.778 522.966 833.231L523.006 833.268C523.952 834.13 524.949 835.039 526 836C540 848.8 537.5 856.833 535 860C536.667 856.167 535.8 847.2 515 836ZM518.5 849C523.833 855 529.9 868.2 513.5 879C518 878.333 527.5 876 529 865C530.3 855.471 523.167 850.167 518.5 849ZM490 825.699V824.306C490 822.703 492.18 822.224 492.852 823.679C492.997 823.994 493.251 824.25 493.564 824.401C495.116 825.149 494.622 827.5 492.898 827.5H491.801C490.806 827.5 490 826.694 490 825.699ZM442.551 917.413C439.913 916.903 434.514 915.861 431.769 911.007C431.595 910.698 431.61 910.329 431.808 910.034C439.665 898.322 464.284 873.324 480 875.5C512.5 880 510.214 859.734 498.5 843C490.726 831.895 484.162 841.07 474.701 854.293L474.7 854.294C471.382 858.932 467.708 864.067 463.5 869C461.396 871.467 459.32 873.953 457.273 876.404C445.511 890.488 434.685 903.451 424.755 905.375C424.311 905.461 423.954 905.813 423.951 906.266C423.923 910.437 427.59 917.5 443 917.5C442.91 917.482 442.816 917.464 442.717 917.445L442.551 917.413ZM413.778 902.858C442.083 888.323 470 846 470 846C470 846 451.65 879.228 422.854 902.713C422.621 902.902 422.349 903.036 422.057 903.105L414.529 904.898C413.587 905.122 412.839 904.101 413.338 903.27C413.444 903.094 413.595 902.952 413.778 902.858ZM65 787L58.9677 798.5L48 801L59.5161 812L65 835L70.4839 812L82 801L71.0323 798.5L65 787ZM566.312 933.667L570.333 926L574.355 933.667L581.667 935.333L573.989 942.667L570.333 958L566.677 942.667L559 935.333L566.312 933.667Z" fill="#36B6FF"/>
</g>
<defs>
<filter id="filter0_f_1_641" x="0" y="0" width="648.249" height="1042" filterUnits="userSpaceOnUse" color-interpolation-filters="sRGB">
<feFlood flood-opacity="0" result="BackgroundImageFix"/>
<feBlend mode="normal" in="SourceGraphic" in2="BackgroundImageFix" result="shape"/>
<feGaussianBlur stdDeviation="24" result="effect1_foregroundBlur_1_641"/>
</filter>
</defs>
</svg>
