<svg width="685" height="1042" viewBox="0 0 685 1042" fill="none" xmlns="http://www.w3.org/2000/svg">
<g style="mix-blend-mode:hard-light" filter="url(#filter0_f_62_1040)">
<path fill-rule="evenodd" clip-rule="evenodd" d="M138 48H142V300.74C143.883 300.708 145.892 300.702 148 300.729V48H152V300.818C168.169 301.327 188.842 303.764 204.493 310.363L175.305 250.981C175.09 250.543 175.216 250.109 175.497 249.832C175.595 249.735 175.712 249.657 175.841 249.605C175.936 249.567 176.037 249.543 176.141 249.536C176.362 249.521 176.596 249.582 176.81 249.746L250.37 305.998L210.682 225.253C210.216 224.305 211.347 223.376 212.187 224.018L289.904 283.449C290.385 283.816 290.432 284.521 290.033 284.976C286.281 289.239 281.185 298.658 285.988 308.263C290.79 317.868 302.503 317.948 308.837 316.609C309.482 316.473 310.108 316.953 310.108 317.612V333.641C310.108 333.868 310.185 334.088 310.327 334.265L333.424 363.186L356.522 334.265C356.664 334.088 356.741 333.868 356.741 333.641V317.612C356.741 316.953 357.367 316.473 358.012 316.609C364.346 317.948 376.059 317.868 380.861 308.263C385.664 298.658 380.567 289.239 376.816 284.976C376.74 284.89 376.681 284.794 376.637 284.694C376.568 284.538 376.539 284.37 376.548 284.204C376.564 283.917 376.697 283.638 376.944 283.449L454.662 224.018C455.501 223.376 456.633 224.305 456.167 225.253L416.479 305.998L490.039 249.746C490.878 249.104 492.01 250.033 491.543 250.981L447.351 340.891C447.065 341.472 446.31 341.63 445.785 341.25C438.328 335.841 428.75 337.221 424.516 338.729C424.356 338.785 424.219 338.883 424.111 339.012C417.033 347.494 417.735 361.2 419.17 368.121C419.302 368.758 418.824 369.368 418.173 369.368H405.463C405.273 369.368 405.089 369.422 404.932 369.521C404.837 369.58 404.752 369.655 404.681 369.745L393.514 383.75C400.631 395.6 408.475 412.315 411.236 429.994C411.292 430.355 411.528 430.639 411.832 430.768C411.915 430.803 412.003 430.827 412.094 430.837C412.237 430.854 412.387 430.837 412.535 430.781C421.027 427.593 438.083 417.523 446.715 399.18L446.743 399.125C446.759 399.095 446.777 399.065 446.796 399.037C446.811 399.016 446.825 398.996 446.841 398.977C446.863 398.949 446.886 398.923 446.912 398.898C451.729 394.149 464.075 385.884 476.573 389.155C477.024 389.273 477.322 389.701 477.282 390.166C476.606 398.119 473.222 414.205 464.4 423.292C463.812 423.898 464.119 424.968 464.944 425.143C471.748 426.582 483.442 430.332 489.5 436.812C489.895 437.234 489.811 437.9 489.343 438.24L473.623 449.672C473.076 450.07 472.284 449.826 471.93 449.25C469.849 445.861 463.192 440.828 448.398 440.828C433.894 440.828 420.761 454.535 414.034 464.118L436.294 491.989L449.719 479.683C449.904 479.514 450.145 479.42 450.395 479.42H468.339C469.251 479.42 469.688 480.541 469.015 481.158L445.13 503.052L501.163 573.211C501.263 573.337 501.391 573.435 501.535 573.5C501.662 573.557 501.801 573.587 501.944 573.587H515.458C515.76 573.587 516.045 573.724 516.235 573.958L546 610.773V485.583L522.656 463.612C522.471 463.438 522.225 463.34 521.971 463.34H520.151C520.119 463.34 520.086 463.341 520.055 463.344C519.984 463.351 519.916 463.365 519.85 463.386C519.745 463.419 519.647 463.469 519.561 463.533C519.514 463.567 519.471 463.605 519.431 463.646C519.388 463.69 519.35 463.739 519.316 463.79C519.299 463.815 519.284 463.841 519.27 463.868C519.255 463.895 519.242 463.921 519.23 463.949C519.205 464.011 519.185 464.075 519.171 464.142C519.158 464.206 519.151 464.272 519.151 464.34V466.164C519.151 466.416 519.247 466.659 519.418 466.844L539.4 488.362C539.766 488.756 539.754 489.37 539.374 489.75L534.215 494.909C534.091 495.033 533.941 495.119 533.781 495.164C533.5 495.244 533.19 495.199 532.937 495.023L496.896 469.951C496.729 469.834 496.529 469.772 496.325 469.772H484.125C483.956 469.772 483.79 469.815 483.643 469.896C483.593 469.923 483.545 469.955 483.5 469.991L476.008 475.985C475.921 476.055 475.824 476.109 475.721 476.146C475.613 476.184 475.5 476.204 475.384 476.204H457.438C456.886 476.204 456.438 475.756 456.438 475.204V470.279C456.438 469.96 456.59 469.661 456.847 469.473L504.415 434.589C504.507 434.521 504.61 434.47 504.719 434.438C504.812 434.41 504.908 434.396 505.006 434.396H518.737C519.002 434.396 519.256 434.501 519.444 434.688L546 461.245V367.806C532.988 390.204 509.908 400.91 491.61 409.396C489.357 410.441 487.177 411.452 485.097 412.448C482.649 413.619 480.34 414.769 478.214 415.925C477.265 416.441 475.953 415.15 476.404 414.167C479.865 406.635 481.598 396.626 482.117 391.498C482.149 391.172 482.337 390.882 482.622 390.721L483.575 390.182C499.962 380.916 528.799 364.609 528.799 342.738C528.799 321.772 506.287 323.442 480.559 328.266C460.066 332.108 461.251 324.581 464.436 320.283C464.464 320.245 464.495 320.209 464.528 320.176C481.976 302.805 524.792 300.031 546 300.835V48H550V299.57L556 295.284V48H560V292.427L592.702 269.068C592.964 268.88 593.12 268.578 593.12 268.254V244.916C593.12 244.741 593.166 244.569 593.253 244.417L629.893 180.696C629.924 180.643 629.96 180.592 630 180.545C630.032 180.508 630.066 180.473 630.104 180.44C630.168 180.384 630.24 180.336 630.317 180.298C630.38 180.267 630.447 180.242 630.517 180.225L635.294 179.03C635.658 178.939 636.015 179.06 636.252 179.302C636.32 179.371 636.378 179.45 636.423 179.536C636.438 179.564 636.452 179.593 636.464 179.623C636.477 179.655 636.488 179.688 636.498 179.722L636.514 179.786L636.524 179.836C636.529 179.87 636.533 179.904 636.535 179.939L636.537 180V210.56C636.537 210.68 636.516 210.799 636.474 210.91C636.459 210.95 636.441 210.989 636.421 211.027C636.4 211.066 636.377 211.104 636.351 211.141L604.562 255.644C604.441 255.814 604.376 256.017 604.376 256.226V260.798C604.376 261.522 605.121 262.006 605.783 261.712L617.761 256.388C618.329 256.136 618.987 256.457 619.137 257.06L621.909 268.146C622.004 268.526 621.869 268.926 621.563 269.17L606.283 281.394C606.241 281.428 606.202 281.465 606.167 281.504C606.122 281.554 606.082 281.607 606.048 281.664C605.985 281.77 605.942 281.887 605.921 282.011L604.443 290.88C604.4 291.137 604.259 291.368 604.048 291.522L560 323.824V472.988H563.825C564.052 472.988 564.272 472.911 564.45 472.769L571.716 466.956C572.021 466.712 572.439 466.668 572.788 466.842L578.095 469.496C578.434 469.665 578.648 470.011 578.648 470.39V475.695C578.648 475.849 578.613 475.998 578.548 476.132C578.514 476.203 578.471 476.269 578.421 476.33C578.392 476.365 578.361 476.398 578.328 476.429C578.299 476.456 578.269 476.48 578.236 476.504L561.223 488.877C561.182 488.907 561.138 488.934 561.093 488.957C561.033 488.988 560.97 489.013 560.905 489.031C560.856 489.044 560.807 489.055 560.756 489.061C560.716 489.066 560.675 489.068 560.635 489.068H560V628.089L575.139 646.813C575.745 647.562 575.035 648.717 574.087 648.547C570.814 647.961 565.297 647.258 560 647.9V722.479C562.477 722.11 564.272 721.43 564.489 721.345V721.336L564.5 721.341L564.511 721.336V721.345C565.125 721.584 578.454 726.627 583.98 715.695C592.509 714.227 596.812 714.633 597.955 721.392C598.715 725.886 600.921 727.231 601.713 727.576C600.669 727.211 597.067 726.108 595.686 727.681C594.265 729.298 595.686 733.184 595.686 733.184C595.686 733.184 586.853 731.875 580.67 737.509C574.488 743.144 568.062 754.567 568.062 774.064C568.062 774.336 568.053 774.709 568.042 775.159C567.94 779.256 567.678 789.787 572.798 789.787L564.511 810.565V810.621L564.5 810.593L564.489 810.621V810.565L556.202 789.787C561.322 789.787 561.06 779.255 560.958 775.158C560.947 774.708 560.938 774.336 560.938 774.064C560.938 754.567 554.512 743.144 548.33 737.509C542.147 731.875 533.314 733.184 533.314 733.184C533.314 733.184 534.734 729.298 533.314 727.681C531.932 726.108 528.331 727.211 527.287 727.576C528.079 727.231 530.285 725.886 531.045 721.392C532.188 714.633 536.491 714.227 545.02 715.695C545.324 716.297 545.652 716.85 546 717.358V657.192C543.717 662.008 543.224 667.737 543.174 671.345C543.16 672.354 541.754 672.854 541.151 672.044L487.188 599.582C487.06 599.409 486.991 599.199 486.991 598.984V581.977C486.991 581.846 486.965 581.717 486.916 581.598C486.901 581.56 486.883 581.523 486.863 581.488C486.837 581.441 486.807 581.396 486.772 581.354L433.12 514.061L432.642 514.5C432.436 514.689 432.318 514.957 432.318 515.237V536.895C432.318 537.16 432.212 537.415 432.025 537.602L423.56 546.067L465.786 598.939C465.855 599.026 465.937 599.099 466.028 599.157C466.099 599.203 466.175 599.239 466.255 599.265C466.296 599.278 466.337 599.289 466.38 599.297C466.406 599.303 466.433 599.307 466.459 599.31C466.496 599.313 466.532 599.315 466.568 599.315H480.082C480.383 599.315 480.669 599.452 480.859 599.687L539.762 672.541C540.368 673.291 539.659 674.445 538.71 674.275C533.495 673.342 522.578 672.111 515.936 676.501C508.986 681.093 507.874 691.56 507.797 697.073C507.784 698.083 506.377 698.583 505.774 697.773L451.812 625.31C451.684 625.137 451.614 624.928 451.614 624.712V607.706C451.614 607.575 451.589 607.447 451.54 607.328C451.504 607.24 451.456 607.157 451.396 607.082L411.969 557.631C411.896 557.679 411.819 557.717 411.74 557.745C411.661 557.772 411.579 557.789 411.496 557.796C411.306 557.812 411.113 557.773 410.94 557.681C410.9 557.659 410.861 557.635 410.824 557.607L410.776 557.57L410.75 557.547L410.707 557.506L406.882 553.683C406.695 553.495 406.589 553.241 406.589 552.975V550.884L401.765 544.833V591.568C401.765 591.833 401.66 592.087 401.473 592.275L374.587 619.161C374.483 619.265 374.403 619.39 374.353 619.529L360.013 659.363C359.976 659.466 359.921 659.563 359.853 659.649L347.393 675.224C347.203 675.461 346.916 675.599 346.612 675.599H343.269C342.716 675.599 342.269 675.152 342.269 674.599C342.269 675.152 341.821 675.599 341.269 675.599H337.925C337.621 675.599 337.334 675.461 337.144 675.224L324.684 659.649C324.615 659.563 324.561 659.466 324.524 659.363L310.184 619.529C310.134 619.39 310.054 619.265 309.95 619.161L283.064 592.275C282.94 592.151 282.853 591.998 282.807 591.832C282.784 591.747 282.771 591.658 282.771 591.568V544.741C282.771 544.189 283.219 543.741 283.771 543.741H291.934C292.241 543.741 292.53 543.882 292.72 544.124L309.808 565.872C309.998 566.113 310.287 566.254 310.594 566.254H322.558C322.666 566.254 322.771 566.271 322.871 566.304C323.018 566.353 323.153 566.435 323.265 566.546L341.976 585.257C342.163 585.445 342.269 585.699 342.269 585.964C342.269 585.699 342.374 585.445 342.562 585.257L361.272 566.546C361.374 566.444 361.496 566.367 361.628 566.317C361.668 566.302 361.71 566.29 361.753 566.28C361.827 566.263 361.902 566.254 361.979 566.254H373.943C374.25 566.254 374.54 566.113 374.729 565.872L391.817 544.124C392.006 543.882 392.296 543.741 392.603 543.741H400.765C400.812 543.741 400.857 543.744 400.902 543.75L395.574 537.068L369.897 562.745C369.71 562.932 369.456 563.038 369.19 563.038H356.133C355.947 563.038 355.772 562.987 355.624 562.898C355.597 562.882 355.571 562.865 355.545 562.847C355.49 562.807 355.438 562.761 355.393 562.71C355.371 562.687 355.351 562.662 355.332 562.637C355.266 562.548 355.214 562.449 355.18 562.341C355.166 562.297 355.155 562.251 355.147 562.204C355.138 562.15 355.133 562.094 355.133 562.038V557.02C355.133 556.754 355.238 556.5 355.425 556.312L386.301 525.438L373.206 509.014C373.454 513.273 373.885 516.72 374.329 519.104C374.391 519.433 374.287 519.763 374.05 520L363.466 530.584C363.396 530.654 363.338 530.733 363.292 530.819C363.214 530.963 363.173 531.125 363.173 531.292V544.935C363.173 545.2 363.067 545.455 362.88 545.642L343.976 564.546C343.346 565.177 342.269 564.73 342.269 563.839C342.269 564.289 341.995 564.625 341.643 564.767C341.623 564.775 341.602 564.783 341.581 564.79L341.529 564.806C341.431 564.832 341.329 564.844 341.227 564.841C341.139 564.837 341.05 564.822 340.963 564.794C340.82 564.749 340.683 564.667 340.562 564.546L321.657 545.642C321.47 545.455 321.364 545.2 321.364 544.935V531.292C321.364 531.026 321.259 530.772 321.071 530.584L310.486 520C310.25 519.763 310.146 519.433 310.208 519.104C311.264 513.431 312.248 501.735 310.868 487.409L305.37 494.304C305.474 500.883 304.849 506.347 304.026 510.119C303.873 510.82 303.049 511.09 302.5 510.628C300.564 508.996 298.667 507.089 296.835 505.01L288.395 515.596L329.111 556.312C329.299 556.5 329.404 556.754 329.404 557.02V562.038C329.404 562.297 329.305 562.534 329.143 562.712L329.107 562.749L329.07 562.784L329.027 562.819L328.979 562.856C328.933 562.888 328.884 562.917 328.833 562.941C328.703 563.003 328.558 563.038 328.404 563.038H315.346C315.208 563.038 315.072 563.009 314.948 562.955L314.896 562.931L314.865 562.914C314.832 562.896 314.8 562.876 314.77 562.854C314.746 562.838 314.723 562.82 314.701 562.802C314.68 562.784 314.659 562.765 314.639 562.745L286.281 534.386C286.093 534.199 285.839 534.093 285.573 534.093H278.948C278.395 534.093 277.948 534.541 277.948 535.093V552.975C277.948 553.241 277.842 553.495 277.655 553.683L273.831 557.506C273.663 557.674 273.45 557.77 273.23 557.793C272.94 557.825 272.639 557.729 272.417 557.506L262.714 547.804L215.453 607.082C215.386 607.166 215.334 607.258 215.297 607.356C215.281 607.4 215.267 607.446 215.257 607.492C215.252 607.518 215.247 607.543 215.244 607.57C215.237 607.615 215.234 607.66 215.234 607.706V624.712C215.234 624.858 215.203 625 215.143 625.131C215.114 625.194 215.078 625.254 215.037 625.31L161.075 697.773C160.472 698.583 159.065 698.083 159.051 697.073C158.979 691.86 157.981 682.221 152 677.304V717.359C152.156 717.131 152.308 716.895 152.455 716.648C152.637 716.345 152.812 716.027 152.98 715.695C161.509 714.227 165.812 714.633 166.955 721.392C167.715 725.886 169.921 727.231 170.713 727.576C169.669 727.211 166.067 726.108 164.686 727.681C163.265 729.298 164.686 733.184 164.686 733.184C164.686 733.184 155.853 731.875 149.67 737.509C143.488 743.144 137.062 754.567 137.062 774.064C137.062 774.336 137.053 774.709 137.042 775.159C136.94 779.256 136.678 789.787 141.798 789.787L133.511 810.565V810.621L133.5 810.593L133.489 810.621V810.565L125.202 789.787C130.322 789.787 130.06 779.255 129.958 775.158L129.943 774.507C129.939 774.339 129.938 774.191 129.938 774.064C129.938 754.567 123.512 743.144 117.33 737.509C111.147 731.875 102.314 733.184 102.314 733.184C102.314 733.184 103.734 729.298 102.314 727.681C100.932 726.108 97.3306 727.211 96.2871 727.576C97.0786 727.231 99.2852 725.886 100.045 721.392C101.188 714.633 105.491 714.227 114.02 715.695C119.546 726.627 132.875 721.584 133.489 721.345V721.336L133.5 721.341L133.511 721.336V721.345C133.727 721.43 135.523 722.11 138 722.479V673.375C134.153 673.352 130.541 673.845 128.139 674.275C127.19 674.445 126.481 673.291 127.086 672.541L138 659.042V655.525L125.698 672.044C125.095 672.854 123.689 672.354 123.675 671.345C123.598 665.831 122.486 655.364 115.537 650.772C108.895 646.383 97.9775 647.614 92.7622 648.547C92.5869 648.578 92.4204 648.564 92.2686 648.516C92.0469 648.446 91.8569 648.304 91.7197 648.122C91.4404 647.753 91.3789 647.222 91.71 646.812L138 589.559V486.088L135.122 488.797C134.937 488.971 134.691 489.068 134.437 489.068H123.902C123.691 489.068 123.485 489.001 123.314 488.877L106.301 476.504C106.042 476.315 105.889 476.015 105.889 475.695V470.39C105.889 470.011 106.103 469.665 106.442 469.496L111.749 466.842C112.098 466.668 112.516 466.712 112.821 466.956L120.087 472.769C120.172 472.837 120.268 472.891 120.368 472.927C120.39 472.935 120.412 472.942 120.434 472.949L120.476 472.959L120.513 472.968C120.579 472.981 120.645 472.988 120.712 472.988H126.379C126.644 472.988 126.898 472.883 127.086 472.695L138 461.781V366.865C132.156 356.432 128.479 343.507 128.402 327.174C128.401 326.855 128.25 326.547 127.993 326.358L80.4888 291.522C80.2783 291.368 80.1367 291.137 80.0938 290.88L78.6152 282.011C78.5747 281.768 78.4463 281.548 78.2539 281.394L62.9731 269.17C62.668 268.926 62.5332 268.526 62.6279 268.146L65.3994 257.06C65.5503 256.457 66.208 256.136 66.7759 256.388L78.7544 261.712C79.4155 262.006 80.1606 261.522 80.1606 260.798V256.226C80.1606 256.114 80.1416 256.003 80.1055 255.899C80.085 255.84 80.0591 255.784 80.0283 255.729C80.0117 255.7 79.9937 255.671 79.9741 255.644L48.186 211.141C48.0649 210.971 48 210.768 48 210.56V180C48 179.35 48.6113 178.873 49.2427 179.03L54.0195 180.225C54.1499 180.257 54.271 180.315 54.376 180.394C54.4272 180.433 54.4751 180.476 54.5186 180.524C54.5664 180.576 54.6084 180.634 54.644 180.696L91.2837 244.417C91.3325 244.502 91.3682 244.593 91.3901 244.688C91.396 244.713 91.4009 244.739 91.4048 244.764L91.4097 244.8C91.4141 244.838 91.4165 244.877 91.4165 244.916V268.254C91.4165 268.325 91.4238 268.395 91.4385 268.463C91.4463 268.5 91.4565 268.538 91.4688 268.574L91.4854 268.618L91.498 268.65C91.5122 268.683 91.5278 268.714 91.5454 268.745L91.5791 268.8C91.6465 268.903 91.7329 268.995 91.8354 269.068L136.157 300.727C136.341 300.858 136.554 300.923 136.78 300.912L137.427 300.881L138 300.856V48ZM556 722.688V648.687C554.309 649.168 552.715 649.845 551.312 650.772C551.07 650.932 550.835 651.099 550.607 651.272C550.399 651.431 550.197 651.595 550 651.764V721.058C551.926 722.135 554.019 722.585 556 722.688ZM556 623.141V489.068H550.1L550.055 489.068L550 489.063V615.72L556 623.141ZM556 471.245V332.07C555.457 342.747 553.305 351.879 550 359.76V465.245L556 471.245ZM142 373.18C143.866 375.803 145.876 378.248 148 380.534V451.781L142 457.781V373.18ZM142 482.323L148 476.676V485.279L145.137 488.362C144.949 488.565 144.86 488.826 144.871 489.083C144.88 489.325 144.978 489.565 145.163 489.75L148 492.587V577.191L142 584.612V482.323ZM152 472.912V480.972L165.119 466.844C165.139 466.822 165.157 466.8 165.175 466.778C165.191 466.757 165.206 466.736 165.22 466.715L165.247 466.673L165.271 466.627C165.288 466.597 165.303 466.565 165.315 466.532C165.362 466.416 165.386 466.291 165.386 466.164V464.34C165.386 463.788 164.938 463.34 164.386 463.34H162.566C162.312 463.34 162.066 463.438 161.881 463.612L152 472.912ZM187.641 469.951L152 494.745V573.587H164.905C164.93 573.587 164.955 573.586 164.98 573.584C165.01 573.582 165.04 573.578 165.069 573.573C165.118 573.565 165.166 573.553 165.213 573.538C165.251 573.525 165.29 573.51 165.326 573.493C165.365 573.476 165.403 573.455 165.439 573.432C165.532 573.374 165.616 573.299 165.686 573.211L229.195 493.691L215.521 481.158C214.849 480.541 215.285 479.42 216.197 479.42H234.142C234.392 479.42 234.633 479.514 234.817 479.683L238.031 482.628L261.385 453.386C254.486 446.666 245.604 440.828 236.139 440.828C221.345 440.828 214.688 445.861 212.607 449.25C212.253 449.826 211.461 450.07 210.914 449.672L195.194 438.24C194.727 437.9 194.642 437.234 195.037 436.812C201.095 430.332 212.79 426.582 219.593 425.143C220.418 424.968 220.724 423.898 220.136 423.292C211.314 414.205 207.93 398.119 207.255 390.166C207.249 390.095 207.251 390.025 207.26 389.957C207.271 389.876 207.291 389.797 207.321 389.723C207.431 389.45 207.663 389.233 207.964 389.155C220.462 385.884 232.808 394.149 237.625 398.898C237.708 398.98 237.772 399.074 237.822 399.18C246.454 417.523 263.51 427.593 272.002 430.781C272.453 430.951 272.925 430.757 273.161 430.375C273.23 430.263 273.279 430.134 273.301 429.994C275.146 418.183 279.259 406.801 283.909 397.014L262.167 369.745C261.978 369.507 261.69 369.368 261.386 369.368H248.676C248.025 369.368 247.547 368.758 247.679 368.121C249.114 361.2 249.816 347.494 242.738 339.012C242.629 338.883 242.492 338.785 242.333 338.729C238.098 337.221 228.521 335.841 221.063 341.25C220.54 341.63 219.784 341.472 219.498 340.891L213.812 329.324C211.293 329.347 208.067 329.033 203.979 328.266C178.25 323.442 155.738 321.772 155.738 342.738C155.738 364.609 184.574 380.916 200.962 390.182L201.915 390.721C202.2 390.882 202.387 391.172 202.42 391.498C202.939 396.626 204.672 406.635 208.133 414.167C208.584 415.15 207.272 416.441 206.322 415.925C202.392 413.786 197.831 411.671 192.927 409.396C179.923 403.365 164.504 396.213 152 384.54V447.781L165.093 434.688C165.28 434.501 165.535 434.396 165.8 434.396H179.531C179.743 434.396 179.951 434.463 180.122 434.589L227.69 469.473C227.753 469.519 227.81 469.571 227.859 469.63C227.888 469.664 227.915 469.7 227.939 469.738C228.042 469.897 228.099 470.084 228.099 470.279V475.204C228.099 475.756 227.651 476.204 227.099 476.204H209.153C209.067 476.204 208.982 476.193 208.9 476.171C208.766 476.136 208.639 476.073 208.528 475.985L201.036 469.991C200.859 469.85 200.639 469.772 200.412 469.772H188.212C188.008 469.772 187.808 469.834 187.641 469.951ZM142 650.154L148 642.097V646.674L142 654.095V650.154ZM152 636.725V641.727L185.99 599.687C186.18 599.452 186.466 599.315 186.768 599.315H200.281C200.585 599.315 200.873 599.177 201.062 598.939L252.219 534.886V515.237C252.219 514.957 252.102 514.689 251.895 514.5L241.197 504.693L180.076 581.354C179.935 581.531 179.858 581.75 179.858 581.977V598.984C179.858 599.048 179.852 599.112 179.839 599.175C179.833 599.205 179.827 599.234 179.818 599.263C179.81 599.291 179.801 599.319 179.79 599.347C179.758 599.43 179.714 599.509 179.66 599.582L152 636.725ZM142 673.603C144.078 673.839 146.127 674.279 148 675.01V721H148.102C146.148 722.12 144.016 722.583 142 722.688V673.603ZM377.064 467.237C375.644 473.047 374.67 478.706 374.031 484.053L379.297 490.646C379.84 480.807 382.033 468.946 387.38 456.693L361.369 424.068L343.762 446.152L365.54 473.421C369.17 470.404 372.729 467.922 375.617 466.145C376.37 465.682 377.274 466.379 377.064 467.237ZM398.585 514.797L389.285 503.152C395.845 495.201 401.435 485.327 404.771 478.505L424.293 502.99L411.7 514.534C411.516 514.703 411.275 514.797 411.024 514.797H398.585ZM411.414 460.836L409.803 458.82C410.388 458.385 411.414 458.699 411.414 459.627V460.836ZM386.379 392.7C393.164 411.395 394.261 427.735 393.47 438.369L371.7 411.111L386.379 392.7ZM347.292 497.963C348.565 493.431 351.043 489.077 354.118 485.072L333.424 459.118L320.796 474.957C327.846 481.137 334.789 489.22 337.245 497.963C337.297 498.149 337.397 498.312 337.53 498.438C337.713 498.612 337.959 498.717 338.225 498.717H341.269C341.821 498.717 342.269 499.165 342.269 499.717C342.269 499.461 342.364 499.229 342.522 499.052C342.705 498.846 342.972 498.717 343.269 498.717H346.312C346.771 498.717 347.168 498.405 347.292 497.963ZM342.325 600.104C342.315 600.132 342.307 600.161 342.3 600.19L342.288 600.243C342.275 600.306 342.269 600.371 342.269 600.437C342.269 600.171 342.163 599.917 341.976 599.729L338.151 595.905C338.028 595.782 337.944 595.635 337.898 595.479C337.8 595.139 337.884 594.758 338.151 594.491L341.976 590.667C342.163 590.479 342.269 590.225 342.269 589.96C342.269 589.987 342.27 590.014 342.271 590.041C342.273 590.062 342.276 590.083 342.279 590.105C342.292 590.195 342.318 590.283 342.354 590.365C342.404 590.477 342.474 590.579 342.562 590.667L346.385 594.491C346.776 594.881 346.776 595.515 346.385 595.905L342.562 599.729C342.455 599.836 342.375 599.964 342.325 600.104ZM302.4 472.055L323.087 446.152L305.479 424.068L291.399 441.729C291.538 442.837 291.698 443.859 291.872 444.789L291.931 445.1L292.012 445.508C292.062 445.753 292.114 445.992 292.167 446.223C292.21 446.416 292.254 446.604 292.299 446.786C292.328 446.905 292.358 447.022 292.388 447.138C292.41 447.223 292.442 447.299 292.485 447.375C297.264 455.764 300.412 464.16 302.4 472.055ZM273.109 464.668L275.52 461.645L277.927 474.484C277.933 474.52 277.941 474.554 277.952 474.588C277.963 474.625 277.976 474.661 277.992 474.697C279.744 478.686 282.9 484.953 286.929 491.426L270.318 512.225L250.024 493.623L272.507 465.423C272.618 465.374 272.72 465.307 272.809 465.224C272.96 465.082 273.071 464.894 273.109 464.668ZM292.365 414.596L295.148 411.111L293.446 408.976C293.201 410.104 292.976 411.217 292.77 412.315C292.626 413.083 292.491 413.844 292.365 414.596ZM299.088 390.217L305.462 398.197L323.117 376.091L297.544 344.016C297.485 343.942 297.417 343.878 297.342 343.824C297.32 343.809 297.298 343.795 297.275 343.781C297.25 343.766 297.224 343.752 297.197 343.739C297.063 343.674 296.915 343.64 296.762 343.64H284.052C283.402 343.64 282.923 343.03 283.056 342.393C284.49 335.471 285.192 321.766 278.114 313.284C278.041 313.196 277.954 313.123 277.855 313.067L277.82 313.048L277.784 313.03L277.741 313.012L277.71 313C273.475 311.493 263.898 310.112 256.44 315.521C255.916 315.902 255.16 315.744 254.875 315.162L253.432 312.227C249.936 316.966 246.317 325.404 250.611 333.992C255.414 343.597 267.126 343.677 273.461 342.337C274.106 342.201 274.731 342.682 274.731 343.341V359.37C274.731 359.504 274.759 359.636 274.81 359.758L274.827 359.794C274.839 359.82 274.853 359.846 274.867 359.872C274.892 359.914 274.919 359.955 274.95 359.994L292.281 381.693C295.021 377.293 297.598 373.671 299.664 371.062C299.764 370.935 299.888 370.84 300.022 370.779C300.193 370.702 300.381 370.676 300.564 370.702C300.814 370.737 301.055 370.868 301.223 371.092L304.907 376.003C305.012 376.144 305.076 376.308 305.097 376.476C305.123 376.676 305.088 376.884 304.993 377.07C302.694 381.54 300.741 385.935 299.088 390.217ZM315.793 411.133L333.424 389.019L351.056 411.133L333.424 433.209L315.793 411.133ZM391.898 359.994L361.387 398.197L343.731 376.091L369.305 344.016C369.494 343.778 369.782 343.64 370.086 343.64H382.796C383.447 343.64 383.925 343.029 383.793 342.393C382.358 335.471 381.656 321.766 388.735 313.284C388.843 313.154 388.98 313.057 389.139 313C393.374 311.493 402.951 310.112 410.409 315.521C410.566 315.636 410.745 315.701 410.925 315.722C411.118 315.743 411.312 315.713 411.486 315.634C411.691 315.542 411.866 315.382 411.974 315.162L413.417 312.227C416.913 316.965 420.532 325.404 416.238 333.992C411.435 343.597 399.723 343.677 393.388 342.337C393.218 342.301 393.049 342.308 392.893 342.35C392.821 342.369 392.751 342.396 392.686 342.43C392.532 342.507 392.399 342.621 392.301 342.761C392.186 342.924 392.117 343.123 392.117 343.341V359.37L392.116 359.427C392.115 359.447 392.113 359.467 392.11 359.487L392.102 359.542C392.096 359.575 392.089 359.607 392.08 359.638C392.044 359.767 391.983 359.888 391.898 359.994ZM133.5 795.192C133.505 786.348 133.511 775.243 133.511 766.203C133.511 760.699 135.867 753.782 138.641 747.334C141.415 740.887 147.323 733.184 147.323 733.184C147.323 733.184 142.96 732.291 140.417 733.184C136.363 734.606 133.773 741.669 133.511 742.411V742.474L133.5 742.442L133.489 742.474V742.411C133.227 741.669 130.637 734.606 126.583 733.184C124.04 732.291 119.677 733.184 119.677 733.184C119.677 733.184 125.585 740.887 128.359 747.334C131.133 753.782 133.489 760.699 133.489 766.203L133.5 795.192ZM133.489 728.499V728.619C133.367 729.127 132.601 731.1 127.995 731.484C126.839 731.581 125.715 731.715 124.596 731.85C120.583 732.332 116.621 732.807 111.446 731.484C107.358 730.44 106.655 728.074 106.655 728.074C107.186 722.935 115.412 721.374 119.677 724.891C131.153 734.354 133.333 728.854 133.5 728.36C133.667 728.854 135.846 734.354 147.323 724.891C151.588 721.374 159.814 722.935 160.345 728.074C160.345 728.074 159.642 730.44 155.554 731.484C150.378 732.807 146.417 732.332 142.404 731.85L142.281 731.835C141.808 731.778 141.333 731.722 140.855 731.668C140.513 731.629 140.169 731.593 139.823 731.559C139.552 731.532 139.279 731.507 139.005 731.484C134.399 731.1 133.632 729.126 133.511 728.618V728.499L133.508 728.521L133.5 728.568C133.491 728.523 133.489 728.499 133.489 728.499ZM564.511 766.203C564.511 775.243 564.505 786.348 564.5 795.192C564.495 786.348 564.489 775.243 564.489 766.203C564.489 760.699 562.133 753.782 559.359 747.334C556.585 740.887 550.677 733.184 550.677 733.184C550.677 733.184 555.04 732.291 557.583 733.184C561.637 734.606 564.227 741.669 564.489 742.411V742.474L564.5 742.442L564.511 742.474V742.411C564.773 741.669 567.363 734.606 571.417 733.184C573.96 732.291 578.323 733.184 578.323 733.184C578.323 733.184 572.415 740.887 569.641 747.334C566.867 753.782 564.511 760.699 564.511 766.203ZM558.995 731.484C563.601 731.1 564.367 729.127 564.489 728.619V728.499L564.492 728.521L564.5 728.568C564.509 728.523 564.511 728.499 564.511 728.499V728.618C564.632 729.126 565.399 731.1 570.005 731.484C570.579 731.532 571.145 731.589 571.707 731.651C572.276 731.714 572.841 731.782 573.404 731.85C577.417 732.332 581.378 732.807 586.554 731.484C590.642 730.44 591.345 728.074 591.345 728.074C590.814 722.935 582.588 721.374 578.323 724.891C566.846 734.354 564.667 728.854 564.5 728.36C564.333 728.854 562.153 734.354 550.677 724.891C546.412 721.374 538.186 722.935 537.655 728.074C537.655 728.074 538.358 730.44 542.446 731.484C547.621 732.807 551.583 732.332 555.596 731.85C556.715 731.715 557.839 731.581 558.995 731.484Z" fill="#36B6FF"/>
<path d="M96 727.681C96 727.681 96.1069 727.654 96.2871 727.576C96.104 727.64 96 727.681 96 727.681Z" fill="#36B6FF"/>
<path d="M171 727.681C171 727.681 170.896 727.64 170.713 727.576C170.893 727.654 171 727.681 171 727.681Z" fill="#36B6FF"/>
<path d="M527.287 727.576C527.107 727.654 527 727.681 527 727.681C527 727.681 527.045 727.663 527.13 727.632L527.287 727.576Z" fill="#36B6FF"/>
<path d="M602 727.681C602 727.681 601.896 727.64 601.713 727.576C601.893 727.654 602 727.681 602 727.681Z" fill="#36B6FF"/>
<path d="M341.531 725.64C346.47 720.512 350 709 350 709C350 709 353.53 720.512 358.469 725.64C363.142 730.492 373.296 731.88 373.296 731.88C373.296 731.88 363.113 734.337 357.699 741.188C351.248 749.352 350 761 350 761C350 761 348.752 749.352 342.3 741.188C336.887 734.337 326.704 731.88 326.704 731.88C326.704 731.88 336.858 730.492 341.531 725.64Z" fill="#36B6FF"/>
<path fill-rule="evenodd" clip-rule="evenodd" d="M285 827C285 862.898 314.102 892 350 892C385.898 892 415 862.898 415 827C415 801.898 395.992 780.814 373.5 770.226C368.772 768 364 766.5 357 765.5C350 764.5 357 753.525 362 748C367.057 742.412 373.5 739.5 379.5 747.5C383.757 753.177 377.189 758.099 373.015 760.478C376.509 758.873 382.265 756.737 386 758C386.449 758.152 386.89 758.338 387.32 758.542C388.053 758.89 388.752 759.29 389.394 759.656C389.602 759.775 389.805 759.891 390 760C413.864 773.338 428 797.718 428 827C428 850.984 417.174 872.441 400.143 886.749C419.822 880.37 443.788 869.615 469.5 851.5C535.5 805 541.5 737 541.5 737L547.5 744C547.194 749.66 545.344 762.451 540.403 771.628C543.986 765.444 549.45 755.1 550.5 749.5C553.833 752.833 559.7 763 556.5 777C550.667 776.833 539 781.6 539 802C539 822.4 554.667 837.5 562.5 842.5C565.333 844.5 571 849.6 571 858C571 866.4 564 868.833 560.5 868.5C559.5 878.667 550.7 895.4 523.5 881C509 881.5 480 891.9 480 929.5C456.167 926.167 409.5 920 377.5 946.5C357.14 963.36 352.196 981.987 349.591 991.805L349.353 992.7C349.231 993.156 349.114 993.589 349 994C348.815 993.336 348.623 992.611 348.416 991.831L348.409 991.805C345.803 981.987 340.86 963.36 320.5 946.5C288.5 920 241.833 926.167 218 929.5C218 891.9 189 881.5 174.5 881C147.3 895.4 138.5 878.667 137.5 868.5C134 868.833 127 866.4 127 858C127 849.6 132.667 844.5 135.5 842.5C143.333 837.5 159 822.4 159 802C159 781.6 147.333 776.833 141.5 777C138.3 763 144.167 752.833 147.5 749.5C148.55 755.1 154.014 765.444 157.597 771.628C152.656 762.451 150.806 749.66 150.5 744L156.5 737C156.5 737 162.5 805 228.5 851.5C255.643 870.624 280.841 881.544 301.104 887.774C283.355 873.477 272 851.564 272 827C272 797.718 286.135 773.338 310 760L310.305 759.828L310.556 759.684L310.606 759.656C311.407 759.199 312.297 758.69 313.232 758.294C313.343 758.247 313.455 758.201 313.567 758.157C313.646 758.126 313.726 758.097 313.805 758.068L314 758C317.735 756.737 323.49 758.873 326.985 760.478C322.811 758.099 316.242 753.177 320.5 747.5C326.5 739.5 332.942 742.412 338 748C343 753.525 350 764.5 343 765.5C336 766.5 331.228 768 326.5 770.226C304.008 780.814 285 801.898 285 827ZM349 941.5C351.833 934.167 367.45 918 377.5 918C381.5 918 377.5 922.5 377.5 922.5L370.067 930.807C373.853 926.748 387.595 913.397 409.5 907.5C439.426 899.443 459.653 874.338 469.5 859C458.812 868.09 431.881 883.881 393.791 891.557C381.307 900.042 366.232 905 350 905C334.121 905 319.351 900.255 307.029 892.106C267.449 884.659 239.45 868.313 228.5 859C238.347 874.338 258.574 899.443 288.5 907.5C310.404 913.397 324.146 926.748 327.932 930.807L320.5 922.5C320.5 922.5 316.5 918 320.5 918C330.55 918 346.167 934.167 349 941.5ZM172 806.5C177.667 811.667 183.8 824.8 163 836C142.2 847.2 141.333 856.167 143 860C140.5 856.833 138 848.8 152 836C153.066 835.025 154.077 834.104 155.034 833.231C169.795 819.778 172 817.769 172 806.5ZM164.5 879C148.1 868.2 154.167 855 159.5 849C154.833 850.167 147.7 855.471 149 865C150.5 876 160 878.333 164.5 879ZM188 824.306V825.699C188 826.694 187.194 827.5 186.199 827.5H185.102C183.378 827.5 182.884 825.148 184.437 824.401C184.749 824.25 185.002 823.994 185.148 823.679C185.82 822.224 188 822.703 188 824.306ZM246.23 911.007C243.486 915.861 238.087 916.903 235.448 917.413L235 917.5C250.41 917.5 254.077 910.437 254.049 906.266C254.046 905.813 253.689 905.461 253.245 905.375C243.315 903.451 232.489 890.488 220.727 876.404C218.68 873.953 216.604 871.467 214.5 869C210.292 864.067 206.617 858.931 203.299 854.293C193.838 841.07 187.273 831.895 179.5 843C167.786 859.734 165.5 880 198 875.5C213.716 873.324 238.335 898.322 246.192 910.034C246.39 910.33 246.405 910.698 246.23 911.007ZM208 846C208 846 235.917 888.323 264.222 902.858C264.306 902.901 264.383 902.955 264.453 903.017C264.534 903.089 264.605 903.175 264.662 903.271C265.161 904.101 264.413 905.122 263.47 904.898L255.942 903.105C255.792 903.07 255.646 903.017 255.509 902.948C255.432 902.909 255.357 902.865 255.285 902.815C255.237 902.783 255.191 902.749 255.146 902.712C226.35 879.228 208 846 208 846ZM535 836C514.2 824.8 520.333 811.667 526 806.5C526 817.769 528.205 819.778 542.966 833.231L546 836C560 848.8 557.5 856.833 555 860C556.667 856.167 555.8 847.2 535 836ZM538.5 849C543.833 855 549.9 868.2 533.5 879C538 878.333 547.5 876 549 865C550.299 855.471 543.167 850.167 538.5 849ZM510 825.699V824.306C510 822.703 512.18 822.224 512.852 823.679C512.997 823.994 513.25 824.25 513.563 824.401C515.116 825.148 514.622 827.5 512.898 827.5H511.801C510.806 827.5 510 826.694 510 825.699ZM462.551 917.413C459.913 916.903 454.514 915.861 451.769 911.007C451.594 910.698 451.61 910.33 451.808 910.034C459.665 898.322 484.284 873.324 500 875.5C532.5 880 530.213 859.734 518.5 843C510.726 831.895 504.162 841.07 494.701 854.293L494.695 854.302C491.378 858.937 487.706 864.07 483.5 869C481.396 871.467 479.32 873.953 477.272 876.404C465.511 890.488 454.685 903.451 444.755 905.375C444.311 905.461 443.954 905.813 443.951 906.266C443.923 910.437 447.59 917.5 463 917.5L462.551 917.413ZM433.778 902.858C462.083 888.323 490 846 490 846C490 846 471.65 879.228 442.854 902.712C442.622 902.902 442.349 903.036 442.058 903.105L434.529 904.898C433.587 905.122 432.839 904.101 433.338 903.271C433.444 903.094 433.595 902.952 433.778 902.858Z" fill="#36B6FF"/>
<path fill-rule="evenodd" clip-rule="evenodd" d="M350 878C376.51 878 398 856.51 398 830C398 803.49 376.51 782 350 782C323.49 782 302 803.49 302 830C302 856.51 323.49 878 350 878ZM365.848 866.278C379.818 860.167 389.579 846.224 389.579 830C389.579 814.058 380.153 800.317 366.571 794.046L364.822 795.68C364.822 795.68 361.755 790.909 359.711 792.817C357.692 794.702 357.667 798.449 357.667 798.541V862.459C357.667 862.551 357.692 866.298 359.711 868.183C359.771 868.239 359.831 868.289 359.892 868.333C360.03 868.297 360.168 868.261 360.306 868.224L360.562 868.154L360.852 868.073C361.152 867.988 361.45 867.899 361.747 867.807C362.226 867.658 362.701 867.5 363.172 867.334C363.512 867.003 363.82 866.651 364.075 866.335C364.534 865.769 364.822 865.32 364.822 865.32L365.848 866.278ZM335.52 866.847C320.823 861.067 310.421 846.748 310.421 830C310.421 813.537 320.473 799.422 334.773 793.456L337.155 795.68C337.155 795.68 340.222 790.909 342.266 792.817C344.274 794.691 344.31 798.408 344.31 798.539V862.461C344.31 862.592 344.274 866.309 342.266 868.183C341.971 868.458 341.654 868.595 341.329 868.626C341.149 868.586 340.969 868.544 340.79 868.502C340.565 868.448 340.341 868.393 340.118 868.335C338.57 867.521 337.155 865.32 337.155 865.32L335.52 866.847Z" fill="#36B6FF"/>
<path d="M85 787L78.9678 798.5L68 801L79.5161 812L85 835L90.4839 812L102 801L91.0322 798.5L85 787Z" fill="#36B6FF"/>
<path d="M586.312 933.667L590.333 926L594.354 933.667L601.667 935.333L593.989 942.667L590.333 958L586.677 942.667L579 935.333L586.312 933.667Z" fill="#36B6FF"/>
</g>
<defs>
<filter id="filter0_f_62_1040" x="0" y="0" width="684.537" height="1042" filterUnits="userSpaceOnUse" color-interpolation-filters="sRGB">
<feFlood flood-opacity="0" result="BackgroundImageFix"/>
<feBlend mode="normal" in="SourceGraphic" in2="BackgroundImageFix" result="shape"/>
<feGaussianBlur stdDeviation="24" result="effect1_foregroundBlur_62_1040"/>
</filter>
</defs>
</svg>
