<svg width="366" height="450" viewBox="0 0 366 450" fill="none" xmlns="http://www.w3.org/2000/svg">
<path d="M305.655 350.157H292.142C291.838 350.157 291.55 350.019 291.36 349.781L100.524 110.835C100.383 110.658 100.306 110.438 100.306 110.211V94.1827C100.306 93.5234 99.6798 93.043 99.0347 93.1794C92.7004 94.5187 80.9878 94.4384 76.1852 84.8333C71.3825 75.2279 76.4789 65.8092 80.2303 61.5456C80.6299 61.0916 80.5824 60.3865 80.102 60.0191L2.38422 0.58791C1.54492 -0.053924 0.413239 0.875144 0.879333 1.82339L45.0719 91.7324C45.3576 92.3136 46.1133 92.472 46.6376 92.0918C54.0954 86.6827 63.6723 88.0627 67.9073 89.5706C68.0663 89.6272 68.2034 89.7247 68.3115 89.8542C75.39 98.336 74.6879 112.041 73.253 118.963C73.1209 119.6 73.5994 120.21 74.2499 120.21H86.9597C87.2641 120.21 87.5519 120.349 87.7416 120.586L276.97 357.924C277.111 358.101 277.188 358.321 277.188 358.547V375.554C277.188 375.77 277.258 375.979 277.386 376.152L331.348 448.615C331.951 449.425 333.357 448.924 333.371 447.915C333.448 442.402 334.56 431.935 341.509 427.343C348.152 422.953 359.069 424.184 364.284 425.117C365.233 425.287 365.942 424.132 365.336 423.383L306.433 350.529C306.243 350.294 305.957 350.157 305.655 350.157Z" fill="#52EFF5"/>
</svg>
