<svg width="366" height="450" viewBox="0 0 366 450" fill="none" xmlns="http://www.w3.org/2000/svg">
<path d="M60.5824 350.157H74.096C74.4001 350.157 74.6877 350.019 74.8774 349.781L265.713 110.835C265.855 110.658 265.932 110.438 265.932 110.211V94.1827C265.932 93.5234 266.558 93.043 267.203 93.1794C273.537 94.5187 285.25 94.4384 290.052 84.8333C294.855 75.2279 289.759 65.8092 286.007 61.5456C285.608 61.0916 285.655 60.3865 286.136 60.0191L363.853 0.58791C364.693 -0.053924 365.824 0.875144 365.358 1.82339L321.166 91.7324C320.88 92.3136 320.124 92.472 319.6 92.0918C312.142 86.6827 302.565 88.0627 298.33 89.5706C298.171 89.6272 298.034 89.7247 297.926 89.8542C290.848 98.336 291.55 112.041 292.985 118.963C293.117 119.6 292.638 120.21 291.988 120.21H279.278C278.974 120.21 278.686 120.349 278.496 120.586L89.2675 357.924C89.1263 358.101 89.0494 358.321 89.0494 358.547V375.554C89.0494 375.77 88.98 375.979 88.8514 376.152L34.8895 448.615C34.2864 449.425 32.8803 448.924 32.8662 447.915C32.7895 442.402 31.6777 431.935 24.7284 427.343C18.0861 422.953 7.16908 424.184 1.95343 425.117C1.00507 425.287 0.295542 424.132 0.901273 423.383L59.8048 350.529C59.9946 350.294 60.2804 350.157 60.5824 350.157Z" fill="#52EFF5"/>
</svg>