<svg width="65" height="330" viewBox="0 0 65 330" fill="none" xmlns="http://www.w3.org/2000/svg">
<path fill-rule="evenodd" clip-rule="evenodd" d="M-5.11354e-05 303.905L-5.21672e-05 315.707C8.0829 324.421 19.6325 329.875 32.4558 329.875C45.2791 329.875 56.8287 324.421 64.9116 315.707L64.9116 303.905C56.8287 312.619 45.2791 318.073 32.4558 318.073C19.6325 318.073 8.0829 312.619 -5.11354e-05 303.905Z" fill="#52EFF5"/>
<path fill-rule="evenodd" clip-rule="evenodd" d="M-5.11354e-05 -9.53201e-05L-5.21671e-05 11.802C8.06673 20.4991 19.5863 25.9484 32.379 25.9702L32.533 25.9702C45.3254 25.9484 56.8449 20.4993 64.9116 11.8025L64.9116 0.000356674C56.8287 8.71464 45.2792 14.1682 32.456 14.1682C19.6326 14.1682 8.08291 8.71445 -5.11354e-05 -9.53201e-05Z" fill="#52EFF5"/>
<path fill-rule="evenodd" clip-rule="evenodd" d="M32.4558 306.271C19.6325 306.271 8.08289 300.817 -5.21672e-05 292.103L-2.89011e-05 25.9706L2.36589 25.9706C10.2623 33.2948 20.8361 37.7727 32.4558 37.7727C44.0755 37.7727 54.6493 33.2948 62.5457 25.9706L64.9116 25.9706L64.9116 292.103C56.8287 300.817 45.2791 306.271 32.4558 306.271ZM33.1371 287.531C33.5373 288.054 34.3247 288.054 34.725 287.531L45.7151 273.179C45.9867 272.824 45.9902 272.333 45.7237 271.974L34.7335 257.191C34.3337 256.654 33.5283 256.654 33.1285 257.191L22.1383 271.974C21.8719 272.333 21.8754 272.824 22.1469 273.179L33.1371 287.531Z" fill="#52EFF5"/>
</svg>
