<svg width="65" height="330" viewBox="0 0 65 330" fill="none" xmlns="http://www.w3.org/2000/svg">
<path fill-rule="evenodd" clip-rule="evenodd" d="M-5.11354e-05 303.905L-5.21671e-05 315.707C8.07026 324.408 19.5964 329.858 32.3959 329.875L32.5163 329.875C45.3154 329.858 56.8413 324.408 64.9116 315.707L64.9116 303.905C56.8287 312.62 45.2793 318.073 32.4561 318.073C19.6326 318.073 8.08291 312.619 -5.11354e-05 303.905Z" fill="#52EFF5"/>
<path fill-rule="evenodd" clip-rule="evenodd" d="M-5.11353e-05 6.48971e-05L-5.21671e-05 11.8024C8.06481 20.4975 19.5809 25.9463 32.3699 25.9707L32.5423 25.9707C45.331 25.9463 56.8468 20.4978 64.9116 11.8031L64.9116 0.00075531C56.8287 8.71497 45.2793 14.1685 32.4561 14.1685C19.6326 14.1685 8.08291 8.71468 -5.11353e-05 6.48971e-05Z" fill="#52EFF5"/>
<path fill-rule="evenodd" clip-rule="evenodd" d="M32.4558 306.271C19.6325 306.271 8.08289 300.817 -5.21672e-05 292.103L-2.89011e-05 25.9706L2.36589 25.9706C10.2623 33.2948 20.8361 37.7727 32.4558 37.7727C44.0755 37.7727 54.6493 33.2948 62.5457 25.9706L64.9116 25.9706L64.9116 292.103C56.8287 300.817 45.2791 306.271 32.4558 306.271ZM33.1374 287.531C33.5377 288.054 34.325 288.054 34.7253 287.531L45.7155 273.179C45.987 272.825 45.9905 272.333 45.724 271.975L34.7339 257.192C34.334 256.654 33.5287 256.654 33.1288 257.192L22.1387 271.975C21.8722 272.333 21.8757 272.825 22.1472 273.179L33.1374 287.531Z" fill="#52EFF5"/>
</svg>
