<svg width="65" height="330" viewBox="0 0 65 330" fill="none" xmlns="http://www.w3.org/2000/svg">
<path fill-rule="evenodd" clip-rule="evenodd" d="M64.9117 25.97V14.168C56.8287 5.4536 45.2792 0 32.4559 0C19.6325 0 8.08295 5.45366 0 14.1681V25.9701C8.08295 17.2556 19.6325 11.802 32.4559 11.802C45.2792 11.802 56.8287 17.2556 64.9117 25.97Z" fill="#52EFF5"/>
<path fill-rule="evenodd" clip-rule="evenodd" d="M64.9117 329.875V318.073C56.8287 309.358 45.2792 303.905 32.4559 303.905C19.6325 303.905 8.08295 309.358 0 318.073V329.875C8.08295 321.16 19.6325 315.707 32.4559 315.707C45.2792 315.707 56.8287 321.16 64.9117 329.875Z" fill="#52EFF5"/>
<path fill-rule="evenodd" clip-rule="evenodd" d="M32.4558 23.6042C45.2792 23.6042 56.8287 29.0579 64.9117 37.7723V303.905H62.5458C54.6493 296.58 44.0755 292.103 32.4558 292.103C20.8362 292.103 10.2624 296.58 2.36592 303.905H0V37.7723C8.08295 29.0579 19.6325 23.6042 32.4558 23.6042ZM31.7748 42.3444C31.3746 41.8217 30.5872 41.8217 30.1869 42.3444L19.1968 56.6963C18.9252 57.0509 18.9217 57.5425 19.1882 57.9009L30.1784 72.6839C30.5782 73.2218 31.3836 73.2218 31.7834 72.6839L42.7736 57.9009C43.04 57.5425 43.0365 57.0509 42.765 56.6963L31.7748 42.3444Z" fill="#52EFF5"/>
</svg>
