<svg width="65" height="330" viewBox="0 0 65 330" fill="none" xmlns="http://www.w3.org/2000/svg">
<path fill-rule="evenodd" clip-rule="evenodd" d="M64.9117 25.97V14.1678C56.8287 5.45355 45.2793 0 32.456 0C19.6326 0 8.08296 5.45371 0 14.1682V25.9704C8.08296 17.2559 19.6326 11.8022 32.456 11.8022C45.2793 11.8022 56.8287 17.2557 64.9117 25.97Z" fill="#52EFF5"/>
<path fill-rule="evenodd" clip-rule="evenodd" d="M64.9117 329.875V318.073C56.8371 309.367 45.3031 303.916 32.4957 303.905H32.4159C19.6085 303.916 8.07456 309.367 0 318.073V329.875C8.08295 321.16 19.6325 315.707 32.4558 315.707C45.2791 315.707 56.8287 321.161 64.9117 329.875Z" fill="#52EFF5"/>
<path fill-rule="evenodd" clip-rule="evenodd" d="M32.4558 23.6045C45.2792 23.6045 56.8287 29.0581 64.9117 37.7725V303.905H62.5458C54.6493 296.581 44.0755 292.103 32.4558 292.103C20.8362 292.103 10.2624 296.581 2.36592 303.905H0V37.7725C8.08295 29.0581 19.6325 23.6045 32.4558 23.6045ZM31.7743 42.3444C31.374 41.8217 30.5866 41.8217 30.1864 42.3444L19.1962 56.6962C18.9247 57.0508 18.9212 57.5424 19.1876 57.9008L30.1778 72.6839C30.5776 73.2217 31.383 73.2217 31.7828 72.6839L42.773 57.9008C43.0395 57.5424 43.036 57.0508 42.7644 56.6962L31.7743 42.3444Z" fill="#52EFF5"/>
</svg>
