<svg width="244" height="245" viewBox="0 0 244 245" fill="none" xmlns="http://www.w3.org/2000/svg">
<path fill-rule="evenodd" clip-rule="evenodd" d="M4.27554 0C-3.10078 13.2774 -3.10078 48.6838 21.9787 76.7138C48.1385 105.951 51.4841 115.071 51.484 122.447H243.269C243.269 120.48 241.203 116.546 232.942 116.546H179.832L76.5636 104.744C71.646 94.9087 60.3356 79.6643 44.1077 69.3375C25.9112 57.7579 20.1904 46.423 12.0642 30.3222C11.9275 30.0513 11.79 29.779 11.6519 29.5053C5.23254 16.7918 4.27554 10.3269 4.27554 0ZM4.27554 244.894C-3.10078 231.617 -3.10078 196.21 21.9787 168.18C48.1385 138.943 51.4841 129.823 51.484 122.447H243.269C243.269 124.414 241.203 128.348 232.942 128.348H179.832L76.5636 140.15C71.646 149.985 60.3356 165.23 44.1077 175.557C25.9112 187.136 20.1904 198.471 12.0642 214.572C11.9275 214.843 11.79 215.115 11.6519 215.389C5.23254 228.102 4.27554 234.567 4.27554 244.894Z" fill="#D9D9D9"/>
</svg>
