<svg width="116" height="201" viewBox="0 0 116 201" fill="none" xmlns="http://www.w3.org/2000/svg">
<path fill-rule="evenodd" clip-rule="evenodd" d="M57.5356 0V50.159C57.5356 50.159 79.6646 73.7633 79.6646 101.793C79.6646 129.823 57.5356 153.428 57.5356 153.428V200.636C57.5356 200.636 64.0038 178.333 70.813 165.23C73.394 160.263 76.0663 156.707 78.7085 153.191C81.5728 149.379 84.4018 145.614 87.0409 140.15C88.9893 136.116 89.7479 132.445 90.4791 128.906C91.4432 124.24 92.3597 119.804 95.8925 115.071C101.544 107.498 115.071 100.318 115.071 100.318C115.071 100.318 101.544 93.1378 95.8925 85.5654C92.5325 81.0638 91.7143 76.8188 90.8619 72.3968C90.1382 68.6426 89.39 64.7608 87.0409 60.4859C84.3896 55.661 81.5205 52.6575 78.6433 49.6456C75.9849 46.8627 73.3197 44.0727 70.813 39.8322C62.469 25.7171 57.5356 0 57.5356 0ZM57.5354 5.25623e-05V50.1591C57.5354 50.1591 35.4064 73.7633 35.4064 101.793C35.4064 129.823 57.5354 153.428 57.5354 153.428V200.636C57.5354 200.636 51.0671 178.334 44.258 165.23C41.6769 160.263 39.0047 156.707 36.3625 153.191C33.4982 149.379 30.6692 145.614 28.03 140.15C26.0816 136.116 25.323 132.445 24.5918 128.906C23.6278 124.24 22.7113 119.804 19.1784 115.071C13.5265 107.498 0 100.318 0 100.318C0 100.318 13.5265 93.1379 19.1784 85.5654C22.5384 81.0638 23.3567 76.8189 24.209 72.3969C24.9327 68.6427 25.681 64.7608 28.03 60.4859C30.6814 55.661 33.5505 52.6576 36.4277 49.6456C39.086 46.8628 41.7512 44.0728 44.258 39.8322C52.6019 25.7171 57.5354 5.25623e-05 57.5354 5.25623e-05Z" fill="#D9D9D9"/>
</svg>
