<svg width="244" height="245" viewBox="0 0 244 245" fill="none" xmlns="http://www.w3.org/2000/svg">
<path fill-rule="evenodd" clip-rule="evenodd" d="M238.993 0C246.369 13.2774 246.369 48.6838 221.29 76.7138C195.13 105.951 191.784 115.071 191.785 122.447H0C0 120.48 2.06537 116.546 10.3269 116.546H63.4364L166.705 104.744C171.623 94.9087 182.933 79.6643 199.161 69.3375C217.357 57.7579 223.078 46.423 231.204 30.3222C231.341 30.0513 231.479 29.779 231.617 29.5053C238.036 16.7918 238.993 10.3269 238.993 0ZM238.993 244.894C246.369 231.617 246.369 196.21 221.29 168.18C195.13 138.943 191.785 129.823 191.785 122.447H1.35656e-05C1.35656e-05 124.414 2.06539 128.348 10.3269 128.348H63.4364L166.705 140.15C171.623 149.985 182.933 165.23 199.161 175.557C217.357 187.136 223.078 198.471 231.204 214.572C231.341 214.843 231.479 215.115 231.617 215.389C238.036 228.102 238.993 234.567 238.993 244.894Z" fill="#D9D9D9"/>
</svg>
