<svg width="112" height="142" viewBox="0 0 112 142" fill="none" xmlns="http://www.w3.org/2000/svg">
<path d="M98.0895 77.1852C113.527 104.2 112.026 131.322 109.346 141.506C97.7679 132.501 87.3693 113.098 83.6173 104.522L78.7932 78.7932V98.0895C73.4331 88.9774 58.5321 70.7531 41.8086 70.7531C25.0852 70.7531 18.7603 77.1852 17.6883 80.4012L0 67.537C6.4321 59.8185 20.9043 55.7449 27.3364 54.6728C17.0451 45.6679 13.4002 27.3364 12.8642 19.2963C25.7284 15.437 38.5926 24.1204 43.4167 28.9444C52.4216 48.2407 70.7531 58.4249 78.7932 61.1049C82.6525 34.0901 98.6255 9.11214 106.13 0L110.954 6.4321C94.2302 38.5926 95.4095 67.001 98.0895 77.1852Z" fill="white"/>
</svg>
