<svg width="174" height="240" viewBox="0 0 174 240" fill="none" xmlns="http://www.w3.org/2000/svg">
<path d="M162.41 239.596C157.265 231.877 154.906 218.155 154.37 212.259C138.29 203.147 107.738 186.531 107.738 164.019C107.738 143.052 130.25 144.722 155.978 149.546C176.561 153.406 175.275 145.794 172.059 141.506C154.049 123.496 108.81 121.138 88.4414 122.21L43.4167 90.0494V65.929L6.4321 1.60802L0 0V32.1605L32.1605 77.1852V83.6173L17.6883 77.1852L14.4722 90.0494L30.5525 102.914L32.1605 112.562L80.4012 147.938C80.4012 213.867 138.826 224.587 162.41 239.596Z" fill="white"/>
</svg>
