<svg width="174" height="240" viewBox="0 0 174 240" fill="none" xmlns="http://www.w3.org/2000/svg">
<path d="M11.4897 239.596C16.6353 231.877 18.9938 218.155 19.5298 212.259C35.61 203.147 66.1625 186.531 66.1625 164.019C66.1625 143.052 43.6501 144.722 17.9218 149.546C-2.66096 153.406 -1.37454 145.794 1.84151 141.506C19.8514 123.496 65.0905 121.138 85.4588 122.21L130.483 90.0494V65.929L167.468 1.60802L173.9 0V32.1605L141.74 77.1852V83.6173L156.212 77.1852L159.428 90.0494L143.348 102.914L141.74 112.562L93.4989 147.938C93.4989 213.867 35.074 224.587 11.4897 239.596Z" fill="white"/>
</svg>
