<svg width="112" height="142" viewBox="0 0 112 142" fill="none" xmlns="http://www.w3.org/2000/svg">
<path d="M12.9619 77.1852C-2.47515 104.2 -0.974327 131.322 1.70571 141.506C13.2835 132.501 23.6821 113.098 27.4341 104.522L32.2582 78.7932V98.0895C37.6183 88.9774 52.5193 70.7531 69.2427 70.7531C85.9662 70.7531 92.2911 77.1852 93.3631 80.4012L111.051 67.537C104.619 59.8185 90.1471 55.7449 83.715 54.6728C94.0063 45.6679 97.6512 27.3364 98.1872 19.2963C85.323 15.437 72.4588 24.1204 67.6347 28.9444C58.6298 48.2407 40.2983 58.4249 32.2582 61.1049C28.3989 34.0901 12.4259 9.11214 4.92176 0L0.0976868 6.4321C16.8211 38.5926 15.6419 67.001 12.9619 77.1852Z" fill="white"/>
</svg>
