<svg width="431" height="432" viewBox="0 0 431 432" fill="none" xmlns="http://www.w3.org/2000/svg">
<path fill-rule="evenodd" clip-rule="evenodd" d="M296.369 405.554C305.742 410.444 310.42 419.095 311.587 422.81C309.904 422.26 308.297 421.229 306.43 420.031C300.61 416.297 292.262 410.941 271.163 413.476L271.049 412.953C267.505 413.624 263.368 412.754 259.976 408.883C258.185 406.839 256.512 403.853 255.298 399.626C273.549 398.815 287.643 401.001 296.369 405.554ZM236.667 401.329C241.317 409.201 246.203 414.328 251.307 417.384C244.678 419.104 237.221 421.383 228.808 424.339C153.864 450.666 63.4417 402.032 27.9104 377.284C74.2666 388.427 100.459 383.459 118.012 379.575C127.903 377.283 150.767 365.362 163.094 336.02C175.422 306.678 211.063 296.456 227.343 295.013C225.734 295.684 223.922 296.352 221.954 297.077C209.363 301.718 190.383 308.714 177.167 334.046C161.885 363.337 182.134 388.808 189.457 392.628C190.416 393.129 191.425 393.719 192.518 394.359C199.759 398.596 210.657 404.973 235.112 401.542C235.633 401.469 236.151 401.398 236.667 401.329ZM238.843 343.323L238.843 343.323C231.373 330.384 214.828 325.951 201.889 333.421C188.951 340.892 184.518 357.436 191.988 370.375C199.087 382.671 214.381 387.285 226.987 381.303C230.472 383.765 233.665 387.572 236.381 393.162C248.241 417.572 260.767 419.169 271.716 416.492C262.329 418.268 249.884 411.627 249.761 383.875C249.664 362.066 240.873 346.838 238.843 343.323Z" fill="#FFA800"/>
<path fill-rule="evenodd" clip-rule="evenodd" d="M22.5535 218.357C13.6319 224.029 3.80049 223.754 0 222.908C1.31815 221.725 3.01411 220.849 4.98466 219.831C11.2563 216.592 20.3095 211.917 28.8167 191.327L30.5128 191.871C31.7044 188.466 34.5258 185.319 39.5745 184.317C42.0005 183.835 45.0533 183.829 48.7994 184.631C40.2082 201.452 31.0488 212.955 22.5535 218.357ZM35.1474 173.392C35.0237 173.471 34.9013 173.55 34.7801 173.63C36.6257 166.98 38.4007 159.313 40.0654 150.455C54.7367 72.3879 142.067 18.3968 181.265 0C148.437 34.5741 139.643 59.7408 134.23 76.8846C131.27 86.5966 130.161 112.357 149.408 137.704C168.655 163.051 159.687 199.029 152.798 213.849C153.021 212.12 153.348 210.217 153.704 208.151L153.704 208.15C155.98 194.925 159.412 174.99 144.082 150.878C126.356 122.998 94.1735 127.799 87.2034 132.231C86.29 132.812 85.2743 133.39 84.1748 134.016L84.1742 134.017C76.8842 138.169 65.9124 144.418 56.6555 167.313C56.5717 167.52 56.4879 167.726 56.4039 167.933C47.1134 168.193 40.2451 170.146 35.1474 173.392ZM106.916 198.797H106.917C121.857 198.797 133.968 186.685 133.968 171.745C133.968 156.804 121.857 144.693 106.917 144.693C92.7186 144.693 81.0753 155.63 79.9532 169.539C76.0787 171.326 71.1845 172.187 64.986 171.745C37.9167 169.811 30.2694 179.86 27.1133 190.681C30.2694 181.664 42.2425 174.206 66.3386 187.976C85.2743 198.797 102.857 198.797 106.916 198.797Z" fill="#FFA800"/>
<path fill-rule="evenodd" clip-rule="evenodd" d="M319.413 86.1335C318.961 75.571 324.115 67.1939 326.748 64.3257C327.113 66.0588 327.024 67.9655 326.92 70.1809C326.545 78.1768 325.982 90.1941 345.939 112.586C345.91 112.679 345.879 112.771 345.847 112.864C344.598 116.54 341.563 120.967 335.496 125.724C325.225 109.874 319.843 96.1908 319.413 86.1335ZM347.517 142.422C352.235 135.321 355.121 129.084 356.52 123.525C360.331 127.195 364.624 131.098 369.461 135.25C429.734 186.989 432.827 289.615 429.159 332.76C415.631 287.043 398.234 266.844 386.093 253.584C379.162 246.164 357.407 232.324 325.832 236.319C294.258 240.314 267.584 214.559 258.194 201.182C259.58 202.24 261.064 203.475 262.676 204.816C272.992 213.4 288.54 226.339 317.087 225.119C350.094 223.708 362.028 193.437 361.675 185.185C361.629 184.103 361.636 182.934 361.643 181.669V181.668C361.691 173.458 361.763 161.188 347.517 142.422ZM299.636 163.944L299.636 163.944C292.166 176.883 296.599 193.428 309.538 200.898C322.477 208.368 339.021 203.935 346.491 190.996C353.59 178.7 349.94 163.148 338.455 155.222C338.845 150.973 340.546 146.304 344.029 141.157C359.238 118.681 354.359 107.034 346.566 98.8902C352.797 106.132 353.269 120.23 329.296 134.213C310.457 145.201 301.666 160.429 299.636 163.944Z" fill="#FFA800"/>
</svg>
