<svg width="301" height="332" viewBox="0 0 301 332" fill="none" xmlns="http://www.w3.org/2000/svg">
<path fill-rule="evenodd" clip-rule="evenodd" d="M76.24 174.09V174.09C76.24 170.487 76.24 154.879 85.8448 138.071C98.0671 116.683 91.4477 106.055 83.4436 103.253C93.0485 106.055 101.969 112.843 100.252 136.871C99.8593 142.373 100.624 146.717 102.21 150.156C114.556 151.152 124.265 161.487 124.265 174.09C124.265 187.352 113.514 198.102 100.252 198.102C86.9907 198.102 76.24 187.352 76.24 174.09Z" fill="white"/>
<path d="M73.8393 109.256C73.8393 101.573 69.8372 95.6495 67.8362 93.6484C66.6355 100.852 76.2401 111.658 39.0213 146.476C-3.13982 185.917 -2.20026 260.534 1.80181 291.751C10.2061 258.133 22.2126 242.925 30.6169 232.92C35.4194 227.317 50.7873 216.592 73.8393 218.513C96.8912 220.434 115.461 200.904 121.864 190.899C114.66 196.902 103.855 210.108 79.8423 210.108C55.8299 210.108 46.225 188.497 46.225 182.494C46.225 176.491 43.8238 166.886 55.83 150.078C67.8362 133.269 73.8393 118.861 73.8393 109.256Z" fill="white"/>
<path fill-rule="evenodd" clip-rule="evenodd" d="M163.73 124.856L163.731 124.856C166.85 126.658 180.367 134.461 190.121 151.183C202.533 172.463 215.046 172.044 221.475 166.513C214.246 173.43 203.907 177.762 183.957 164.261C179.388 161.17 175.244 159.66 171.472 159.313C164.437 169.508 150.632 172.748 139.718 166.447C128.233 159.816 124.298 145.13 130.929 133.645C137.559 122.16 152.245 118.225 163.73 124.856L163.73 124.856Z" fill="white"/>
<path d="M221.078 155.194C227.732 159.036 234.863 158.531 237.596 157.799C231.958 153.157 217.798 156.072 206.254 106.431C193.178 50.1976 128.087 13.7025 99.0522 1.56036C123.963 25.6474 131.131 43.6492 135.593 55.9301C138.044 62.8906 139.649 81.5625 126.459 100.566C113.27 119.569 120.898 145.415 126.361 155.963C124.764 146.723 118.73 130.762 130.736 109.966C142.742 89.1711 166.26 91.6586 171.459 94.6602C176.658 97.6617 186.177 100.385 194.73 119.187C203.284 137.989 212.76 150.391 221.078 155.194Z" fill="white"/>
<path fill-rule="evenodd" clip-rule="evenodd" d="M160.312 225.286L160.312 225.286C157.192 227.087 143.675 234.891 124.317 234.977C99.6822 235.086 93.788 246.133 95.3639 254.465C92.9876 244.747 94.406 233.627 116.073 223.1C121.034 220.689 124.414 217.855 126.6 214.762C121.289 203.572 125.385 189.996 136.299 183.695C147.784 177.064 162.47 180.999 169.101 192.484C175.732 203.969 171.797 218.655 160.312 225.285L160.312 225.286Z" fill="white"/>
<path d="M105.365 259.782C98.7105 263.623 95.582 270.051 94.8496 272.784C101.689 270.222 106.244 256.502 155.007 271.325C210.245 288.117 274.395 249.995 299.428 230.921C266.113 240.451 246.939 237.657 234.072 235.381C226.819 234.024 209.846 226.077 199.984 205.153C190.121 184.229 163.923 177.913 152.057 177.37C160.857 180.607 177.698 183.361 189.704 204.157C201.71 224.952 187.797 244.076 182.598 247.077C177.399 250.079 170.282 256.961 149.722 254.967C129.162 252.974 113.683 254.979 105.365 259.782Z" fill="white"/>
</svg>
